<svg width="261" height="375" viewBox="0 0 261 375" fill="none" xmlns="http://www.w3.org/2000/svg">
<g clip-path="url(#clip0_211_171)">
<g filter="url(#filter0_d_211_171)">
<rect x="6.10352e-05" width="260.382" height="375" rx="22.4252" fill="white"/>
<rect x="4.36052" y="4.36047" width="251.661" height="366.279" rx="18.0648" stroke="#F9BB00" stroke-width="8.72093"/>
</g>
<rect x="6.10352e-05" y="-8.72095" width="260.59" height="390.884" fill="white"/>
<path d="M130.118 176.002C103.997 176.002 75.7906 159.619 75.7906 123.664C75.7906 87.7091 103.997 71.3267 130.118 71.3267C144.627 71.3267 158.019 76.0961 167.948 84.8032C178.708 94.3632 184.425 107.84 184.425 123.664C184.425 139.489 178.708 152.881 167.948 162.43C158.019 171.138 144.532 176.002 130.118 176.002Z" fill="url(#paint0_radial_211_171)"/>
<path d="M174.96 92.5493C180.098 101.077 182.73 110.89 182.551 120.85C182.551 136.643 176.834 150.067 166.074 159.616C156.145 168.323 142.669 173.188 128.245 173.188C111.336 173.188 93.5738 166.313 83.1399 151.709C93.2158 168.25 112.157 175.999 130.119 175.999C144.532 175.999 158.019 171.135 167.948 162.427C178.708 152.868 184.425 139.486 184.425 123.661C184.425 111.732 181.172 101.13 174.96 92.5493Z" fill="#EB8F00"/>
<path opacity="0.8" d="M98.7409 137.382C108.917 137.382 117.166 129.605 117.166 120.01C117.166 110.416 108.917 102.638 98.7409 102.638C88.565 102.638 80.3159 110.416 80.3159 120.01C80.3159 129.605 88.565 137.382 98.7409 137.382Z" fill="url(#paint1_radial_211_171)"/>
<path opacity="0.8" d="M162.334 137.382C172.51 137.382 180.759 129.605 180.759 120.01C180.759 110.416 172.51 102.638 162.334 102.638C152.158 102.638 143.909 110.416 143.909 120.01C143.909 129.605 152.158 137.382 162.334 137.382Z" fill="url(#paint2_radial_211_171)"/>
<path d="M88.4211 65.6682C92.4914 65.6682 95.7911 63.3113 95.7911 60.4039C95.7911 57.4965 92.4914 55.1396 88.4211 55.1396C84.3507 55.1396 81.0511 57.4965 81.0511 60.4039C81.0511 63.3113 84.3507 65.6682 88.4211 65.6682Z" fill="#FF00A2"/>
<path d="M119.424 75.4287C121.151 73.7018 120.717 70.4686 118.456 68.2072C116.195 65.9458 112.961 65.5125 111.234 67.2394C109.508 68.9663 109.941 72.1995 112.202 74.4609C114.464 76.7223 117.697 77.1556 119.424 75.4287Z" fill="#FD3B3B"/>
<path d="M142.008 67.0296C145.871 64.0399 147.877 60.1625 146.488 58.3692C145.1 56.5758 140.844 57.5457 136.981 60.5354C133.119 63.5251 131.113 67.4025 132.501 69.1958C133.889 70.9891 138.145 70.0193 142.008 67.0296Z" fill="#00EEFF"/>
<path d="M90.4827 136.532C91.9431 135.689 91.5949 132.352 89.7051 129.079C87.8152 125.806 85.0993 123.836 83.639 124.679C82.1786 125.522 82.5268 128.859 84.4166 132.132C86.3065 135.405 89.0224 137.375 90.4827 136.532Z" fill="#0048FF"/>
<path d="M164.752 166.746C166.787 166.746 168.437 164.154 168.437 160.956C168.437 157.758 166.787 155.165 164.752 155.165C162.717 155.165 161.067 157.758 161.067 160.956C161.067 164.154 162.717 166.746 164.752 166.746Z" fill="#F63BBE"/>
<path d="M185.841 106.449C188.932 104.274 190.895 101.739 190.225 100.788C189.556 99.8372 186.508 100.83 183.417 103.006C180.327 105.181 178.364 107.716 179.033 108.667C179.703 109.618 182.751 108.625 185.841 106.449Z" fill="#00CC00"/>
<path d="M86.8216 172.05C88.037 171.252 87.4707 168.241 85.5567 165.324C83.6427 162.407 81.1059 160.689 79.8904 161.486C78.675 162.284 79.2413 165.295 81.1553 168.212C83.0693 171.129 85.6061 172.847 86.8216 172.05Z" fill="#0048FF"/>
<path d="M79.1315 151.471C82.6117 151.224 85.3494 149.849 85.2465 148.399C85.1436 146.948 82.239 145.973 78.7588 146.22C75.2787 146.467 72.541 147.843 72.6439 149.293C72.7468 150.743 75.6514 151.718 79.1315 151.471Z" fill="#7ACDED"/>
<path d="M88.5457 137.685C92.7231 137.407 96.0563 136.382 95.9907 135.396C95.9251 134.41 92.4854 133.835 88.308 134.113C84.1306 134.391 80.7973 135.416 80.863 136.403C80.9286 137.389 84.3683 137.963 88.5457 137.685Z" fill="#FF82B2"/>
<path d="M188.336 126.943C187.442 123.847 185.304 121.257 182.44 119.783C177.597 117.151 171.533 118.951 168.911 123.795C168.89 123.826 168.88 123.858 168.859 123.889C166.669 128.017 168.216 133.144 172.333 135.366C173.965 136.282 175.881 136.545 177.703 136.103C179.577 135.681 181.156 134.45 182.019 132.733C182.956 130.754 182.872 128.438 181.809 126.522C180.945 124.837 179.271 123.721 177.387 123.574C176.302 123.552 175.418 124.416 175.397 125.5C175.386 126.479 176.102 127.322 177.071 127.469C177.608 127.501 178.092 127.827 178.334 128.311C178.703 129.059 178.776 129.933 178.545 130.733C178.187 131.438 177.534 131.944 176.755 132.102C175.902 132.323 174.997 132.207 174.228 131.786C173.175 131.228 172.386 130.28 172.017 129.154C171.701 127.996 171.817 126.764 172.333 125.679C173.07 124.247 174.365 123.173 175.913 122.731C177.46 122.289 179.103 122.436 180.545 123.152C182.43 124.184 183.83 125.932 184.441 127.996C185.083 130.07 184.851 132.312 183.809 134.207C181.809 137.998 177.913 140.525 172.228 140.525C168.964 140.525 149.539 139.998 149.539 139.998L149.77 144.841L172.017 144.525C178.65 144.525 184.125 141.893 187.284 135.997C188.947 133.281 189.326 129.964 188.336 126.943Z" fill="url(#paint3_linear_211_171)"/>
<path d="M136.852 142.535C137.494 143.219 137.989 144.019 138.326 144.893L150.381 144.819C150.381 143.24 150.17 141.661 150.17 139.976C147.012 139.871 140.505 139.766 138.484 139.692C138.189 140.776 137.61 141.766 136.789 142.535H136.852Z" fill="#7F0099"/>
<path d="M173.49 102.323L177.175 102.849L178.122 99.1641L178.649 97.0584L157.486 94.1104C167.067 101.375 172.858 102.323 173.49 102.323Z" fill="#FF4545"/>
<path d="M190.44 50.3052L181.912 55.1483L179.806 56.3065L188.65 57.5699C189.282 54.9377 190.44 50.3052 190.44 50.3052Z" fill="#FF4545"/>
<path d="M171.593 60.939L162.855 65.8874L185.702 69.1513L187.176 63.15L171.593 60.939Z" fill="#FF4545"/>
<path d="M146.642 75.06H146.536L182.86 80.3243L184.229 74.7441L154.643 70.5327L146.642 75.06Z" fill="#FF4545"/>
<path d="M149.695 87.154L180.017 91.4707L181.491 85.7853L144.957 80.521C145.378 81.6791 146.641 83.9954 149.695 87.154Z" fill="#FF4545"/>
<path d="M154.642 70.5276L184.228 74.739L185.702 69.1589L162.855 65.895L154.642 70.5276Z" fill="#FF9C9C"/>
<path d="M188.018 59.8934C188.018 59.8934 188.333 58.4194 188.544 57.6824L179.7 56.4189L171.488 61.0515L187.07 63.2625L188.018 59.8934Z" fill="#FF9C9C"/>
<path d="M143.483 76.7326L144.641 80.1018C144.683 80.2913 144.757 80.4703 144.852 80.6282L181.386 85.8925L182.755 80.3123L146.431 75.1533L143.483 76.7326Z" fill="#FF9C9C"/>
<path d="M157.065 93.7919C157.171 93.8972 157.381 94.0024 157.487 94.1077L178.649 97.161L180.018 91.5809L149.695 87.2642C152.001 89.6015 154.465 91.7809 157.065 93.7919Z" fill="#FF9C9C"/>
<path d="M190.336 56.5215C193.127 56.5215 195.39 54.2589 195.39 51.4678C195.39 48.6767 193.127 46.4141 190.336 46.4141C187.545 46.4141 185.282 48.6767 185.282 51.4678C185.282 54.2589 187.545 56.5215 190.336 56.5215Z" fill="#C93737"/>
<path d="M138.792 141.29C140.34 139.952 141.308 138.068 141.498 136.025C141.793 133.972 141.182 131.898 139.813 130.34C137.36 127.118 130.538 127.918 130.538 127.918C128.706 127.992 126.589 128.866 126.853 130.971C127.2 132.182 128.179 133.109 129.401 133.383C132.096 134.025 135.939 133.383 136.044 136.12C136.17 139.194 131.454 137.931 131.075 141.184C130.696 144.438 136.044 144.006 136.044 146.248C136.044 147.965 134.286 148.259 132.433 148.649C130.843 148.975 127.79 149.47 127.548 151.292C127.305 153.113 128.348 155.356 132.643 154.703C139.403 153.65 141.677 149.976 141.677 147.701C141.719 145.238 140.666 142.89 138.792 141.29Z" fill="#422B0D"/>
<path d="M115.65 113.497L115.492 113.297L115.071 112.76L114.534 112.181C114.324 111.95 114.071 111.697 113.818 111.444C113.555 111.192 113.281 110.949 112.986 110.728C112.723 110.528 112.449 110.349 112.155 110.191C111.955 110.075 111.734 109.991 111.502 109.949C111.428 109.939 111.365 109.939 111.291 109.949C111.291 109.949 111.291 109.949 111.207 109.949H111.397H110.849C110.712 109.949 110.849 109.949 110.849 109.949H110.923C111.007 109.949 110.923 109.949 110.923 109.949C110.881 109.939 110.849 109.939 110.807 109.949C110.575 109.991 110.354 110.075 110.154 110.191C109.859 110.349 109.586 110.528 109.322 110.728C109.049 110.939 108.764 111.192 108.491 111.444C107.975 111.95 107.522 112.497 107.206 112.823L106.701 113.424L106.469 113.687C105.037 115.277 102.637 115.529 100.9 114.287C99.7941 113.518 99.2255 112.181 99.4361 110.844C99.4361 110.844 99.5098 110.444 99.6993 109.791C99.9941 108.78 100.415 107.812 100.942 106.906C101.763 105.411 102.879 104.095 104.216 103.042C105.132 102.348 106.143 101.789 107.227 101.4C107.522 101.284 107.838 101.189 108.143 101.116C108.491 101.01 108.838 100.937 109.196 100.884L109.807 100.8H110.312H110.86H111.639H112.144C112.471 100.8 112.807 100.884 113.134 100.937C113.776 101.052 114.397 101.221 115.008 101.442C116.092 101.832 117.103 102.39 118.019 103.085C119.377 104.116 120.525 105.411 121.367 106.896C121.673 107.412 121.946 107.959 122.167 108.517C122.367 108.981 122.515 109.475 122.641 109.844C122.768 110.212 122.757 110.391 122.799 110.57V110.812C123.083 112.844 121.662 114.729 119.63 115.013C119.588 115.024 119.546 115.024 119.514 115.024C118.051 115.245 116.566 114.666 115.65 113.497Z" fill="#422B0D"/>
<path d="M154.753 113.497L154.595 113.297L154.174 112.76L153.701 112.181C153.49 111.95 153.237 111.697 152.985 111.444C152.721 111.192 152.448 110.949 152.153 110.728C151.89 110.528 151.616 110.349 151.321 110.191C151.121 110.075 150.9 109.991 150.679 109.949C150.605 109.939 150.542 109.939 150.468 109.949C150.468 109.949 150.405 109.949 150.384 109.949H150.542H149.994C149.847 109.949 149.994 109.949 149.994 109.949H150.068C150.152 109.949 150.068 109.949 150.068 109.949H149.952C149.731 109.991 149.51 110.075 149.31 110.191C149.015 110.349 148.742 110.528 148.478 110.728C148.184 110.949 147.91 111.192 147.647 111.444C147.12 111.95 146.678 112.497 146.352 112.823L145.846 113.424L145.615 113.687C144.183 115.277 141.782 115.529 140.045 114.287C138.939 113.518 138.371 112.181 138.581 110.844C138.581 110.844 138.655 110.444 138.855 109.791C139.118 108.77 139.508 107.78 140.013 106.854C140.856 105.369 142.003 104.074 143.361 103.042C144.277 102.348 145.299 101.789 146.383 101.4C146.678 101.284 146.983 101.189 147.289 101.116C147.636 101.01 147.984 100.937 148.341 100.884L148.952 100.8H149.458H150.005H150.784H151.289C151.626 100.8 151.953 100.884 152.279 100.937C154.059 101.242 155.733 101.968 157.175 103.042C158.533 104.074 159.67 105.369 160.523 106.854C160.828 107.37 161.092 107.917 161.313 108.475C161.502 108.907 161.66 109.349 161.787 109.802C161.86 110.044 161.913 110.286 161.944 110.528V110.77C162.239 112.792 160.828 114.676 158.807 114.961C158.765 114.971 158.723 114.971 158.67 114.982C157.196 115.213 155.701 114.655 154.753 113.497Z" fill="#422B0D"/>
<g filter="url(#filter1_d_211_171)">
<path d="M68.7882 233.633V240.522H65.4647V221.809C67.6803 221.715 68.9757 221.668 69.3506 221.668C72.3077 221.668 74.468 222.124 75.8315 223.036C77.2035 223.939 77.8895 225.354 77.8895 227.28C77.8895 231.575 75.3585 233.722 70.2965 233.722C69.9216 233.722 69.4188 233.692 68.7882 233.633ZM68.7882 224.685V230.68C69.3506 230.739 69.7937 230.769 70.1176 230.769C71.6345 230.769 72.7423 230.518 73.4411 230.015C74.1399 229.504 74.4893 228.677 74.4893 227.535C74.4893 225.592 72.9255 224.621 69.798 224.621C69.4486 224.621 69.112 224.642 68.7882 224.685ZM89.8158 240.522L88.448 236.726H82.0311L80.7272 240.522H77.033L84.4981 221.54H85.9554L93.4844 240.522H89.8158ZM85.2268 227.267L82.977 234.182H87.4765L85.2268 227.267ZM106.037 240.522L101.039 232.789C100.536 232.78 99.8332 232.751 98.9298 232.699V240.522H95.4785V221.796C95.666 221.796 96.3861 221.766 97.6388 221.706C98.8915 221.638 99.9013 221.604 100.668 221.604C105.423 221.604 107.801 223.445 107.801 227.126C107.801 228.234 107.473 229.244 106.817 230.156C106.161 231.068 105.334 231.711 104.337 232.086L109.872 240.522H106.037ZM98.9298 224.685V229.887C99.5434 229.938 100.012 229.964 100.336 229.964C101.725 229.964 102.739 229.768 103.378 229.376C104.026 228.984 104.35 228.221 104.35 227.088C104.35 226.167 104.005 225.524 103.314 225.158C102.624 224.791 101.538 224.608 100.055 224.608C99.6968 224.608 99.3218 224.634 98.9298 224.685ZM122.412 240.522L121.044 236.726H114.627L113.323 240.522H109.629L117.094 221.54H118.551L126.08 240.522H122.412ZM117.823 227.267L115.573 234.182H120.072L117.823 227.267ZM133.801 240.522H128.074V221.809C130.597 221.689 132.365 221.63 133.379 221.63C135.322 221.63 136.839 222.047 137.93 222.882C139.029 223.709 139.579 224.893 139.579 226.436C139.579 227.919 138.795 229.09 137.227 229.951C139.553 230.761 140.717 232.431 140.717 234.962C140.717 236.666 140.073 238.021 138.786 239.027C137.5 240.024 135.838 240.522 133.801 240.522ZM131.398 224.467V228.954C131.909 228.988 132.446 229.005 133.009 229.005C135.173 229.005 136.255 228.191 136.255 226.564C136.255 225.124 135.271 224.403 133.303 224.403C132.783 224.403 132.148 224.425 131.398 224.467ZM131.398 231.549V237.736C132.071 237.795 132.617 237.825 133.034 237.825C134.517 237.825 135.591 237.574 136.255 237.071C136.929 236.568 137.265 235.733 137.265 234.566C137.265 233.5 136.954 232.725 136.332 232.239C135.71 231.754 134.623 231.511 133.072 231.511C132.749 231.511 132.19 231.523 131.398 231.549ZM146.993 224.749V229.133H153.18V231.958H146.993V237.57H155.481V240.522H143.669V221.796H155.621V224.749H146.993ZM152.962 216.517L150.074 220.262H147.645L149.805 216.517H152.962ZM170.858 240.778L161.77 228.929V240.535H158.574V221.796H160.172L169.018 233.096V221.796H172.213V240.778H170.858ZM175.166 239.487L176.393 236.509C177.706 237.429 178.997 237.889 180.266 237.889C182.218 237.889 183.194 237.207 183.194 235.844C183.194 235.205 182.963 234.596 182.503 234.016C182.043 233.437 181.093 232.789 179.653 232.073C178.221 231.349 177.254 230.756 176.751 230.296C176.257 229.828 175.873 229.274 175.601 228.635C175.336 227.995 175.204 227.288 175.204 226.513C175.204 225.064 175.733 223.862 176.789 222.908C177.855 221.953 179.218 221.476 180.88 221.476C183.044 221.476 184.634 221.881 185.648 222.691L184.638 225.554C183.471 224.719 182.239 224.301 180.944 224.301C180.177 224.301 179.58 224.506 179.154 224.915C178.737 225.315 178.528 225.839 178.528 226.487C178.528 227.561 179.717 228.677 182.094 229.836C183.347 230.45 184.25 231.016 184.804 231.536C185.358 232.048 185.78 232.648 186.07 233.339C186.359 234.02 186.504 234.783 186.504 235.627C186.504 237.144 185.904 238.392 184.702 239.372C183.509 240.352 181.907 240.842 179.896 240.842C178.149 240.842 176.572 240.39 175.166 239.487ZM192.985 235.639H191.656C190.991 231.379 190.659 228.4 190.659 226.704V221.463H193.982V226.692C193.982 228.396 193.65 231.379 192.985 235.639ZM192.423 236.585C193.002 236.585 193.492 236.79 193.893 237.199C194.302 237.608 194.506 238.102 194.506 238.682C194.506 239.261 194.302 239.755 193.893 240.165C193.492 240.574 193.002 240.778 192.423 240.778C191.843 240.778 191.349 240.574 190.94 240.165C190.531 239.755 190.326 239.261 190.326 238.682C190.326 238.102 190.531 237.608 190.94 237.199C191.349 236.79 191.843 236.585 192.423 236.585ZM27.8323 270.778H26.0044L18.9995 251.796H22.6553L26.9887 264.451L31.5649 251.796H35.144L27.8323 270.778ZM36.2434 260.999C36.2434 258.332 36.972 256.078 38.4292 254.237C39.895 252.388 41.8507 251.463 44.2965 251.463C46.9894 251.463 49.0474 252.299 50.4705 253.969C51.8937 255.639 52.6052 257.983 52.6052 260.999C52.6052 264.016 51.8596 266.411 50.3683 268.183C48.8855 269.956 46.7763 270.842 44.0408 270.842C41.5269 270.842 39.5967 269.964 38.2502 268.209C36.9123 266.453 36.2434 264.05 36.2434 260.999ZM39.6947 260.999C39.6947 263.189 40.0654 264.885 40.8068 266.087C41.5482 267.288 42.6262 267.889 44.0408 267.889C45.7026 267.889 46.9681 267.301 47.8373 266.125C48.715 264.949 49.1539 263.241 49.1539 260.999C49.1539 256.611 47.5348 254.416 44.2965 254.416C42.8137 254.416 41.676 255.013 40.8835 256.206C40.091 257.39 39.6947 258.988 39.6947 260.999ZM68.3791 252.793L67.0114 255.541C66.27 254.8 65.0769 254.429 63.4322 254.429C61.8727 254.429 60.5944 255.085 59.5974 256.398C58.6003 257.701 58.1018 259.355 58.1018 261.357C58.1018 263.36 58.562 264.949 59.4823 266.125C60.4112 267.301 61.6469 267.889 63.1893 267.889C64.9534 267.889 66.3339 267.259 67.3309 265.997L68.8776 268.682C67.5227 270.122 65.5371 270.842 62.9209 270.842C60.3047 270.842 58.2722 269.981 56.8235 268.26C55.3748 266.539 54.6505 264.191 54.6505 261.217C54.6505 258.447 55.4515 256.133 57.0536 254.276C58.6643 252.409 60.7223 251.476 63.2277 251.476C65.3752 251.476 67.0923 251.915 68.3791 252.793ZM74.8983 254.749V259.133H81.0852V261.958H74.8983V267.57H83.386V270.522H71.5748V251.796H83.5267V254.749H74.8983ZM79.4234 250.262L77.4165 248.357L75.6397 250.262H72.2267L76.7646 246.235H78.1323L82.8364 250.262H79.4234ZM107.213 252.793L105.845 255.541C105.104 254.8 103.911 254.429 102.266 254.429C100.707 254.429 99.4284 255.085 98.4313 256.398C97.4343 257.701 96.9357 259.355 96.9357 261.357C96.9357 263.36 97.3959 264.949 98.3163 266.125C99.2451 267.301 100.481 267.889 102.023 267.889C103.787 267.889 105.168 267.259 106.165 265.997L107.712 268.682C106.357 270.122 104.371 270.842 101.755 270.842C99.1386 270.842 97.1062 269.981 95.6575 268.26C94.2087 266.539 93.4844 264.191 93.4844 261.217C93.4844 258.447 94.2854 256.133 95.8875 254.276C97.4982 252.409 99.5562 251.476 102.062 251.476C104.209 251.476 105.926 251.915 107.213 252.793ZM109.514 260.999C109.514 258.332 110.243 256.078 111.7 254.237C113.166 252.388 115.121 251.463 117.567 251.463C120.26 251.463 122.318 252.299 123.741 253.969C125.164 255.639 125.876 257.983 125.876 260.999C125.876 264.016 125.13 266.411 123.639 268.183C122.156 269.956 120.047 270.842 117.311 270.842C114.797 270.842 112.867 269.964 111.521 268.209C110.183 266.453 109.514 264.05 109.514 260.999ZM112.965 260.999C112.965 263.189 113.336 264.885 114.077 266.087C114.819 267.288 115.897 267.889 117.311 267.889C118.973 267.889 120.239 267.301 121.108 266.125C121.986 264.949 122.424 263.241 122.424 260.999C122.424 256.611 120.805 254.416 117.567 254.416C116.084 254.416 114.947 255.013 114.154 256.206C113.362 257.39 112.965 258.988 112.965 260.999ZM146.277 270.535H143.056L141.113 260.437L137.342 270.778H136.153L132.382 260.437L130.363 270.535H127.154L130.925 251.796H132.689L136.741 264.412L140.704 251.796H142.455L146.277 270.535ZM151.646 263.633V270.522H148.322V251.809C150.538 251.715 151.833 251.668 152.208 251.668C155.165 251.668 157.326 252.124 158.689 253.036C160.061 253.939 160.747 255.354 160.747 257.28C160.747 261.575 158.216 263.722 153.154 263.722C152.779 263.722 152.276 263.692 151.646 263.633ZM151.646 254.685V260.68C152.208 260.739 152.651 260.769 152.975 260.769C154.492 260.769 155.6 260.518 156.299 260.015C156.997 259.504 157.347 258.677 157.347 257.535C157.347 255.592 155.783 254.621 152.656 254.621C152.306 254.621 151.97 254.642 151.646 254.685ZM163.687 270.522V251.796H167.011V267.57H175.473V270.522H163.687ZM181.481 254.749V259.133H187.668V261.958H181.481V267.57H189.968V270.522H178.157V251.796H190.109V254.749H181.481ZM200.68 254.749V270.522H197.357V254.749H191.4V251.796H206.906V254.749H200.68ZM206.637 260.999C206.637 258.332 207.366 256.078 208.823 254.237C210.289 252.388 212.244 251.463 214.69 251.463C217.383 251.463 219.441 252.299 220.864 253.969C222.287 255.639 222.999 257.983 222.999 260.999C222.999 264.016 222.253 266.411 220.762 268.183C219.279 269.956 217.17 270.842 214.435 270.842C211.921 270.842 209.99 269.964 208.644 268.209C207.306 266.453 206.637 264.05 206.637 260.999ZM210.088 260.999C210.088 263.189 210.459 264.885 211.201 266.087C211.942 267.288 213.02 267.889 214.435 267.889C216.096 267.889 217.362 267.301 218.231 266.125C219.109 264.949 219.548 263.241 219.548 260.999C219.548 256.611 217.928 254.416 214.69 254.416C213.207 254.416 212.07 255.013 211.277 256.206C210.485 257.39 210.088 258.988 210.088 260.999ZM225.939 251.796H229.262V264.489C229.262 265.495 229.569 266.313 230.183 266.943C230.796 267.574 231.64 267.889 232.714 267.889C233.915 267.889 234.849 267.582 235.513 266.969C236.186 266.347 236.523 265.499 236.523 264.425V251.796H239.847V264.681C239.847 266.607 239.199 268.115 237.904 269.206C236.617 270.297 234.895 270.842 232.739 270.842C230.566 270.842 228.888 270.309 227.703 269.244C226.527 268.179 225.939 266.654 225.939 264.668V251.796ZM59.1372 299.487L60.3644 296.509C61.6767 297.429 62.9678 297.889 64.2375 297.889C66.189 297.889 67.1648 297.207 67.1648 295.844C67.1648 295.205 66.9347 294.596 66.4745 294.016C66.0143 293.437 65.0641 292.789 63.624 292.073C62.1923 291.349 61.2251 290.756 60.7223 290.296C60.228 289.828 59.8445 289.274 59.5718 288.635C59.3077 287.995 59.1756 287.288 59.1756 286.513C59.1756 285.064 59.7039 283.862 60.7606 282.908C61.8258 281.953 63.1893 281.476 64.8511 281.476C67.0156 281.476 68.605 281.881 69.6191 282.691L68.6092 285.554C67.4417 284.719 66.2103 284.301 64.915 284.301C64.148 284.301 63.5515 284.506 63.1254 284.915C62.7079 285.315 62.4991 285.839 62.4991 286.487C62.4991 287.561 63.6879 288.677 66.0655 289.836C67.3182 290.45 68.2215 291.016 68.7754 291.536C69.3293 292.048 69.7511 292.648 70.0409 293.339C70.3306 294.02 70.4755 294.783 70.4755 295.627C70.4755 297.144 69.8747 298.392 68.6731 299.372C67.4801 300.352 65.878 300.842 63.8668 300.842C62.1199 300.842 60.5433 300.39 59.1372 299.487ZM73.4283 281.796H76.7518V294.489C76.7518 295.495 77.0586 296.313 77.6722 296.943C78.2857 297.574 79.1294 297.889 80.2031 297.889C81.4047 297.889 82.3379 297.582 83.0026 296.969C83.6758 296.347 84.0124 295.499 84.0124 294.425V281.796H87.3359V294.681C87.3359 296.607 86.6883 298.115 85.3929 299.206C84.1061 300.297 82.3847 300.842 80.2287 300.842C78.0557 300.842 76.3769 300.309 75.1923 299.244C74.0163 298.179 73.4283 296.654 73.4283 294.668V281.796ZM102.1 300.522L100.732 296.726H94.3153L93.0114 300.522H89.3172L96.7823 281.54H98.2396L105.769 300.522H102.1ZM97.511 287.267L95.2612 294.182H99.7607L97.511 287.267ZM131.666 300.535H128.445L126.502 290.437L122.731 300.778H121.542L117.772 290.437L115.752 300.535H112.543L116.314 281.796H118.078L122.13 294.412L126.093 281.796H127.844L131.666 300.535ZM133.776 300.522V281.796H137.099V300.522H133.776ZM140.103 299.487L141.33 296.509C142.643 297.429 143.934 297.889 145.203 297.889C147.155 297.889 148.131 297.207 148.131 295.844C148.131 295.205 147.9 294.596 147.44 294.016C146.98 293.437 146.03 292.789 144.59 292.073C143.158 291.349 142.191 290.756 141.688 290.296C141.194 289.828 140.81 289.274 140.538 288.635C140.273 287.995 140.141 287.288 140.141 286.513C140.141 285.064 140.67 283.862 141.726 282.908C142.792 281.953 144.155 281.476 145.817 281.476C147.981 281.476 149.571 281.881 150.585 282.691L149.575 285.554C148.408 284.719 147.176 284.301 145.881 284.301C145.114 284.301 144.517 284.506 144.091 284.915C143.674 285.315 143.465 285.839 143.465 286.487C143.465 287.561 144.654 288.677 147.031 289.836C148.284 290.45 149.187 291.016 149.741 291.536C150.295 292.048 150.717 292.648 151.007 293.339C151.296 294.02 151.441 294.783 151.441 295.627C151.441 297.144 150.84 298.392 149.639 299.372C148.446 300.352 146.844 300.842 144.833 300.842C143.086 300.842 141.509 300.39 140.103 299.487ZM153.499 299.487L154.726 296.509C156.039 297.429 157.33 297.889 158.6 297.889C160.551 297.889 161.527 297.207 161.527 295.844C161.527 295.205 161.297 294.596 160.837 294.016C160.376 293.437 159.426 292.789 157.986 292.073C156.554 291.349 155.587 290.756 155.084 290.296C154.59 289.828 154.207 289.274 153.934 288.635C153.67 287.995 153.538 287.288 153.538 286.513C153.538 285.064 154.066 283.862 155.123 282.908C156.188 281.953 157.551 281.476 159.213 281.476C161.378 281.476 162.967 281.881 163.981 282.691L162.971 285.554C161.804 284.719 160.572 284.301 159.277 284.301C158.51 284.301 157.914 284.506 157.488 284.915C157.07 285.315 156.861 285.839 156.861 286.487C156.861 287.561 158.05 288.677 160.428 289.836C161.68 290.45 162.584 291.016 163.137 291.536C163.691 292.048 164.113 292.648 164.403 293.339C164.693 294.02 164.838 294.783 164.838 295.627C164.838 297.144 164.237 298.392 163.035 299.372C161.842 300.352 160.24 300.842 158.229 300.842C156.482 300.842 154.905 300.39 153.499 299.487ZM178.72 300.522L177.352 296.726H170.935L169.631 300.522H165.937L173.402 281.54H174.859L182.388 300.522H178.72ZM174.131 287.267L171.881 294.182H176.38L174.131 287.267ZM171.702 280.645H169.848C170.01 279.674 170.334 278.886 170.82 278.281C171.314 277.667 171.923 277.36 172.648 277.36C173.313 277.36 173.977 277.526 174.642 277.859C175.307 278.183 175.733 278.344 175.92 278.344C176.44 278.344 176.811 278.016 177.032 277.36H178.924C178.6 278.63 178.204 279.495 177.735 279.955C177.267 280.415 176.679 280.645 175.971 280.645C175.443 280.645 174.838 280.483 174.156 280.16C173.483 279.827 173.044 279.661 172.84 279.661C172.396 279.661 172.017 279.989 171.702 280.645ZM183.488 290.999C183.488 288.332 184.216 286.078 185.673 284.237C187.139 282.388 189.095 281.463 191.541 281.463C194.234 281.463 196.292 282.299 197.715 283.969C199.138 285.639 199.849 287.983 199.849 290.999C199.849 294.016 199.104 296.411 197.612 298.183C196.13 299.956 194.021 300.842 191.285 300.842C188.771 300.842 186.841 299.964 185.494 298.209C184.157 296.453 183.488 294.05 183.488 290.999ZM186.939 290.999C186.939 293.189 187.31 294.885 188.051 296.087C188.792 297.288 189.87 297.889 191.285 297.889C192.947 297.889 194.212 297.301 195.082 296.125C195.959 294.949 196.398 293.241 196.398 290.999C196.398 286.611 194.779 284.416 191.541 284.416C190.058 284.416 188.92 285.013 188.128 286.206C187.335 287.39 186.939 288.988 186.939 290.999ZM206.318 295.639H204.988C204.323 291.379 203.991 288.4 203.991 286.704V281.463H207.315V286.692C207.315 288.396 206.982 291.379 206.318 295.639ZM205.755 296.585C206.335 296.585 206.825 296.79 207.225 297.199C207.634 297.608 207.839 298.102 207.839 298.682C207.839 299.261 207.634 299.755 207.225 300.165C206.825 300.574 206.335 300.778 205.755 300.778C205.176 300.778 204.681 300.574 204.272 300.165C203.863 299.755 203.659 299.261 203.659 298.682C203.659 298.102 203.863 297.608 204.272 297.199C204.681 296.79 205.176 296.585 205.755 296.585Z" fill="#018443"/>
</g>
</g>
<rect x="4.36052" y="4.36047" width="251.661" height="366.279" rx="18.0648" stroke="#F9BB00" stroke-width="8.72093"/>
<defs>
<filter id="filter0_d_211_171" x="-6.22924" y="-1.24585" width="272.841" height="387.458" filterUnits="userSpaceOnUse" color-interpolation-filters="sRGB">
<feFlood flood-opacity="0" result="BackgroundImageFix"/>
<feColorMatrix in="SourceAlpha" type="matrix" values="0 0 0 0 0 0 0 0 0 0 0 0 0 0 0 0 0 0 127 0" result="hardAlpha"/>
<feOffset dy="4.98339"/>
<feGaussianBlur stdDeviation="3.11462"/>
<feComposite in2="hardAlpha" operator="out"/>
<feColorMatrix type="matrix" values="0 0 0 0 0 0 0 0 0 0 0 0 0 0 0 0 0 0 0.25 0"/>
<feBlend mode="normal" in2="BackgroundImageFix" result="effect1_dropShadow_211_171"/>
<feBlend mode="normal" in="SourceGraphic" in2="effect1_dropShadow_211_171" result="shape"/>
</filter>
<filter id="filter1_d_211_171" x="16.8179" y="216.517" width="225.21" height="88.6884" filterUnits="userSpaceOnUse" color-interpolation-filters="sRGB">
<feFlood flood-opacity="0" result="BackgroundImageFix"/>
<feColorMatrix in="SourceAlpha" type="matrix" values="0 0 0 0 0 0 0 0 0 0 0 0 0 0 0 0 0 0 127 0" result="hardAlpha"/>
<feOffset dy="2.18159"/>
<feGaussianBlur stdDeviation="1.09079"/>
<feComposite in2="hardAlpha" operator="out"/>
<feColorMatrix type="matrix" values="0 0 0 0 0 0 0 0 0 0 0 0 0 0 0 0 0 0 0.25 0"/>
<feBlend mode="normal" in2="BackgroundImageFix" result="effect1_dropShadow_211_171"/>
<feBlend mode="normal" in="SourceGraphic" in2="effect1_dropShadow_211_171" result="shape"/>
</filter>
<radialGradient id="paint0_radial_211_171" cx="0" cy="0" r="1" gradientUnits="userSpaceOnUse" gradientTransform="translate(130.108 123.664) scale(53.3366 53.3364)">
<stop offset="0.5" stop-color="#FDE030"/>
<stop offset="0.92" stop-color="#F7C02B"/>
<stop offset="1" stop-color="#F4A223"/>
</radialGradient>
<radialGradient id="paint1_radial_211_171" cx="0" cy="0" r="1" gradientUnits="userSpaceOnUse" gradientTransform="translate(98.7409 123.715) scale(20.0547 18.0082)">
<stop stop-color="#ED7770"/>
<stop offset="0.9" stop-color="#ED7770" stop-opacity="0"/>
</radialGradient>
<radialGradient id="paint2_radial_211_171" cx="0" cy="0" r="1" gradientUnits="userSpaceOnUse" gradientTransform="translate(196.362 1279.2) scale(20.4571 20.457)">
<stop stop-color="#ED7770"/>
<stop offset="0.9" stop-color="#ED7770" stop-opacity="0"/>
</radialGradient>
<linearGradient id="paint3_linear_211_171" x1="149.686" y1="131.707" x2="188.842" y2="131.707" gradientUnits="userSpaceOnUse">
<stop stop-color="#004054"/>
<stop offset="0.99" stop-color="#45A4FF"/>
</linearGradient>
<clipPath id="clip0_211_171">
<rect x="6.10352e-05" width="260.382" height="375" rx="22.4252" fill="white"/>
</clipPath>
</defs>
</svg>
