<svg width="1058" height="387" viewBox="0 0 1058 387" fill="none" xmlns="http://www.w3.org/2000/svg">
<g filter="url(#filter0_d_124_58)">
<path d="M295.455 296.455L289.055 335H282.016L269.312 310.74H269.011L264.965 335H256.815L263.214 296.455H270.366L283.014 320.696H283.334L287.343 296.455H295.455ZM302.433 335H293.7L313.405 296.455H323.907L330.796 335H322.063L317.376 305.263H317.075L302.433 335ZM304.428 319.849H325.055L323.964 326.211H303.336L304.428 319.849ZM313.913 292.653L309.49 292.596C309.879 290.2 310.77 288.362 312.163 287.082C313.556 285.789 315.105 285.143 316.812 285.143C317.69 285.143 318.424 285.287 319.014 285.576C319.604 285.865 320.124 286.191 320.576 286.555C321.028 286.919 321.461 287.245 321.875 287.533C322.301 287.822 322.784 287.966 323.324 287.966C324.039 287.966 324.635 287.696 325.112 287.157C325.589 286.617 325.896 285.915 326.034 285.049L330.382 285.181C329.968 287.565 329.064 289.397 327.672 290.676C326.279 291.944 324.729 292.59 323.023 292.615C322.082 292.615 321.323 292.471 320.745 292.182C320.168 291.894 319.673 291.567 319.259 291.203C318.844 290.84 318.437 290.513 318.035 290.225C317.634 289.936 317.144 289.792 316.567 289.792C315.927 289.792 315.363 290.049 314.873 290.564C314.384 291.078 314.064 291.774 313.913 292.653ZM372.169 316.254C371.466 320.37 370.105 323.864 368.085 326.738C366.077 329.611 363.624 331.794 360.726 333.287C357.84 334.78 354.728 335.527 351.391 335.527C347.89 335.527 344.872 334.73 342.338 333.137C339.816 331.543 337.99 329.241 336.861 326.229C335.732 323.205 335.518 319.56 336.221 315.294C336.899 311.166 338.247 307.666 340.267 304.792C342.288 301.906 344.753 299.711 347.664 298.205C350.575 296.687 353.706 295.928 357.056 295.928C360.531 295.928 363.53 296.731 366.052 298.337C368.587 299.943 370.412 302.264 371.529 305.3C372.658 308.324 372.872 311.976 372.169 316.254ZM364.057 315.294C364.496 312.647 364.478 310.426 364.001 308.632C363.537 306.825 362.683 305.457 361.441 304.529C360.199 303.6 358.631 303.136 356.736 303.136C354.678 303.136 352.79 303.65 351.071 304.679C349.364 305.708 347.921 307.201 346.742 309.159C345.575 311.104 344.766 313.469 344.314 316.254C343.862 318.914 343.875 321.135 344.352 322.917C344.841 324.699 345.713 326.047 346.968 326.963C348.235 327.867 349.81 328.319 351.692 328.319C353.737 328.319 355.607 327.817 357.301 326.813C359.007 325.797 360.444 324.322 361.611 322.39C362.777 320.445 363.593 318.08 364.057 315.294ZM387.348 335L393.747 296.455H419.269L418.139 303.174H400.768L399.262 312.358H414.94L413.811 319.077H398.133L395.498 335H387.348ZM456.897 316.254C456.194 320.37 454.833 323.864 452.812 326.738C450.805 329.611 448.352 331.794 445.453 333.287C442.568 334.78 439.456 335.527 436.118 335.527C432.618 335.527 429.6 334.73 427.065 333.137C424.543 331.543 422.718 329.241 421.588 326.229C420.459 323.205 420.246 319.56 420.949 315.294C421.626 311.166 422.975 307.666 424.995 304.792C427.015 301.906 429.481 299.711 432.392 298.205C435.303 296.687 438.433 295.928 441.783 295.928C445.259 295.928 448.258 296.731 450.78 298.337C453.314 299.943 455.14 302.264 456.257 305.3C457.386 308.324 457.599 311.976 456.897 316.254ZM448.785 315.294C449.224 312.647 449.205 310.426 448.728 308.632C448.264 306.825 447.411 305.457 446.169 304.529C444.926 303.6 443.358 303.136 441.463 303.136C439.406 303.136 437.517 303.65 435.798 304.679C434.092 305.708 432.649 307.201 431.469 309.159C430.303 311.104 429.493 313.469 429.042 316.254C428.59 318.914 428.602 321.135 429.079 322.917C429.569 324.699 430.441 326.047 431.695 326.963C432.963 327.867 434.537 328.319 436.419 328.319C438.465 328.319 440.334 327.817 442.028 326.813C443.734 325.797 445.171 324.322 446.338 322.39C447.505 320.445 448.321 318.08 448.785 315.294ZM474.358 296.455L467.959 335H459.809L466.208 296.455H474.358ZM500.783 335H486.93L493.329 296.455H506.918C510.795 296.455 514.014 297.245 516.573 298.826C519.146 300.407 520.959 302.672 522.013 305.62C523.067 308.556 523.255 312.063 522.577 316.141C521.925 320.081 520.626 323.463 518.681 326.286C516.737 329.096 514.246 331.255 511.209 332.76C508.173 334.253 504.697 335 500.783 335ZM496.247 328.017H501.253C503.675 328.017 505.795 327.566 507.615 326.662C509.447 325.759 510.946 324.366 512.113 322.484C513.292 320.602 514.127 318.193 514.616 315.257C515.08 312.471 515.049 310.213 514.522 308.481C514.007 306.737 513.01 305.464 511.529 304.661C510.049 303.845 508.104 303.437 505.695 303.437H500.331L496.247 328.017ZM525.49 335L531.889 296.455H557.862L556.733 303.174H538.909L537.404 312.358H553.891L552.762 319.077H536.274L534.769 328.281H552.667L551.538 335H525.49ZM583.369 307.653C583.432 306.085 582.974 304.874 581.995 304.021C581.029 303.167 579.567 302.741 577.61 302.741C576.28 302.741 575.126 302.929 574.147 303.305C573.168 303.669 572.384 304.177 571.794 304.83C571.217 305.47 570.86 306.21 570.722 307.051C570.583 307.741 570.627 308.343 570.853 308.858C571.092 309.372 571.462 309.817 571.964 310.194C572.478 310.558 573.087 310.878 573.789 311.154C574.492 311.417 575.239 311.643 576.029 311.831L579.342 312.659C580.96 313.036 582.416 313.538 583.708 314.165C585.013 314.792 586.105 315.564 586.983 316.48C587.874 317.396 588.501 318.475 588.865 319.717C589.229 320.96 589.279 322.384 589.016 323.99C588.614 326.349 587.679 328.394 586.211 330.125C584.743 331.844 582.817 333.181 580.433 334.134C578.049 335.075 575.289 335.546 572.152 335.546C569.04 335.546 566.411 335.069 564.266 334.115C562.12 333.162 560.558 331.75 559.579 329.881C558.613 327.999 558.325 325.671 558.714 322.898H566.6C566.462 324.19 566.65 325.27 567.164 326.135C567.691 326.989 568.476 327.635 569.517 328.074C570.558 328.5 571.782 328.714 573.187 328.714C574.58 328.714 575.816 328.513 576.895 328.112C577.986 327.71 578.871 327.152 579.549 326.436C580.226 325.721 580.64 324.899 580.791 323.971C580.941 323.105 580.81 322.377 580.396 321.788C579.981 321.198 579.316 320.696 578.4 320.282C577.497 319.855 576.374 319.479 575.032 319.153L571.004 318.099C567.892 317.308 565.539 316.072 563.946 314.391C562.352 312.71 561.782 310.445 562.233 307.597C562.635 305.263 563.607 303.224 565.15 301.48C566.706 299.723 568.664 298.362 571.023 297.396C573.394 296.417 575.985 295.928 578.796 295.928C581.657 295.928 584.072 296.423 586.042 297.414C588.012 298.393 589.448 299.761 590.352 301.517C591.255 303.274 591.531 305.319 591.18 307.653H583.369ZM618.099 307.653C618.161 306.085 617.703 304.874 616.725 304.021C615.759 303.167 614.297 302.741 612.339 302.741C611.009 302.741 609.855 302.929 608.876 303.305C607.898 303.669 607.114 304.177 606.524 304.83C605.947 305.47 605.589 306.21 605.451 307.051C605.313 307.741 605.357 308.343 605.583 308.858C605.821 309.372 606.191 309.817 606.693 310.194C607.208 310.558 607.816 310.878 608.519 311.154C609.221 311.417 609.968 311.643 610.759 311.831L614.071 312.659C615.69 313.036 617.145 313.538 618.438 314.165C619.742 314.792 620.834 315.564 621.712 316.48C622.603 317.396 623.231 318.475 623.594 319.717C623.958 320.96 624.009 322.384 623.745 323.99C623.344 326.349 622.409 328.394 620.941 330.125C619.473 331.844 617.547 333.181 615.163 334.134C612.779 335.075 610.018 335.546 606.881 335.546C603.77 335.546 601.141 335.069 598.995 334.115C596.85 333.162 595.288 331.75 594.309 329.881C593.343 327.999 593.054 325.671 593.443 322.898H601.329C601.191 324.19 601.379 325.27 601.894 326.135C602.421 326.989 603.205 327.635 604.246 328.074C605.288 328.5 606.511 328.714 607.917 328.714C609.309 328.714 610.545 328.513 611.624 328.112C612.716 327.71 613.6 327.152 614.278 326.436C614.956 325.721 615.37 324.899 615.52 323.971C615.671 323.105 615.539 322.377 615.125 321.788C614.711 321.198 614.046 320.696 613.13 320.282C612.227 319.855 611.104 319.479 609.761 319.153L605.733 318.099C602.622 317.308 600.269 316.072 598.675 314.391C597.082 312.71 596.511 310.445 596.963 307.597C597.364 305.263 598.337 303.224 599.88 301.48C601.436 299.723 603.393 298.362 605.752 297.396C608.124 296.417 610.715 295.928 613.525 295.928C616.386 295.928 618.801 296.423 620.771 297.414C622.741 298.393 624.178 299.761 625.081 301.517C625.985 303.274 626.261 305.319 625.909 307.653H618.099ZM633.165 335H624.432L644.138 296.455H654.64L661.528 335H652.795L648.109 305.263H647.808L633.165 335ZM635.16 319.849H655.788L654.696 326.211H634.068L635.16 319.849ZM691.797 296.455L696.277 325.74H696.634L710.806 296.455H719.84L700.154 335H689.652L682.744 296.455H691.797ZM718.081 335L724.48 296.455H750.453L749.324 303.174H731.5L729.994 312.358H746.482L745.352 319.077H728.865L727.359 328.281H745.258L744.129 335H718.081ZM750.119 335L750.947 330.163L774.68 303.174H755.351L756.48 296.455H785.992L785.182 301.292L761.43 328.281H780.759L779.63 335H750.119ZM801.674 296.455L796.48 323.444H789.629L793.337 296.455H801.674ZM791.53 335.489C790.262 335.489 789.221 335.05 788.405 334.172C787.602 333.294 787.239 332.227 787.314 330.972C787.402 329.73 787.922 328.682 788.876 327.829C789.842 326.963 790.953 326.531 792.207 326.531C793.412 326.531 794.428 326.963 795.256 327.829C796.084 328.695 796.448 329.743 796.348 330.972C796.285 331.8 796.015 332.56 795.539 333.25C795.074 333.927 794.485 334.473 793.769 334.887C793.054 335.289 792.308 335.489 791.53 335.489Z" fill="#F9BB00"/>
</g>
<path d="M526.318 215.217C478.852 215.217 427.643 185.444 427.643 120.115C427.643 54.785 478.852 25.0124 526.318 25.0124C552.689 25.0124 577.017 33.689 595.051 49.511C614.616 66.8642 624.994 91.3627 624.994 120.115C624.994 148.866 614.616 173.195 595.051 190.548C577.017 206.37 552.518 215.217 526.318 215.217Z" fill="url(#paint0_radial_124_58)"/>
<path d="M607.791 63.5811C616.859 78.2122 621.589 95.6334 621.589 115.011C621.589 143.763 611.211 168.091 591.646 185.445C573.612 201.267 549.114 210.113 522.914 210.113C492.188 210.113 459.966 197.609 440.945 171.086C459.251 201.131 493.685 215.217 526.316 215.217C552.516 215.217 577.015 206.37 595.049 190.548C614.614 173.195 624.992 148.867 624.992 120.115C624.992 98.4406 619.088 79.182 607.791 63.5811Z" fill="#EB8F00"/>
<path d="M538.911 184.925C537.942 184.925 536.972 184.721 536.087 184.313C529.826 181.54 522.698 181.489 516.42 184.211C513.069 185.895 508.969 184.534 507.284 181.182C505.6 177.831 506.961 173.731 510.313 172.046C520.299 167.521 531.715 167.487 541.736 171.927C545.155 173.492 546.669 177.525 545.104 180.944C543.998 183.377 541.582 184.925 538.911 184.925Z" fill="#422B0D"/>
<path d="M491.277 94.2609C507.575 94.312 520.76 107.565 520.709 123.863C520.658 140.162 507.405 153.347 491.107 153.296C474.808 153.245 461.623 139.992 461.674 123.693C461.776 107.412 474.995 94.2779 491.277 94.2609Z" fill="white"/>
<path d="M490.769 146.139C505.238 146.139 516.969 134.409 516.969 119.939C516.969 105.469 505.238 93.7392 490.769 93.7392C476.299 93.7392 464.569 105.469 464.569 119.939C464.569 134.409 476.299 146.139 490.769 146.139Z" fill="#422B0D"/>
<path d="M502.619 132.98C504.49 131.409 504.832 128.736 503.382 127.009C501.932 125.281 499.24 125.154 497.369 126.725C495.498 128.296 495.156 130.969 496.606 132.696C498.056 134.423 500.748 134.55 502.619 132.98Z" fill="white"/>
<path d="M491.363 121.774C498.147 116.725 500.326 108.172 496.23 102.669C492.135 97.1673 483.316 96.8 476.532 101.849C469.749 106.898 467.57 115.452 471.665 120.954C475.76 126.456 484.58 126.824 491.363 121.774Z" fill="white"/>
<path d="M564.43 94.2609C580.728 94.312 593.913 107.565 593.862 123.863C593.811 140.162 580.558 153.347 564.26 153.296C547.961 153.245 534.776 139.992 534.827 123.693C534.929 107.412 548.148 94.2779 564.43 94.2609Z" fill="white"/>
<path d="M563.918 146.139C578.388 146.139 590.118 134.409 590.118 119.939C590.118 105.469 578.388 93.7392 563.918 93.7392C549.448 93.7392 537.718 105.469 537.718 119.939C537.718 134.409 549.448 146.139 563.918 146.139Z" fill="#422B0D"/>
<path d="M575.911 132.883C577.783 131.313 578.124 128.639 576.674 126.912C575.224 125.185 572.532 125.058 570.661 126.629C568.79 128.199 568.448 130.873 569.898 132.6C571.348 134.327 574.04 134.454 575.911 132.883Z" fill="white"/>
<path d="M564.536 121.774C571.32 116.725 573.499 108.172 569.403 102.669C565.308 97.1673 556.489 96.8 549.705 101.849C542.922 106.898 540.743 115.452 544.838 120.954C548.934 126.456 557.753 126.824 564.536 121.774Z" fill="white"/>
<path d="M464.73 80.8217C460.987 81.5022 460.817 86.9463 464.9 87.1164C473.917 87.2355 482.627 83.884 489.228 77.7593C491.746 75.5817 493.873 72.9957 495.523 70.1035C496.51 68.6914 496.17 66.752 494.758 65.7652C493.346 64.7785 491.406 65.1187 490.419 66.5308L490.249 66.7009C483.58 74.1526 474.58 79.1374 464.73 80.8217Z" fill="#422B0D"/>
<path d="M561.872 66.5308C560.886 65.1187 558.946 64.7785 557.534 65.7652C556.122 66.752 555.782 68.6914 556.769 70.1035C558.419 72.9957 560.545 75.5817 563.063 77.7593C569.698 83.8329 578.392 87.1845 587.392 87.1164C591.645 86.9463 591.305 81.5022 587.562 80.8217C577.592 79.1884 568.524 74.1356 561.872 66.5308Z" fill="#422B0D"/>
<defs>
<filter id="filter0_d_124_58" x="252.815" y="285.049" width="552.859" height="58.4968" filterUnits="userSpaceOnUse" color-interpolation-filters="sRGB">
<feFlood flood-opacity="0" result="BackgroundImageFix"/>
<feColorMatrix in="SourceAlpha" type="matrix" values="0 0 0 0 0 0 0 0 0 0 0 0 0 0 0 0 0 0 127 0" result="hardAlpha"/>
<feOffset dy="4"/>
<feGaussianBlur stdDeviation="2"/>
<feComposite in2="hardAlpha" operator="out"/>
<feColorMatrix type="matrix" values="0 0 0 0 0 0 0 0 0 0 0 0 0 0 0 0 0 0 0.25 0"/>
<feBlend mode="normal" in2="BackgroundImageFix" result="effect1_dropShadow_124_58"/>
<feBlend mode="normal" in="SourceGraphic" in2="effect1_dropShadow_124_58" result="shape"/>
</filter>
<radialGradient id="paint0_radial_124_58" cx="0" cy="0" r="1" gradientUnits="userSpaceOnUse" gradientTransform="translate(526.318 120.115) scale(96.9055 96.905)">
<stop offset="0.5" stop-color="#FDE030"/>
<stop offset="0.92" stop-color="#F7C02B"/>
<stop offset="1" stop-color="#F4A223"/>
</radialGradient>
</defs>
</svg>
