<svg width="1075" height="371" viewBox="0 0 1075 371" fill="none" xmlns="http://www.w3.org/2000/svg">
<path d="M538.318 215.217C490.852 215.217 439.643 185.444 439.643 120.115C439.643 54.785 490.852 25.0124 538.318 25.0124C564.689 25.0124 589.017 33.689 607.051 49.511C626.616 66.8642 636.994 91.3627 636.994 120.115C636.994 148.866 626.616 173.195 607.051 190.548C589.017 206.37 564.518 215.217 538.318 215.217Z" fill="url(#paint0_radial_161_116)"/>
<path d="M619.791 63.5811C628.859 78.2122 633.589 95.6334 633.589 115.011C633.589 143.763 623.211 168.091 603.646 185.445C585.612 201.267 561.114 210.113 534.914 210.113C504.188 210.113 471.966 197.609 452.945 171.086C471.251 201.131 505.685 215.217 538.316 215.217C564.516 215.217 589.015 206.37 607.049 190.548C626.614 173.195 636.992 148.867 636.992 120.115C636.992 98.4406 631.088 79.182 619.791 63.5811Z" fill="#EB8F00"/>
<path d="M550.911 184.925C549.942 184.925 548.972 184.721 548.087 184.313C541.826 181.54 534.698 181.489 528.42 184.211C525.069 185.895 520.969 184.534 519.284 181.182C517.6 177.831 518.961 173.731 522.313 172.046C532.299 167.521 543.715 167.487 553.736 171.927C557.155 173.492 558.669 177.525 557.104 180.944C555.998 183.377 553.582 184.925 550.911 184.925Z" fill="#422B0D"/>
<path d="M503.277 94.2609C519.575 94.312 532.76 107.565 532.709 123.863C532.658 140.162 519.405 153.347 503.107 153.296C486.808 153.245 473.623 139.992 473.674 123.693C473.776 107.412 486.995 94.2779 503.277 94.2609Z" fill="white"/>
<path d="M502.769 146.139C517.238 146.139 528.969 134.409 528.969 119.939C528.969 105.469 517.238 93.7392 502.769 93.7392C488.299 93.7392 476.569 105.469 476.569 119.939C476.569 134.409 488.299 146.139 502.769 146.139Z" fill="#422B0D"/>
<path d="M514.619 132.98C516.49 131.409 516.832 128.736 515.382 127.009C513.932 125.281 511.24 125.154 509.369 126.725C507.498 128.296 507.156 130.969 508.606 132.696C510.056 134.423 512.748 134.55 514.619 132.98Z" fill="white"/>
<path d="M503.363 121.774C510.147 116.725 512.326 108.172 508.23 102.669C504.135 97.1673 495.316 96.8 488.532 101.849C481.749 106.898 479.57 115.452 483.665 120.954C487.76 126.456 496.58 126.824 503.363 121.774Z" fill="white"/>
<path d="M576.43 94.2609C592.728 94.312 605.913 107.565 605.862 123.863C605.811 140.162 592.558 153.347 576.26 153.296C559.961 153.245 546.776 139.992 546.827 123.693C546.929 107.412 560.148 94.2779 576.43 94.2609Z" fill="white"/>
<path d="M575.918 146.139C590.388 146.139 602.118 134.409 602.118 119.939C602.118 105.469 590.388 93.7392 575.918 93.7392C561.448 93.7392 549.718 105.469 549.718 119.939C549.718 134.409 561.448 146.139 575.918 146.139Z" fill="#422B0D"/>
<path d="M587.911 132.883C589.783 131.313 590.124 128.639 588.674 126.912C587.224 125.185 584.532 125.058 582.661 126.629C580.79 128.199 580.448 130.873 581.898 132.6C583.348 134.327 586.04 134.454 587.911 132.883Z" fill="white"/>
<path d="M576.536 121.774C583.32 116.725 585.499 108.172 581.403 102.669C577.308 97.1673 568.489 96.8 561.705 101.849C554.922 106.898 552.743 115.452 556.838 120.954C560.934 126.456 569.753 126.824 576.536 121.774Z" fill="white"/>
<path d="M476.73 80.8217C472.987 81.5022 472.817 86.9463 476.9 87.1164C485.917 87.2355 494.627 83.884 501.228 77.7593C503.746 75.5817 505.873 72.9957 507.523 70.1035C508.51 68.6914 508.17 66.752 506.758 65.7652C505.346 64.7785 503.406 65.1187 502.419 66.5308L502.249 66.7009C495.58 74.1526 486.58 79.1374 476.73 80.8217Z" fill="#422B0D"/>
<path d="M573.872 66.5308C572.886 65.1187 570.946 64.7785 569.534 65.7652C568.122 66.752 567.782 68.6914 568.769 70.1035C570.419 72.9957 572.545 75.5817 575.063 77.7593C581.698 83.8329 590.392 87.1845 599.392 87.1164C603.645 86.9463 603.305 81.5022 599.562 80.8217C589.592 79.1884 580.524 74.1356 573.872 66.5308Z" fill="#422B0D"/>
<g filter="url(#filter0_d_161_116)">
<path d="M282.719 329.625L260.5 300.656V329.031H252.688V283.219H256.594L278.219 310.844V283.219H286.031V329.625H282.719ZM322.156 329L318.812 319.719H303.125L299.938 329H290.906L309.156 282.594H312.719L331.125 329H322.156ZM310.938 296.594L305.438 313.5H316.438L310.938 296.594ZM305 280.406H300.469C300.865 278.031 301.656 276.104 302.844 274.625C304.052 273.125 305.542 272.375 307.312 272.375C308.938 272.375 310.562 272.781 312.188 273.594C313.812 274.385 314.854 274.781 315.312 274.781C316.583 274.781 317.49 273.979 318.031 272.375H322.656C321.865 275.479 320.896 277.594 319.75 278.719C318.604 279.844 317.167 280.406 315.438 280.406C314.146 280.406 312.667 280.01 311 279.219C309.354 278.406 308.281 278 307.781 278C306.698 278 305.771 278.802 305 280.406ZM333.812 305.719C333.812 299.198 335.594 293.688 339.156 289.188C342.74 284.667 347.521 282.406 353.5 282.406C360.083 282.406 365.115 284.448 368.594 288.531C372.073 292.615 373.812 298.344 373.812 305.719C373.812 313.094 371.99 318.948 368.344 323.281C364.719 327.615 359.562 329.781 352.875 329.781C346.729 329.781 342.01 327.635 338.719 323.344C335.448 319.052 333.812 313.177 333.812 305.719ZM342.25 305.719C342.25 311.073 343.156 315.219 344.969 318.156C346.781 321.094 349.417 322.562 352.875 322.562C356.938 322.562 360.031 321.125 362.156 318.25C364.302 315.375 365.375 311.198 365.375 305.719C365.375 294.99 361.417 289.625 353.5 289.625C349.875 289.625 347.094 291.083 345.156 294C343.219 296.896 342.25 300.802 342.25 305.719ZM408.438 290.438V301.156H424.531V308.062H408.438V329H400.312V283.219H430.469V290.438H408.438ZM435.5 305.719C435.5 299.198 437.281 293.688 440.844 289.188C444.427 284.667 449.208 282.406 455.188 282.406C461.771 282.406 466.802 284.448 470.281 288.531C473.76 292.615 475.5 298.344 475.5 305.719C475.5 313.094 473.677 318.948 470.031 323.281C466.406 327.615 461.25 329.781 454.562 329.781C448.417 329.781 443.698 327.635 440.406 323.344C437.135 319.052 435.5 313.177 435.5 305.719ZM443.938 305.719C443.938 311.073 444.844 315.219 446.656 318.156C448.469 321.094 451.104 322.562 454.562 322.562C458.625 322.562 461.719 321.125 463.844 318.25C465.99 315.375 467.062 311.198 467.062 305.719C467.062 294.99 463.104 289.625 455.188 289.625C451.562 289.625 448.781 291.083 446.844 294C444.906 296.896 443.938 300.802 443.938 305.719ZM482.844 329V283.219H490.969V329H482.844ZM529.969 329H519.812V283.25C526.292 283.021 530.365 282.906 532.031 282.906C538.698 282.906 543.979 284.865 547.875 288.781C551.792 292.677 553.75 297.854 553.75 304.312C553.75 320.771 545.823 329 529.969 329ZM527.938 290.344V321.594C529.25 321.719 530.667 321.781 532.188 321.781C536.292 321.781 539.5 320.292 541.812 317.312C544.146 314.333 545.312 310.167 545.312 304.812C545.312 295.021 540.76 290.125 531.656 290.125C530.781 290.125 529.542 290.198 527.938 290.344ZM569.062 290.438V301.156H584.188V308.062H569.062V321.781H589.812V329H560.938V283.219H590.156V290.438H569.062ZM595.188 326.469L598.188 319.188C601.396 321.438 604.552 322.562 607.656 322.562C612.427 322.562 614.812 320.896 614.812 317.562C614.812 316 614.25 314.51 613.125 313.094C612 311.677 609.677 310.094 606.156 308.344C602.656 306.573 600.292 305.125 599.062 304C597.854 302.854 596.917 301.5 596.25 299.938C595.604 298.375 595.281 296.646 595.281 294.75C595.281 291.208 596.573 288.271 599.156 285.938C601.76 283.604 605.094 282.438 609.156 282.438C614.448 282.438 618.333 283.427 620.812 285.406L618.344 292.406C615.49 290.365 612.479 289.344 609.312 289.344C607.438 289.344 605.979 289.844 604.938 290.844C603.917 291.823 603.406 293.104 603.406 294.688C603.406 297.312 606.312 300.042 612.125 302.875C615.188 304.375 617.396 305.76 618.75 307.031C620.104 308.281 621.135 309.75 621.844 311.438C622.552 313.104 622.906 314.969 622.906 317.031C622.906 320.74 621.438 323.792 618.5 326.188C615.583 328.583 611.667 329.781 606.75 329.781C602.479 329.781 598.625 328.677 595.188 326.469ZM648.75 290.438V329H640.625V290.438H626.062V283.219H663.969V290.438H648.75ZM689.969 329L686.625 319.719H670.938L667.75 329H658.719L676.969 282.594H680.531L698.938 329H689.969ZM678.75 296.594L673.25 313.5H684.25L678.75 296.594ZM736.625 329.625H732.156L715.031 283.219H723.969L734.562 314.156L745.75 283.219H754.5L736.625 329.625ZM767.5 290.438V301.156H782.625V308.062H767.5V321.781H788.25V329H759.375V283.219H788.594V290.438H767.5ZM793.625 329V326.375L812.719 290.438H793.938V283.219H823.781V285.844L804.625 321.781H824.469V329H793.625Z" fill="#F9BB00"/>
</g>
<defs>
<filter id="filter0_d_161_116" x="248.688" y="272.375" width="579.781" height="65.4062" filterUnits="userSpaceOnUse" color-interpolation-filters="sRGB">
<feFlood flood-opacity="0" result="BackgroundImageFix"/>
<feColorMatrix in="SourceAlpha" type="matrix" values="0 0 0 0 0 0 0 0 0 0 0 0 0 0 0 0 0 0 127 0" result="hardAlpha"/>
<feOffset dy="4"/>
<feGaussianBlur stdDeviation="2"/>
<feComposite in2="hardAlpha" operator="out"/>
<feColorMatrix type="matrix" values="0 0 0 0 0 0 0 0 0 0 0 0 0 0 0 0 0 0 0.25 0"/>
<feBlend mode="normal" in2="BackgroundImageFix" result="effect1_dropShadow_161_116"/>
<feBlend mode="normal" in="SourceGraphic" in2="effect1_dropShadow_161_116" result="shape"/>
</filter>
<radialGradient id="paint0_radial_161_116" cx="0" cy="0" r="1" gradientUnits="userSpaceOnUse" gradientTransform="translate(538.318 120.115) scale(96.9055 96.905)">
<stop offset="0.5" stop-color="#FDE030"/>
<stop offset="0.92" stop-color="#F7C02B"/>
<stop offset="1" stop-color="#F4A223"/>
</radialGradient>
</defs>
</svg>
