<svg width="478" height="688" viewBox="0 0 478 688" fill="none" xmlns="http://www.w3.org/2000/svg">
<g clip-path="url(#clip0_155_434)">
<g filter="url(#filter0_d_155_434)">
<rect width="477.418" height="687.573" rx="41.1173" fill="white"/>
<rect x="7.99504" y="7.99504" width="461.428" height="671.583" rx="33.1223" stroke="#F9BB00" stroke-width="15.9901"/>
</g>
<rect y="-15.9901" width="477.799" height="716.698" fill="white"/>
<g filter="url(#filter1_d_155_434)">
<path d="M166.867 472.469L150.203 450.742V472.023H144.344V437.664H147.273L163.492 458.383V437.664H169.352V472.469H166.867ZM196.445 472L193.938 465.039H182.172L179.781 472H173.008L186.695 437.195H189.367L203.172 472H196.445ZM188.031 447.695L183.906 460.375H192.156L188.031 447.695ZM183.578 435.555H180.18C180.477 433.773 181.07 432.328 181.961 431.219C182.867 430.094 183.984 429.531 185.312 429.531C186.531 429.531 187.75 429.836 188.969 430.445C190.188 431.039 190.969 431.336 191.312 431.336C192.266 431.336 192.945 430.734 193.352 429.531H196.82C196.227 431.859 195.5 433.445 194.641 434.289C193.781 435.133 192.703 435.555 191.406 435.555C190.438 435.555 189.328 435.258 188.078 434.664C186.844 434.055 186.039 433.75 185.664 433.75C184.852 433.75 184.156 434.352 183.578 435.555ZM205.188 454.539C205.188 449.648 206.523 445.516 209.195 442.141C211.883 438.75 215.469 437.055 219.953 437.055C224.891 437.055 228.664 438.586 231.273 441.648C233.883 444.711 235.188 449.008 235.188 454.539C235.188 460.07 233.82 464.461 231.086 467.711C228.367 470.961 224.5 472.586 219.484 472.586C214.875 472.586 211.336 470.977 208.867 467.758C206.414 464.539 205.188 460.133 205.188 454.539ZM211.516 454.539C211.516 458.555 212.195 461.664 213.555 463.867C214.914 466.07 216.891 467.172 219.484 467.172C222.531 467.172 224.852 466.094 226.445 463.938C228.055 461.781 228.859 458.648 228.859 454.539C228.859 446.492 225.891 442.469 219.953 442.469C217.234 442.469 215.148 443.562 213.695 445.75C212.242 447.922 211.516 450.852 211.516 454.539ZM261.156 443.078V451.117H273.227V456.297H261.156V472H255.062V437.664H277.68V443.078H261.156ZM281.453 454.539C281.453 449.648 282.789 445.516 285.461 442.141C288.148 438.75 291.734 437.055 296.219 437.055C301.156 437.055 304.93 438.586 307.539 441.648C310.148 444.711 311.453 449.008 311.453 454.539C311.453 460.07 310.086 464.461 307.352 467.711C304.633 470.961 300.766 472.586 295.75 472.586C291.141 472.586 287.602 470.977 285.133 467.758C282.68 464.539 281.453 460.133 281.453 454.539ZM287.781 454.539C287.781 458.555 288.461 461.664 289.82 463.867C291.18 466.07 293.156 467.172 295.75 467.172C298.797 467.172 301.117 466.094 302.711 463.938C304.32 461.781 305.125 458.648 305.125 454.539C305.125 446.492 302.156 442.469 296.219 442.469C293.5 442.469 291.414 443.562 289.961 445.75C288.508 447.922 287.781 450.852 287.781 454.539ZM316.961 472V437.664H323.055V472H316.961ZM135.18 528H127.562V493.688C132.422 493.516 135.477 493.43 136.727 493.43C141.727 493.43 145.688 494.898 148.609 497.836C151.547 500.758 153.016 504.641 153.016 509.484C153.016 521.828 147.07 528 135.18 528ZM133.656 499.008V522.445C134.641 522.539 135.703 522.586 136.844 522.586C139.922 522.586 142.328 521.469 144.062 519.234C145.812 517 146.688 513.875 146.688 509.859C146.688 502.516 143.273 498.844 136.445 498.844C135.789 498.844 134.859 498.898 133.656 499.008ZM164.5 499.078V507.117H175.844V512.297H164.5V522.586H180.062V528H158.406V493.664H180.32V499.078H164.5ZM184.094 526.102L186.344 520.641C188.75 522.328 191.117 523.172 193.445 523.172C197.023 523.172 198.812 521.922 198.812 519.422C198.812 518.25 198.391 517.133 197.547 516.07C196.703 515.008 194.961 513.82 192.32 512.508C189.695 511.18 187.922 510.094 187 509.25C186.094 508.391 185.391 507.375 184.891 506.203C184.406 505.031 184.164 503.734 184.164 502.312C184.164 499.656 185.133 497.453 187.07 495.703C189.023 493.953 191.523 493.078 194.57 493.078C198.539 493.078 201.453 493.82 203.312 495.305L201.461 500.555C199.32 499.023 197.062 498.258 194.688 498.258C193.281 498.258 192.188 498.633 191.406 499.383C190.641 500.117 190.258 501.078 190.258 502.266C190.258 504.234 192.438 506.281 196.797 508.406C199.094 509.531 200.75 510.57 201.766 511.523C202.781 512.461 203.555 513.562 204.086 514.828C204.617 516.078 204.883 517.477 204.883 519.023C204.883 521.805 203.781 524.094 201.578 525.891C199.391 527.688 196.453 528.586 192.766 528.586C189.562 528.586 186.672 527.758 184.094 526.102ZM224.266 499.078V528H218.172V499.078H207.25V493.664H235.68V499.078H224.266ZM255.18 528L252.672 521.039H240.906L238.516 528H231.742L245.43 493.195H248.102L261.906 528H255.18ZM246.766 503.695L242.641 516.375H250.891L246.766 503.695ZM290.172 528.469H286.82L273.977 493.664H280.68L288.625 516.867L297.016 493.664H303.578L290.172 528.469ZM313.328 499.078V507.117H324.672V512.297H313.328V522.586H328.891V528H307.234V493.664H329.148V499.078H313.328ZM332.922 528V526.031L347.242 499.078H333.156V493.664H355.539V495.633L341.172 522.586H356.055V528H332.922Z" fill="#018443"/>
</g>
<path d="M240.318 334.217C192.852 334.217 141.643 304.444 141.643 239.115C141.643 173.785 192.852 144.012 240.318 144.012C266.689 144.012 291.017 152.689 309.051 168.511C328.616 185.864 338.994 210.363 338.994 239.115C338.994 267.866 328.616 292.195 309.051 309.548C291.017 325.37 266.518 334.217 240.318 334.217Z" fill="url(#paint0_radial_155_434)"/>
<path d="M321.795 182.581C330.863 197.212 335.592 214.633 335.592 234.011C335.592 262.763 325.214 287.091 305.649 304.445C287.616 320.267 263.117 329.113 236.917 329.113C206.192 329.113 173.969 316.609 154.948 290.086C173.254 320.131 207.689 334.217 240.32 334.217C266.52 334.217 291.018 325.37 309.052 309.548C328.617 292.195 338.995 267.867 338.995 239.115C338.995 217.441 333.091 198.182 321.795 182.581Z" fill="#EB8F00"/>
<path d="M252.915 303.925C251.946 303.925 250.976 303.721 250.091 303.313C243.83 300.54 236.702 300.489 230.424 303.211C227.073 304.895 222.972 303.534 221.288 300.182C219.604 296.831 220.965 292.731 224.316 291.046C234.303 286.521 245.719 286.487 255.739 290.927C259.159 292.492 260.673 296.525 259.108 299.944C258.002 302.377 255.586 303.925 252.915 303.925Z" fill="#422B0D"/>
<path d="M205.281 213.261C221.579 213.312 234.764 226.565 234.713 242.863C234.662 259.162 221.409 272.347 205.111 272.296C188.812 272.245 175.627 258.992 175.678 242.693C175.78 226.412 189 213.278 205.281 213.261Z" fill="white"/>
<path d="M204.769 265.139C219.239 265.139 230.969 253.409 230.969 238.939C230.969 224.469 219.239 212.739 204.769 212.739C190.299 212.739 178.569 224.469 178.569 238.939C178.569 253.409 190.299 265.139 204.769 265.139Z" fill="#422B0D"/>
<path d="M216.623 251.98C218.494 250.409 218.836 247.736 217.386 246.009C215.936 244.281 213.244 244.154 211.373 245.725C209.501 247.296 209.16 249.969 210.61 251.696C212.06 253.423 214.752 253.55 216.623 251.98Z" fill="white"/>
<path d="M205.364 240.774C212.147 235.725 214.327 227.172 210.231 221.669C206.136 216.167 197.317 215.8 190.533 220.849C183.749 225.898 181.57 234.452 185.666 239.954C189.761 245.456 198.58 245.824 205.364 240.774Z" fill="white"/>
<path d="M278.434 213.261C294.732 213.312 307.918 226.565 307.867 242.863C307.815 259.162 294.562 272.347 278.264 272.296C261.965 272.245 248.78 258.992 248.831 242.693C248.934 226.412 262.153 213.278 278.434 213.261Z" fill="white"/>
<path d="M277.922 265.139C292.392 265.139 304.122 253.409 304.122 238.939C304.122 224.469 292.392 212.739 277.922 212.739C263.453 212.739 251.722 224.469 251.722 238.939C251.722 253.409 263.453 265.139 277.922 265.139Z" fill="#422B0D"/>
<path d="M289.916 251.883C291.787 250.313 292.128 247.639 290.678 245.912C289.229 244.185 286.536 244.058 284.665 245.629C282.794 247.199 282.453 249.873 283.902 251.6C285.352 253.327 288.044 253.454 289.916 251.883Z" fill="white"/>
<path d="M278.544 240.774C285.327 235.725 287.506 227.172 283.411 221.669C279.315 216.167 270.496 215.8 263.713 220.849C256.929 225.898 254.75 234.452 258.845 239.954C262.941 245.456 271.76 245.824 278.544 240.774Z" fill="white"/>
<path d="M178.734 199.822C174.991 200.502 174.821 205.946 178.904 206.116C187.921 206.236 196.631 202.884 203.232 196.759C205.75 194.582 207.877 191.996 209.527 189.104C210.514 187.691 210.174 185.752 208.762 184.765C207.35 183.778 205.41 184.119 204.423 185.531L204.253 185.701C197.584 193.153 188.584 198.137 178.734 199.822Z" fill="#422B0D"/>
<path d="M275.88 185.531C274.893 184.119 272.953 183.778 271.541 184.765C270.129 185.752 269.789 187.691 270.776 189.104C272.426 191.996 274.552 194.582 277.07 196.759C283.705 202.833 292.399 206.184 301.399 206.116C305.652 205.946 305.312 200.502 301.569 199.822C291.599 198.188 282.532 193.136 275.88 185.531Z" fill="#422B0D"/>
</g>
<rect x="7.99504" y="7.99504" width="461.428" height="671.583" rx="33.1223" stroke="#F9BB00" stroke-width="15.9901"/>
<defs>
<filter id="filter0_d_155_434" x="-11.4215" y="-2.2843" width="500.261" height="710.416" filterUnits="userSpaceOnUse" color-interpolation-filters="sRGB">
<feFlood flood-opacity="0" result="BackgroundImageFix"/>
<feColorMatrix in="SourceAlpha" type="matrix" values="0 0 0 0 0 0 0 0 0 0 0 0 0 0 0 0 0 0 127 0" result="hardAlpha"/>
<feOffset dy="9.13719"/>
<feGaussianBlur stdDeviation="5.71074"/>
<feComposite in2="hardAlpha" operator="out"/>
<feColorMatrix type="matrix" values="0 0 0 0 0 0 0 0 0 0 0 0 0 0 0 0 0 0 0.25 0"/>
<feBlend mode="normal" in2="BackgroundImageFix" result="effect1_dropShadow_155_434"/>
<feBlend mode="normal" in="SourceGraphic" in2="effect1_dropShadow_155_434" result="shape"/>
</filter>
<filter id="filter1_d_155_434" x="123.562" y="429.531" width="236.492" height="107.055" filterUnits="userSpaceOnUse" color-interpolation-filters="sRGB">
<feFlood flood-opacity="0" result="BackgroundImageFix"/>
<feColorMatrix in="SourceAlpha" type="matrix" values="0 0 0 0 0 0 0 0 0 0 0 0 0 0 0 0 0 0 127 0" result="hardAlpha"/>
<feOffset dy="4"/>
<feGaussianBlur stdDeviation="2"/>
<feComposite in2="hardAlpha" operator="out"/>
<feColorMatrix type="matrix" values="0 0 0 0 0 0 0 0 0 0 0 0 0 0 0 0 0 0 0.25 0"/>
<feBlend mode="normal" in2="BackgroundImageFix" result="effect1_dropShadow_155_434"/>
<feBlend mode="normal" in="SourceGraphic" in2="effect1_dropShadow_155_434" result="shape"/>
</filter>
<radialGradient id="paint0_radial_155_434" cx="0" cy="0" r="1" gradientUnits="userSpaceOnUse" gradientTransform="translate(240.318 239.115) scale(96.9055 96.905)">
<stop offset="0.5" stop-color="#FDE030"/>
<stop offset="0.92" stop-color="#F7C02B"/>
<stop offset="1" stop-color="#F4A223"/>
</radialGradient>
<clipPath id="clip0_155_434">
<rect width="477.418" height="687.573" rx="41.1173" fill="white"/>
</clipPath>
</defs>
</svg>
