<svg width="436" height="85" viewBox="0 0 436 85" fill="none" xmlns="http://www.w3.org/2000/svg">
<path d="M85.0953 0H0V20.6142H85.0953V0Z" fill="#FDC82F"/>
<path fill-rule="evenodd" clip-rule="evenodd" d="M176.421 62.5235H150.155L159.075 31.1171H184.711L182.617 38.4027H167.314L166.02 42.9137H179.008L176.915 50.2504H163.926L162.514 55.1698H178.498L176.404 62.5065L176.421 62.5235ZM0 84.84H85.0953V30.9299H0V84.84ZM135.192 52.7016C134.631 52.7527 134.069 52.7527 133.507 52.7527H128.315L125.541 62.5235H115.208L124.179 31.1341H135.192H139.312C148.351 31.1341 151.517 35.2536 149.696 41.6881C147.891 48.0715 143.21 52.1909 135.192 52.7016ZM135.192 38.4027H132.367L130.443 45.3989H135.192C137.337 45.2798 139.142 44.2755 139.874 41.7221C140.657 38.7772 137.508 38.3857 135.295 38.3857H135.192V38.4027ZM383.55 51.8505H386.819L386.699 40.5646L383.533 46.0969L380.316 51.8505H383.533H383.55ZM383.55 32.1384L384.231 31.1171H394.734L397.049 62.5235H386.767V58.4041H376.486L374.12 62.5235H364.008L364.621 61.5703L383.533 32.1555L383.55 32.1384ZM435.673 40.2241C436.456 34.7429 433.749 30.283 425.051 30.283C417.153 30.283 410.429 33.6194 408.556 40.3262C405.118 52.293 424.149 49.0247 422.787 53.825C422.396 55.289 420.421 56.1401 417.867 56.1401C416.846 56.1401 415.842 55.8678 415.161 55.3571C414.429 54.7954 414.038 53.9953 414.14 52.8718H404.25C402.888 58.5232 406.905 63.3747 415.212 63.3747C423.519 63.3747 430.975 59.817 433.001 52.5314C436.269 41.1263 417.357 44.0031 418.719 39.3219C419.008 38.1984 420.183 37.5175 422.498 37.5175C423.468 37.5175 424.37 37.6877 424.983 38.0793C425.613 38.4708 426.004 39.1517 425.834 40.2241H435.656H435.673ZM364.621 40.6667C364.74 40.4454 364.791 40.2752 364.843 40.0369C365.523 37.6708 365.523 35.7472 364.621 34.3343C363.259 32.1384 359.821 31.1171 353.437 31.1171H338.594L329.674 62.5235H339.956L343.122 51.5611H346.22C348.144 51.5611 349.318 51.7824 349.999 52.293C351.071 53.0761 350.901 54.557 350.169 57.0423C350.118 57.2636 350.05 57.4338 349.999 57.604C349.318 60.0893 349.097 61.8937 349.148 62.5235H359.6L359.821 61.5703C358.629 61.5703 359.14 60.2085 360.332 56.0891C362.136 49.7567 360.332 48.9737 357.387 47.731C361.115 46.7778 363.549 44.0031 364.621 40.6667ZM349.999 44.684C352.654 44.5138 354.289 43.6627 354.85 41.6881C355.463 39.4922 353.999 38.4197 351.633 38.4197H346.833L345.028 44.684H349.999ZM310.983 62.4725C318.099 62.081 323.359 59.5446 325.163 53.0931C326.116 49.6545 325.163 46.7097 321.997 45.8585C324.363 44.6159 327.138 42.2498 328.04 39.0326C329.793 32.7683 324.652 31.1341 317.588 31.1341H302.506L293.587 62.5406H308.941C309.622 62.5406 310.286 62.5406 310.966 62.4895M310.983 38.4027H314.371C316.567 38.4027 318.541 38.4538 317.878 40.9391C317.367 42.7435 315.614 43.6456 313.537 43.6456H309.298L310.762 38.3857H310.983V38.4027ZM310.983 49.4162C314.201 49.4162 316.584 49.5865 315.784 52.293C315.171 54.557 313.298 55.1188 310.983 55.1698H306.013L307.647 49.4162H310.983ZM274.164 55.2379C277.211 54.0464 279.254 50.778 280.377 46.6586C281.62 42.3689 281.16 37.841 276.598 37.9601C275.696 37.9601 274.896 38.1303 274.164 38.4027C270.947 39.6964 268.972 43.4244 268.07 46.6416C266.878 50.6589 266.708 55.6805 271.628 55.6805C272.53 55.6805 273.381 55.5103 274.164 55.2379ZM274.164 30.7936C275.696 30.4532 277.262 30.283 278.845 30.283C290.08 30.283 293.076 38.3516 290.71 46.6586C288.173 55.5273 281.62 61.1788 274.164 62.864C272.649 63.2045 271.066 63.3747 269.415 63.3747C259.593 63.3747 254.724 57.2806 257.72 46.5394C260.086 38.3006 266.419 32.4789 274.147 30.7936M237.974 57.604C238.025 57.4338 238.093 57.2636 238.144 57.0423C238.876 54.557 239.046 53.0931 237.974 52.293C237.293 51.7824 236.102 51.5611 234.195 51.5611H231.097L228.05 62.5235H217.717L218.909 58.4041L226.637 31.1341H241.43C251.932 31.1341 254.537 33.9598 252.835 40.0539C251.762 43.6626 249.328 46.7267 245.379 47.731C248.324 48.9737 250.128 49.7567 248.324 56.0891C247.132 60.2085 246.622 61.5703 247.864 61.5703L247.575 62.5235H237.123C237.072 61.8937 237.344 60.0893 237.974 57.604ZM237.974 44.684C240.63 44.5138 242.264 43.6627 242.826 41.6881C243.438 39.4922 241.974 38.4197 239.608 38.4197H234.808L233.004 44.684H237.974ZM218.875 35.2536L220.066 31.1341H191.213L188.898 39.373H198.159L191.554 62.5235H201.835L208.44 39.373H217.7L218.892 35.2536H218.875Z" fill="#008542"/>
<path fill-rule="evenodd" clip-rule="evenodd" d="M85.0953 30.9128V20.5972H0V30.9128H16.3756L7.30264 62.3022H25.8741C33.9258 62.3022 35.3216 60.4298 36.9558 59.0509C39.1347 57.2295 40.3092 52.8718 39.3219 49.8418C38.624 47.697 36.5983 46.4033 36.377 46.3352C38.8963 45.1606 40.3603 42.6072 40.5305 42.2327C41.4667 40.2922 42.1817 36.7856 39.8666 33.9598C37.9431 31.6107 34.1981 30.9639 31.4745 30.9128H51.3568L42.2498 62.3533H51.4589L54.8294 50.4376H60.0893C63.9194 50.4376 63.5619 52.8207 63.664 53.8421L63.9704 62.6086H72.5327C72.5327 62.6086 72.1412 52.7697 72.1072 52.0377C71.988 49.5014 70.3198 48.3779 68.8899 48.3779C71.6305 47.6459 74.0137 45.1436 74.9669 43.5605C76.0564 41.7221 76.8905 38.7942 75.801 35.8834C74.218 31.6618 70.1666 30.9639 67.3239 30.9128H85.0783H85.0953ZM58.5232 37.2452H65.2301C68.4133 37.2452 68.5325 39.407 68.5325 40.0198C68.5325 41.4497 67.2728 44.2755 63.4087 44.2755H56.5827C56.5827 44.2755 58.4892 37.4154 58.5232 37.2452ZM20.2738 49.0588H26.4018C29.3978 49.0588 29.568 49.8759 29.9936 50.5738C30.4021 51.2717 30.2149 52.7356 29.9255 53.2463C29.568 53.8761 28.9552 55.8507 25.1252 55.8507H18.3162L20.2738 49.0758M23.6272 37.2111H30.7256C32.1384 37.2111 33.4151 38.1133 33.4151 39.6113C33.4151 41.62 31.815 43.0328 29.585 43.0328H21.993L23.6272 37.2111Z" fill="white"/>
</svg>
