<svg width="478" height="688" viewBox="0 0 478 688" fill="none" xmlns="http://www.w3.org/2000/svg">
<g clip-path="url(#clip0_155_246)">
<g filter="url(#filter0_d_155_246)">
<rect x="0.00012207" width="477.418" height="687.573" rx="41.1173" fill="white"/>
<rect x="7.99516" y="7.99504" width="461.428" height="671.583" rx="33.1223" stroke="#F9BB00" stroke-width="15.9901"/>
</g>
<rect x="0.00012207" y="-15.9901" width="477.799" height="716.698" fill="white"/>
<path d="M238.23 322.357C190.336 322.357 138.619 292.319 138.619 226.395C138.619 160.47 190.336 130.432 238.23 130.432C264.832 130.432 289.387 139.177 307.591 155.142C327.321 172.67 337.803 197.38 337.803 226.395C337.803 255.409 327.321 279.965 307.591 297.474C289.387 313.438 264.658 322.357 238.23 322.357Z" fill="url(#paint0_radial_155_246)"/>
<path d="M320.45 169.343C329.87 184.98 334.697 202.971 334.368 221.233C334.368 250.19 323.886 274.803 304.157 292.312C285.953 308.277 261.243 317.196 234.796 317.196C203.793 317.196 171.226 304.59 152.095 277.815C170.569 308.142 205.298 322.35 238.232 322.35C264.66 322.35 289.389 313.432 307.593 297.467C327.322 279.938 337.805 255.402 337.805 226.388C337.805 204.516 331.839 185.076 320.45 169.343Z" fill="#EB8F00"/>
<path opacity="0.8" d="M180.697 251.546C199.355 251.546 214.48 237.286 214.48 219.694C214.48 202.103 199.355 187.842 180.697 187.842C162.039 187.842 146.914 202.103 146.914 219.694C146.914 237.286 162.039 251.546 180.697 251.546Z" fill="url(#paint1_radial_155_246)"/>
<path opacity="0.8" d="M297.3 251.546C315.957 251.546 331.082 237.286 331.082 219.694C331.082 202.103 315.957 187.842 297.3 187.842C278.642 187.842 263.517 202.103 263.517 219.694C263.517 237.286 278.642 251.546 297.3 251.546Z" fill="url(#paint2_radial_155_246)"/>
<path d="M161.769 120.054C169.232 120.054 175.282 115.733 175.282 110.402C175.282 105.071 169.232 100.75 161.769 100.75C154.306 100.75 148.256 105.071 148.256 110.402C148.256 115.733 154.306 120.054 161.769 120.054Z" fill="#FF00A2"/>
<path d="M218.618 137.949C221.785 134.783 220.99 128.855 216.844 124.708C212.697 120.562 206.769 119.767 203.603 122.934C200.437 126.1 201.231 132.028 205.378 136.174C209.524 140.321 215.452 141.115 218.618 137.949Z" fill="#FD3B3B"/>
<path d="M260.029 122.55C267.112 117.068 270.79 109.959 268.245 106.671C265.699 103.383 257.895 105.161 250.813 110.643C243.731 116.124 240.052 123.234 242.598 126.522C245.143 129.81 252.947 128.032 260.029 122.55Z" fill="#00EEFF"/>
<path d="M165.554 249.986C168.232 248.44 167.593 242.322 164.128 236.32C160.663 230.319 155.684 226.707 153.006 228.253C150.329 229.799 150.967 235.917 154.432 241.919C157.897 247.92 162.876 251.532 165.554 249.986Z" fill="#0048FF"/>
<path d="M301.727 305.384C305.459 305.384 308.484 300.63 308.484 294.766C308.484 288.903 305.459 284.149 301.727 284.149C297.996 284.149 294.971 288.903 294.971 294.766C294.971 300.63 297.996 305.384 301.727 305.384Z" fill="#F63BBE"/>
<path d="M340.391 194.826C346.058 190.837 349.657 186.19 348.43 184.447C347.202 182.703 341.613 184.523 335.947 188.512C330.28 192.501 326.681 197.148 327.909 198.892C329.136 200.635 334.725 198.815 340.391 194.826Z" fill="#00CC00"/>
<path d="M158.839 315.11C161.067 313.647 160.029 308.126 156.52 302.778C153.01 297.429 148.359 294.279 146.13 295.741C143.902 297.203 144.94 302.725 148.449 308.073C151.959 313.422 156.61 316.572 158.839 315.11Z" fill="#0048FF"/>
<path d="M144.74 277.375C151.121 276.922 156.14 274.4 155.952 271.741C155.763 269.082 150.437 267.294 144.056 267.747C137.675 268.2 132.655 270.722 132.844 273.381C133.033 276.04 138.359 277.828 144.74 277.375Z" fill="#7ACDED"/>
<path d="M162.003 252.095C169.662 251.586 175.774 249.706 175.653 247.898C175.533 246.089 169.226 245.037 161.567 245.546C153.907 246.056 147.796 247.935 147.916 249.744C148.036 251.552 154.343 252.605 162.003 252.095Z" fill="#FF82B2"/>
<path d="M344.97 232.402C343.329 226.727 339.41 221.978 334.159 219.275C325.279 214.449 314.16 217.75 309.353 226.63C309.314 226.688 309.295 226.746 309.257 226.804C305.241 234.371 308.079 243.772 315.627 247.846C318.619 249.525 322.133 250.008 325.472 249.197C328.909 248.425 331.804 246.166 333.387 243.019C335.105 239.39 334.951 235.143 333.001 231.63C331.418 228.541 328.349 226.495 324.893 226.225C322.905 226.186 321.283 227.769 321.245 229.757C321.225 231.553 322.538 233.097 324.314 233.367C325.299 233.425 326.187 234.024 326.631 234.912C327.306 236.282 327.441 237.885 327.017 239.352C326.36 240.645 325.164 241.572 323.735 241.861C322.171 242.267 320.511 242.054 319.102 241.282C317.171 240.259 315.724 238.522 315.048 236.456C314.469 234.332 314.681 232.074 315.627 230.085C316.978 227.46 319.353 225.491 322.191 224.68C325.028 223.869 328.04 224.14 330.685 225.452C334.14 227.344 336.708 230.549 337.827 234.332C339.005 238.135 338.58 242.247 336.669 245.722C333.001 252.672 325.858 257.305 315.434 257.305C309.45 257.305 273.833 256.34 273.833 256.34L274.257 265.22L315.048 264.64C327.21 264.64 337.248 259.814 343.04 249.004C346.09 244.023 346.785 237.942 344.97 232.402Z" fill="url(#paint3_linear_155_246)"/>
<path d="M250.571 260.989C251.748 262.244 252.656 263.711 253.273 265.313L275.377 265.178C275.377 262.283 274.991 259.387 274.991 256.298C269.2 256.105 257.269 255.912 253.563 255.777C253.022 257.765 251.961 259.58 250.455 260.989H250.571Z" fill="#7F0099"/>
<path d="M317.753 187.262L324.509 188.227L326.247 181.47L327.212 177.609L288.41 172.204C305.977 185.524 316.595 187.262 317.753 187.262Z" fill="#FF4545"/>
<path d="M348.826 91.8862L333.19 100.766L329.329 102.89L345.544 105.206C346.703 100.38 348.826 91.8862 348.826 91.8862Z" fill="#FF4545"/>
<path d="M314.274 111.382L298.251 120.455L340.142 126.44L342.845 115.436L314.274 111.382Z" fill="#FF4545"/>
<path d="M268.521 137.275H268.328L334.928 146.927L337.438 136.696L283.192 128.974L268.521 137.275Z" fill="#FF4545"/>
<path d="M274.119 159.451L329.716 167.365L332.419 156.941L265.432 147.289C266.204 149.412 268.521 153.659 274.119 159.451Z" fill="#FF4545"/>
<path d="M283.191 128.967L337.437 136.689L340.14 126.458L298.249 120.473L283.191 128.967Z" fill="#FF9C9C"/>
<path d="M344.388 109.466C344.388 109.466 344.968 106.763 345.354 105.412L329.138 103.095L314.08 111.589L342.651 115.643L344.388 109.466Z" fill="#FF9C9C"/>
<path d="M262.732 140.343L264.855 146.521C264.933 146.868 265.068 147.196 265.242 147.486L332.228 157.138L334.738 146.907L268.137 137.448L262.732 140.343Z" fill="#FF9C9C"/>
<path d="M287.633 171.62C287.826 171.814 288.212 172.007 288.405 172.2L327.207 177.798L329.716 167.567L274.119 159.652C278.347 163.937 282.864 167.933 287.633 171.62Z" fill="#FF9C9C"/>
<path d="M348.64 103.285C353.757 103.285 357.906 99.1369 357.906 94.0193C357.906 88.9018 353.757 84.7532 348.64 84.7532C343.522 84.7532 339.374 88.9018 339.374 94.0193C339.374 99.1369 343.522 103.285 348.64 103.285Z" fill="#C93737"/>
<path d="M254.13 258.708C256.968 256.257 258.744 252.801 259.091 249.056C259.632 245.292 258.512 241.489 256.003 238.632C251.505 232.724 238.995 234.192 238.995 234.192C235.636 234.327 231.756 235.929 232.239 239.79C232.876 242.01 234.671 243.709 236.91 244.211C241.852 245.388 248.898 244.211 249.092 249.23C249.323 254.867 240.675 252.55 239.98 258.515C239.285 264.48 249.092 263.689 249.092 267.801C249.092 270.947 245.868 271.488 242.47 272.202C239.555 272.8 233.957 273.708 233.513 277.047C233.069 280.387 234.98 284.499 242.856 283.302C255.25 281.372 259.419 274.634 259.419 270.465C259.497 265.947 257.566 261.642 254.13 258.708Z" fill="#422B0D"/>
<path d="M211.699 207.751L211.409 207.384L210.637 206.4L209.652 205.338C209.266 204.913 208.803 204.45 208.34 203.987C207.857 203.523 207.355 203.079 206.814 202.674C206.332 202.307 205.83 201.979 205.289 201.69C204.923 201.477 204.517 201.323 204.093 201.246C203.957 201.226 203.842 201.226 203.706 201.246C203.706 201.246 203.706 201.246 203.552 201.246H203.899H202.896C202.645 201.246 202.896 201.246 202.896 201.246H203.031C203.031 201.246 203.185 201.246 203.031 201.246C202.954 201.226 202.896 201.226 202.818 201.246C202.394 201.323 201.988 201.477 201.622 201.69C201.081 201.979 200.579 202.307 200.096 202.674C199.595 203.06 199.073 203.523 198.571 203.987C197.626 204.913 196.795 205.917 196.216 206.516L195.29 207.616L194.865 208.099C192.24 211.014 187.838 211.477 184.653 209.199C182.626 207.79 181.583 205.338 181.97 202.886C181.97 202.886 182.105 202.153 182.452 200.956C182.993 199.103 183.765 197.327 184.73 195.667C186.236 192.925 188.282 190.512 190.734 188.582C192.413 187.308 194.267 186.285 196.255 185.57C196.795 185.358 197.375 185.184 197.934 185.049C198.571 184.856 199.208 184.721 199.865 184.624L200.984 184.47H201.911H202.915H204.343H205.27C205.869 184.47 206.486 184.624 207.085 184.721C208.262 184.933 209.401 185.242 210.521 185.648C212.509 186.362 214.363 187.385 216.042 188.659C218.532 190.551 220.637 192.925 222.181 195.647C222.741 196.593 223.243 197.597 223.648 198.62C224.015 199.47 224.285 200.377 224.517 201.052C224.748 201.728 224.729 202.056 224.806 202.385V202.829C225.328 206.554 222.721 210.01 218.996 210.531C218.918 210.55 218.841 210.55 218.783 210.55C216.1 210.956 213.378 209.894 211.699 207.751Z" fill="#422B0D"/>
<path d="M283.399 207.751L283.109 207.384L282.337 206.4L281.468 205.338C281.082 204.913 280.619 204.45 280.156 203.987C279.673 203.523 279.171 203.079 278.631 202.674C278.148 202.307 277.646 201.979 277.106 201.689C276.739 201.477 276.333 201.323 275.928 201.245C275.793 201.226 275.677 201.226 275.542 201.245C275.542 201.245 275.426 201.245 275.387 201.245H275.677H274.673C274.403 201.245 274.673 201.245 274.673 201.245H274.808C274.808 201.245 274.963 201.245 274.808 201.245H274.596C274.191 201.323 273.785 201.477 273.418 201.689C272.878 201.979 272.376 202.307 271.893 202.674C271.353 203.079 270.851 203.523 270.368 203.987C269.403 204.913 268.592 205.917 267.994 206.516L267.067 207.616L266.643 208.099C264.017 211.014 259.616 211.477 256.43 209.199C254.403 207.79 253.361 205.338 253.747 202.886C253.747 202.886 253.882 202.153 254.249 200.956C254.732 199.083 255.446 197.269 256.373 195.57C257.917 192.848 260.021 190.474 262.511 188.582C264.191 187.308 266.063 186.285 268.052 185.57C268.592 185.358 269.152 185.184 269.712 185.049C270.349 184.856 270.986 184.721 271.642 184.624L272.762 184.47H273.689H274.693H276.121H277.048C277.665 184.47 278.264 184.624 278.862 184.721C282.125 185.281 285.194 186.613 287.839 188.582C290.329 190.474 292.414 192.848 293.978 195.57C294.538 196.516 295.02 197.52 295.426 198.543C295.773 199.334 296.063 200.145 296.294 200.975C296.429 201.419 296.526 201.863 296.584 202.307V202.751C297.124 206.458 294.538 209.913 290.831 210.434C290.754 210.454 290.677 210.454 290.58 210.473C287.878 210.898 285.136 209.875 283.399 207.751Z" fill="#422B0D"/>
<g filter="url(#filter1_d_155_246)">
<path d="M126.125 429.367V442H120.031V407.688C124.094 407.516 126.469 407.43 127.156 407.43C132.578 407.43 136.539 408.266 139.039 409.938C141.555 411.594 142.813 414.188 142.813 417.719C142.813 425.594 138.172 429.531 128.891 429.531C128.203 429.531 127.281 429.477 126.125 429.367ZM126.125 412.961V423.953C127.156 424.062 127.969 424.117 128.563 424.117C131.344 424.117 133.375 423.656 134.656 422.734C135.938 421.797 136.578 420.281 136.578 418.188C136.578 414.625 133.711 412.844 127.977 412.844C127.336 412.844 126.719 412.883 126.125 412.961ZM164.68 442L162.172 435.039H150.406L148.016 442H141.242L154.93 407.195H157.602L171.406 442H164.68ZM156.266 417.695L152.141 430.375H160.391L156.266 417.695ZM194.422 442L185.258 427.82C184.336 427.805 183.047 427.75 181.391 427.656V442H175.063V407.664C175.406 407.664 176.727 407.609 179.024 407.5C181.32 407.375 183.172 407.312 184.578 407.312C193.297 407.312 197.656 410.688 197.656 417.438C197.656 419.469 197.055 421.32 195.852 422.992C194.649 424.664 193.133 425.844 191.305 426.531L201.453 442H194.422ZM181.391 412.961V422.5C182.516 422.594 183.375 422.641 183.969 422.641C186.516 422.641 188.375 422.281 189.547 421.562C190.734 420.844 191.328 419.445 191.328 417.367C191.328 415.68 190.695 414.5 189.43 413.828C188.164 413.156 186.172 412.82 183.453 412.82C182.797 412.82 182.109 412.867 181.391 412.961ZM224.445 442L221.938 435.039H210.172L207.781 442H201.008L214.695 407.195H217.367L231.172 442H224.445ZM216.031 417.695L211.906 430.375H220.156L216.031 417.695ZM245.328 442H234.828V407.688C239.453 407.469 242.695 407.359 244.555 407.359C248.117 407.359 250.899 408.125 252.899 409.656C254.914 411.172 255.922 413.344 255.922 416.172C255.922 418.891 254.484 421.039 251.609 422.617C255.875 424.102 258.008 427.164 258.008 431.805C258.008 434.93 256.828 437.414 254.469 439.258C252.109 441.086 249.063 442 245.328 442ZM240.922 412.562V420.789C241.859 420.852 242.844 420.883 243.875 420.883C247.844 420.883 249.828 419.391 249.828 416.406C249.828 413.766 248.024 412.445 244.414 412.445C243.461 412.445 242.297 412.484 240.922 412.562ZM240.922 425.547V436.891C242.156 437 243.156 437.055 243.922 437.055C246.641 437.055 248.609 436.594 249.828 435.672C251.063 434.75 251.68 433.219 251.68 431.078C251.68 429.125 251.109 427.703 249.969 426.812C248.828 425.922 246.836 425.477 243.992 425.477C243.399 425.477 242.375 425.5 240.922 425.547ZM269.516 413.078V421.117H280.859V426.297H269.516V436.586H285.078V442H263.422V407.664H285.336V413.078H269.516ZM280.461 397.984L275.164 404.852H270.711L274.672 397.984H280.461ZM313.274 442.469L296.609 420.742V442.023H290.75V407.664H293.68L309.899 428.383V407.664H315.758V442.469H313.274ZM321.172 440.102L323.422 434.641C325.828 436.328 328.195 437.172 330.524 437.172C334.102 437.172 335.891 435.922 335.891 433.422C335.891 432.25 335.469 431.133 334.625 430.07C333.781 429.008 332.039 427.82 329.399 426.508C326.774 425.18 325 424.094 324.078 423.25C323.172 422.391 322.469 421.375 321.969 420.203C321.484 419.031 321.242 417.734 321.242 416.312C321.242 413.656 322.211 411.453 324.149 409.703C326.102 407.953 328.602 407.078 331.649 407.078C335.617 407.078 338.531 407.82 340.391 409.305L338.539 414.555C336.399 413.023 334.141 412.258 331.766 412.258C330.359 412.258 329.266 412.633 328.484 413.383C327.719 414.117 327.336 415.078 327.336 416.266C327.336 418.234 329.516 420.281 333.875 422.406C336.172 423.531 337.828 424.57 338.844 425.523C339.859 426.461 340.633 427.562 341.164 428.828C341.695 430.078 341.961 431.477 341.961 433.023C341.961 435.805 340.859 438.094 338.656 439.891C336.469 441.688 333.531 442.586 329.844 442.586C326.641 442.586 323.75 441.758 321.172 440.102ZM353.844 433.047H351.406C350.188 425.234 349.578 419.773 349.578 416.664V407.055H355.672V416.641C355.672 419.766 355.063 425.234 353.844 433.047ZM352.813 434.781C353.875 434.781 354.774 435.156 355.508 435.906C356.258 436.656 356.633 437.562 356.633 438.625C356.633 439.688 356.258 440.594 355.508 441.344C354.774 442.094 353.875 442.469 352.813 442.469C351.75 442.469 350.844 442.094 350.094 441.344C349.344 440.594 348.969 439.688 348.969 438.625C348.969 437.562 349.344 436.656 350.094 435.906C350.844 435.156 351.75 434.781 352.813 434.781ZM51.0314 498.469H47.6798L34.8361 463.664H41.5392L49.4845 486.867L57.8751 463.664H64.4376L51.0314 498.469ZM66.4532 480.539C66.4532 475.648 67.7892 471.516 70.4611 468.141C73.1486 464.75 76.7345 463.055 81.2189 463.055C86.1564 463.055 89.9298 464.586 92.5392 467.648C95.1486 470.711 96.4532 475.008 96.4532 480.539C96.4532 486.07 95.0861 490.461 92.3517 493.711C89.6329 496.961 85.7657 498.586 80.7501 498.586C76.1407 498.586 72.6017 496.977 70.1329 493.758C67.6798 490.539 66.4532 486.133 66.4532 480.539ZM72.7814 480.539C72.7814 484.555 73.4611 487.664 74.8204 489.867C76.1798 492.07 78.1564 493.172 80.7501 493.172C83.797 493.172 86.1173 492.094 87.7111 489.938C89.3204 487.781 90.1251 484.648 90.1251 480.539C90.1251 472.492 87.1564 468.469 81.2189 468.469C78.5001 468.469 76.4142 469.562 74.9611 471.75C73.5079 473.922 72.7814 476.852 72.7814 480.539ZM125.375 465.492L122.867 470.531C121.508 469.172 119.32 468.492 116.305 468.492C113.445 468.492 111.102 469.695 109.274 472.102C107.445 474.492 106.531 477.523 106.531 481.195C106.531 484.867 107.375 487.781 109.063 489.938C110.766 492.094 113.031 493.172 115.859 493.172C119.094 493.172 121.625 492.016 123.453 489.703L126.289 494.625C123.805 497.266 120.164 498.586 115.367 498.586C110.57 498.586 106.844 497.008 104.188 493.852C101.531 490.695 100.203 486.391 100.203 480.938C100.203 475.859 101.672 471.617 104.609 468.211C107.563 464.789 111.336 463.078 115.93 463.078C119.867 463.078 123.016 463.883 125.375 465.492ZM137.328 469.078V477.117H148.672V482.297H137.328V492.586H152.891V498H131.234V463.664H153.149V469.078H137.328ZM145.625 460.852L141.945 457.359L138.688 460.852H132.43L140.75 453.469H143.258L151.883 460.852H145.625ZM196.578 465.492L194.07 470.531C192.711 469.172 190.524 468.492 187.508 468.492C184.649 468.492 182.305 469.695 180.477 472.102C178.649 474.492 177.734 477.523 177.734 481.195C177.734 484.867 178.578 487.781 180.266 489.938C181.969 492.094 184.234 493.172 187.063 493.172C190.297 493.172 192.828 492.016 194.656 489.703L197.492 494.625C195.008 497.266 191.367 498.586 186.57 498.586C181.774 498.586 178.047 497.008 175.391 493.852C172.734 490.695 171.406 486.391 171.406 480.938C171.406 475.859 172.875 471.617 175.813 468.211C178.766 464.789 182.539 463.078 187.133 463.078C191.07 463.078 194.219 463.883 196.578 465.492ZM200.797 480.539C200.797 475.648 202.133 471.516 204.805 468.141C207.492 464.75 211.078 463.055 215.563 463.055C220.5 463.055 224.274 464.586 226.883 467.648C229.492 470.711 230.797 475.008 230.797 480.539C230.797 486.07 229.43 490.461 226.695 493.711C223.977 496.961 220.109 498.586 215.094 498.586C210.484 498.586 206.945 496.977 204.477 493.758C202.024 490.539 200.797 486.133 200.797 480.539ZM207.125 480.539C207.125 484.555 207.805 487.664 209.164 489.867C210.524 492.07 212.5 493.172 215.094 493.172C218.141 493.172 220.461 492.094 222.055 489.938C223.664 487.781 224.469 484.648 224.469 480.539C224.469 472.492 221.5 468.469 215.563 468.469C212.844 468.469 210.758 469.562 209.305 471.75C207.852 473.922 207.125 476.852 207.125 480.539ZM268.203 498.023H262.297L258.734 479.508L251.82 498.469H249.641L242.727 479.508L239.024 498.023H233.141L240.055 463.664H243.289L250.719 486.797L257.984 463.664H261.195L268.203 498.023ZM278.047 485.367V498H271.953V463.688C276.016 463.516 278.391 463.43 279.078 463.43C284.5 463.43 288.461 464.266 290.961 465.938C293.477 467.594 294.734 470.188 294.734 473.719C294.734 481.594 290.094 485.531 280.813 485.531C280.125 485.531 279.203 485.477 278.047 485.367ZM278.047 468.961V479.953C279.078 480.062 279.891 480.117 280.484 480.117C283.266 480.117 285.297 479.656 286.578 478.734C287.859 477.797 288.5 476.281 288.5 474.188C288.5 470.625 285.633 468.844 279.899 468.844C279.258 468.844 278.641 468.883 278.047 468.961ZM300.125 498V463.664H306.219V492.586H321.734V498H300.125ZM332.75 469.078V477.117H344.094V482.297H332.75V492.586H348.313V498H326.656V463.664H348.57V469.078H332.75ZM367.953 469.078V498H361.859V469.078H350.938V463.664H379.367V469.078H367.953ZM378.875 480.539C378.875 475.648 380.211 471.516 382.883 468.141C385.57 464.75 389.156 463.055 393.641 463.055C398.578 463.055 402.352 464.586 404.961 467.648C407.57 470.711 408.875 475.008 408.875 480.539C408.875 486.07 407.508 490.461 404.774 493.711C402.055 496.961 398.188 498.586 393.172 498.586C388.563 498.586 385.024 496.977 382.555 493.758C380.102 490.539 378.875 486.133 378.875 480.539ZM385.203 480.539C385.203 484.555 385.883 487.664 387.242 489.867C388.602 492.07 390.578 493.172 393.172 493.172C396.219 493.172 398.539 492.094 400.133 489.938C401.742 487.781 402.547 484.648 402.547 480.539C402.547 472.492 399.578 468.469 393.641 468.469C390.922 468.469 388.836 469.562 387.383 471.75C385.93 473.922 385.203 476.852 385.203 480.539ZM414.266 463.664H420.359V486.938C420.359 488.781 420.922 490.281 422.047 491.438C423.172 492.594 424.719 493.172 426.688 493.172C428.891 493.172 430.602 492.609 431.82 491.484C433.055 490.344 433.672 488.789 433.672 486.82V463.664H439.766V487.289C439.766 490.82 438.578 493.586 436.203 495.586C433.844 497.586 430.688 498.586 426.734 498.586C422.75 498.586 419.672 497.609 417.5 495.656C415.344 493.703 414.266 490.906 414.266 487.266V463.664ZM108.43 552.102L110.68 546.641C113.086 548.328 115.453 549.172 117.781 549.172C121.359 549.172 123.149 547.922 123.149 545.422C123.149 544.25 122.727 543.133 121.883 542.07C121.039 541.008 119.297 539.82 116.656 538.508C114.031 537.18 112.258 536.094 111.336 535.25C110.43 534.391 109.727 533.375 109.227 532.203C108.742 531.031 108.5 529.734 108.5 528.312C108.5 525.656 109.469 523.453 111.406 521.703C113.359 519.953 115.859 519.078 118.906 519.078C122.875 519.078 125.789 519.82 127.649 521.305L125.797 526.555C123.656 525.023 121.399 524.258 119.024 524.258C117.617 524.258 116.524 524.633 115.742 525.383C114.977 526.117 114.594 527.078 114.594 528.266C114.594 530.234 116.774 532.281 121.133 534.406C123.43 535.531 125.086 536.57 126.102 537.523C127.117 538.461 127.891 539.562 128.422 540.828C128.953 542.078 129.219 543.477 129.219 545.023C129.219 547.805 128.117 550.094 125.914 551.891C123.727 553.688 120.789 554.586 117.102 554.586C113.899 554.586 111.008 553.758 108.43 552.102ZM134.633 519.664H140.727V542.938C140.727 544.781 141.289 546.281 142.414 547.438C143.539 548.594 145.086 549.172 147.055 549.172C149.258 549.172 150.969 548.609 152.188 547.484C153.422 546.344 154.039 544.789 154.039 542.82V519.664H160.133V543.289C160.133 546.82 158.945 549.586 156.57 551.586C154.211 553.586 151.055 554.586 147.102 554.586C143.117 554.586 140.039 553.609 137.867 551.656C135.711 549.703 134.633 546.906 134.633 543.266V519.664ZM187.203 554L184.695 547.039H172.93L170.539 554H163.766L177.453 519.195H180.125L193.93 554H187.203ZM178.789 529.695L174.664 542.375H182.914L178.789 529.695ZM241.414 554.023H235.508L231.945 535.508L225.031 554.469H222.852L215.938 535.508L212.234 554.023H206.352L213.266 519.664H216.5L223.93 542.797L231.195 519.664H234.406L241.414 554.023ZM245.281 554V519.664H251.375V554H245.281ZM256.883 552.102L259.133 546.641C261.539 548.328 263.906 549.172 266.234 549.172C269.813 549.172 271.602 547.922 271.602 545.422C271.602 544.25 271.18 543.133 270.336 542.07C269.492 541.008 267.75 539.82 265.109 538.508C262.484 537.18 260.711 536.094 259.789 535.25C258.883 534.391 258.18 533.375 257.68 532.203C257.195 531.031 256.953 529.734 256.953 528.312C256.953 525.656 257.922 523.453 259.859 521.703C261.813 519.953 264.313 519.078 267.359 519.078C271.328 519.078 274.242 519.82 276.102 521.305L274.25 526.555C272.109 525.023 269.852 524.258 267.477 524.258C266.07 524.258 264.977 524.633 264.195 525.383C263.43 526.117 263.047 527.078 263.047 528.266C263.047 530.234 265.227 532.281 269.586 534.406C271.883 535.531 273.539 536.57 274.555 537.523C275.57 538.461 276.344 539.562 276.875 540.828C277.406 542.078 277.672 543.477 277.672 545.023C277.672 547.805 276.57 550.094 274.367 551.891C272.18 553.688 269.242 554.586 265.555 554.586C262.352 554.586 259.461 553.758 256.883 552.102ZM281.445 552.102L283.695 546.641C286.102 548.328 288.469 549.172 290.797 549.172C294.375 549.172 296.164 547.922 296.164 545.422C296.164 544.25 295.742 543.133 294.899 542.07C294.055 541.008 292.313 539.82 289.672 538.508C287.047 537.18 285.274 536.094 284.352 535.25C283.445 534.391 282.742 533.375 282.242 532.203C281.758 531.031 281.516 529.734 281.516 528.312C281.516 525.656 282.484 523.453 284.422 521.703C286.375 519.953 288.875 519.078 291.922 519.078C295.891 519.078 298.805 519.82 300.664 521.305L298.813 526.555C296.672 525.023 294.414 524.258 292.039 524.258C290.633 524.258 289.539 524.633 288.758 525.383C287.992 526.117 287.609 527.078 287.609 528.266C287.609 530.234 289.789 532.281 294.149 534.406C296.445 535.531 298.102 536.57 299.117 537.523C300.133 538.461 300.906 539.562 301.438 540.828C301.969 542.078 302.234 543.477 302.234 545.023C302.234 547.805 301.133 550.094 298.93 551.891C296.742 553.688 293.805 554.586 290.117 554.586C286.914 554.586 284.024 553.758 281.445 552.102ZM327.688 554L325.18 547.039H313.414L311.024 554H304.25L317.938 519.195H320.609L334.414 554H327.688ZM319.274 529.695L315.149 542.375H323.399L319.274 529.695ZM314.82 517.555H311.422C311.719 515.773 312.313 514.328 313.203 513.219C314.109 512.094 315.227 511.531 316.555 511.531C317.774 511.531 318.992 511.836 320.211 512.445C321.43 513.039 322.211 513.336 322.555 513.336C323.508 513.336 324.188 512.734 324.594 511.531H328.063C327.469 513.859 326.742 515.445 325.883 516.289C325.024 517.133 323.945 517.555 322.649 517.555C321.68 517.555 320.57 517.258 319.32 516.664C318.086 516.055 317.281 515.75 316.906 515.75C316.094 515.75 315.399 516.352 314.82 517.555ZM336.43 536.539C336.43 531.648 337.766 527.516 340.438 524.141C343.125 520.75 346.711 519.055 351.195 519.055C356.133 519.055 359.906 520.586 362.516 523.648C365.125 526.711 366.43 531.008 366.43 536.539C366.43 542.07 365.063 546.461 362.328 549.711C359.609 552.961 355.742 554.586 350.727 554.586C346.117 554.586 342.578 552.977 340.109 549.758C337.656 546.539 336.43 542.133 336.43 536.539ZM342.758 536.539C342.758 540.555 343.438 543.664 344.797 545.867C346.156 548.07 348.133 549.172 350.727 549.172C353.774 549.172 356.094 548.094 357.688 545.938C359.297 543.781 360.102 540.648 360.102 536.539C360.102 528.492 357.133 524.469 351.195 524.469C348.477 524.469 346.391 525.562 344.938 527.75C343.484 529.922 342.758 532.852 342.758 536.539ZM378.289 545.047H375.852C374.633 537.234 374.024 531.773 374.024 528.664V519.055H380.117V528.641C380.117 531.766 379.508 537.234 378.289 545.047ZM377.258 546.781C378.32 546.781 379.219 547.156 379.953 547.906C380.703 548.656 381.078 549.562 381.078 550.625C381.078 551.688 380.703 552.594 379.953 553.344C379.219 554.094 378.32 554.469 377.258 554.469C376.195 554.469 375.289 554.094 374.539 553.344C373.789 552.594 373.414 551.688 373.414 550.625C373.414 549.562 373.789 548.656 374.539 547.906C375.289 547.156 376.195 546.781 377.258 546.781Z" fill="#018443"/>
</g>
</g>
<rect x="7.99516" y="7.99504" width="461.428" height="671.583" rx="33.1223" stroke="#F9BB00" stroke-width="15.9901"/>
<defs>
<filter id="filter0_d_155_246" x="-11.4215" y="-2.2843" width="500.261" height="710.416" filterUnits="userSpaceOnUse" color-interpolation-filters="sRGB">
<feFlood flood-opacity="0" result="BackgroundImageFix"/>
<feColorMatrix in="SourceAlpha" type="matrix" values="0 0 0 0 0 0 0 0 0 0 0 0 0 0 0 0 0 0 127 0" result="hardAlpha"/>
<feOffset dy="9.13719"/>
<feGaussianBlur stdDeviation="5.71074"/>
<feComposite in2="hardAlpha" operator="out"/>
<feColorMatrix type="matrix" values="0 0 0 0 0 0 0 0 0 0 0 0 0 0 0 0 0 0 0.25 0"/>
<feBlend mode="normal" in2="BackgroundImageFix" result="effect1_dropShadow_155_246"/>
<feBlend mode="normal" in="SourceGraphic" in2="effect1_dropShadow_155_246" result="shape"/>
</filter>
<filter id="filter1_d_155_246" x="30.8359" y="397.984" width="412.93" height="164.602" filterUnits="userSpaceOnUse" color-interpolation-filters="sRGB">
<feFlood flood-opacity="0" result="BackgroundImageFix"/>
<feColorMatrix in="SourceAlpha" type="matrix" values="0 0 0 0 0 0 0 0 0 0 0 0 0 0 0 0 0 0 127 0" result="hardAlpha"/>
<feOffset dy="4"/>
<feGaussianBlur stdDeviation="2"/>
<feComposite in2="hardAlpha" operator="out"/>
<feColorMatrix type="matrix" values="0 0 0 0 0 0 0 0 0 0 0 0 0 0 0 0 0 0 0.25 0"/>
<feBlend mode="normal" in2="BackgroundImageFix" result="effect1_dropShadow_155_246"/>
<feBlend mode="normal" in="SourceGraphic" in2="effect1_dropShadow_155_246" result="shape"/>
</filter>
<radialGradient id="paint0_radial_155_246" cx="0" cy="0" r="1" gradientUnits="userSpaceOnUse" gradientTransform="translate(238.211 226.395) scale(97.7942 97.7938)">
<stop offset="0.5" stop-color="#FDE030"/>
<stop offset="0.92" stop-color="#F7C02B"/>
<stop offset="1" stop-color="#F4A223"/>
</radialGradient>
<radialGradient id="paint1_radial_155_246" cx="0" cy="0" r="1" gradientUnits="userSpaceOnUse" gradientTransform="translate(180.697 226.488) scale(36.7708 33.0186)">
<stop stop-color="#ED7770"/>
<stop offset="0.9" stop-color="#ED7770" stop-opacity="0"/>
</radialGradient>
<radialGradient id="paint2_radial_155_246" cx="0" cy="0" r="1" gradientUnits="userSpaceOnUse" gradientTransform="translate(359.692 2345.09) scale(37.5087 37.5085)">
<stop stop-color="#ED7770"/>
<stop offset="0.9" stop-color="#ED7770" stop-opacity="0"/>
</radialGradient>
<linearGradient id="paint3_linear_155_246" x1="274.103" y1="241.138" x2="345.897" y2="241.138" gradientUnits="userSpaceOnUse">
<stop stop-color="#004054"/>
<stop offset="0.99" stop-color="#45A4FF"/>
</linearGradient>
<clipPath id="clip0_155_246">
<rect x="0.00012207" width="477.418" height="687.573" rx="41.1173" fill="white"/>
</clipPath>
</defs>
</svg>
