<svg width="1080" height="488" viewBox="0 0 1080 488" fill="none" xmlns="http://www.w3.org/2000/svg">
<path d="M539.226 256.357C491.332 256.357 439.615 226.319 439.615 160.395C439.615 94.47 491.332 64.4323 539.226 64.4323C565.828 64.4323 590.383 73.1772 608.588 89.142C628.317 106.67 638.799 131.38 638.799 160.395C638.799 189.409 628.317 213.965 608.588 231.474C590.383 247.438 565.654 256.357 539.226 256.357Z" fill="url(#paint0_radial_161_115)"/>
<path d="M621.446 103.343C630.866 118.98 635.693 136.971 635.364 155.233C635.364 184.19 624.882 208.803 605.153 226.312C586.949 242.277 562.239 251.196 535.792 251.196C504.789 251.196 472.222 238.59 453.091 211.815C471.565 242.142 506.294 256.35 539.228 256.35C565.656 256.35 590.385 247.432 608.589 231.467C628.318 213.938 638.801 189.402 638.801 160.388C638.801 138.516 632.836 119.076 621.446 103.343Z" fill="#EB8F00"/>
<path opacity="0.8" d="M481.697 185.546C500.355 185.546 515.48 171.286 515.48 153.694C515.48 136.103 500.355 121.842 481.697 121.842C463.039 121.842 447.914 136.103 447.914 153.694C447.914 171.286 463.039 185.546 481.697 185.546Z" fill="url(#paint1_radial_161_115)"/>
<path opacity="0.8" d="M598.296 185.546C616.953 185.546 632.079 171.286 632.079 153.694C632.079 136.103 616.953 121.842 598.296 121.842C579.638 121.842 564.513 136.103 564.513 153.694C564.513 171.286 579.638 185.546 598.296 185.546Z" fill="url(#paint2_radial_161_115)"/>
<path d="M462.777 54.0544C470.24 54.0544 476.29 49.733 476.29 44.4022C476.29 39.0714 470.24 34.75 462.777 34.75C455.314 34.75 449.264 39.0714 449.264 44.4022C449.264 49.733 455.314 54.0544 462.777 54.0544Z" fill="#FF00A2"/>
<path d="M519.618 71.9488C522.785 68.7825 521.99 62.8545 517.844 58.7081C513.698 54.5618 507.77 53.7673 504.603 56.9336C501.437 60.0999 502.231 66.028 506.378 70.1743C510.524 74.3206 516.452 75.1151 519.618 71.9488Z" fill="#FD3B3B"/>
<path d="M561.03 56.5502C568.112 51.0684 571.79 43.9589 569.245 40.6708C566.7 37.3826 558.895 39.1609 551.813 44.6427C544.731 50.1245 541.053 57.2339 543.598 60.5221C546.143 63.8102 553.947 62.0319 561.03 56.5502Z" fill="#00EEFF"/>
<path d="M466.554 183.986C469.232 182.44 468.593 176.322 465.128 170.32C461.663 164.319 456.684 160.707 454.006 162.253C451.329 163.799 451.967 169.917 455.432 175.919C458.897 181.92 463.877 185.532 466.554 183.986Z" fill="#0048FF"/>
<path d="M602.731 239.384C606.463 239.384 609.488 234.63 609.488 228.766C609.488 222.903 606.463 218.149 602.731 218.149C599 218.149 595.975 222.903 595.975 228.766C595.975 234.63 599 239.384 602.731 239.384Z" fill="#F63BBE"/>
<path d="M641.399 128.826C647.066 124.837 650.665 120.19 649.437 118.447C648.21 116.703 642.621 118.523 636.955 122.512C631.288 126.501 627.689 131.148 628.916 132.892C630.144 134.635 635.733 132.815 641.399 128.826Z" fill="#00CC00"/>
<path d="M459.843 249.11C462.071 247.647 461.033 242.126 457.523 236.778C454.014 231.429 449.363 228.279 447.134 229.741C444.905 231.203 445.944 236.725 449.453 242.073C452.963 247.421 457.614 250.572 459.843 249.11Z" fill="#0048FF"/>
<path d="M445.744 211.375C452.125 210.922 457.145 208.4 456.956 205.741C456.767 203.082 451.441 201.294 445.06 201.747C438.679 202.2 433.66 204.722 433.848 207.381C434.037 210.04 439.363 211.828 445.744 211.375Z" fill="#7ACDED"/>
<path d="M463.003 186.095C470.662 185.586 476.774 183.706 476.654 181.898C476.533 180.089 470.226 179.037 462.567 179.546C454.907 180.056 448.796 181.935 448.916 183.744C449.036 185.552 455.343 186.605 463.003 186.095Z" fill="#FF82B2"/>
<path d="M645.974 166.402C644.333 160.726 640.414 155.978 635.163 153.275C626.283 148.449 615.164 151.75 610.357 160.63C610.318 160.688 610.299 160.746 610.26 160.804C606.245 168.371 609.083 177.772 616.631 181.846C619.623 183.525 623.137 184.008 626.476 183.197C629.912 182.425 632.808 180.166 634.391 177.019C636.109 173.39 635.955 169.143 634.005 165.63C632.422 162.541 629.353 160.495 625.897 160.225C623.909 160.186 622.287 161.769 622.249 163.757C622.229 165.553 623.542 167.097 625.318 167.367C626.303 167.425 627.191 168.024 627.635 168.912C628.31 170.282 628.445 171.884 628.021 173.352C627.364 174.645 626.167 175.572 624.739 175.861C623.175 176.267 621.515 176.054 620.106 175.282C618.175 174.259 616.727 172.521 616.052 170.456C615.473 168.332 615.685 166.074 616.631 164.085C617.982 161.46 620.357 159.491 623.195 158.68C626.032 157.869 629.044 158.14 631.689 159.452C635.144 161.344 637.712 164.549 638.831 168.332C640.009 172.135 639.584 176.247 637.673 179.722C634.005 186.672 626.862 191.305 616.438 191.305C610.454 191.305 574.837 190.339 574.837 190.339L575.261 199.22L616.052 198.64C628.214 198.64 638.252 193.814 644.043 183.004C647.094 178.023 647.788 171.942 645.974 166.402Z" fill="url(#paint3_linear_161_115)"/>
<path d="M551.575 194.989C552.752 196.244 553.66 197.711 554.277 199.313L576.381 199.178C576.381 196.283 575.995 193.387 575.995 190.298C570.204 190.105 558.273 189.912 554.567 189.777C554.026 191.765 552.965 193.58 551.459 194.989H551.575Z" fill="#7F0099"/>
<path d="M618.753 121.262L625.51 122.227L627.247 115.47L628.212 111.609L589.41 106.204C606.977 119.524 617.595 121.262 618.753 121.262Z" fill="#FF4545"/>
<path d="M649.834 25.8862L634.197 34.7663L630.336 36.8898L646.552 39.2063C647.71 34.3802 649.834 25.8862 649.834 25.8862Z" fill="#FF4545"/>
<path d="M615.278 45.3822L599.255 54.4553L641.146 60.4397L643.849 49.4361L615.278 45.3822Z" fill="#FF4545"/>
<path d="M569.529 71.2749H569.335L635.936 80.9271L638.446 70.6958L584.2 62.974L569.529 71.2749Z" fill="#FF4545"/>
<path d="M575.126 93.4506L630.724 101.365L633.426 90.941L566.439 81.2888C567.212 83.4123 569.528 87.6593 575.126 93.4506Z" fill="#FF4545"/>
<path d="M584.195 62.9671L638.441 70.6889L641.144 60.4575L599.253 54.4731L584.195 62.9671Z" fill="#FF9C9C"/>
<path d="M645.392 43.4658C645.392 43.4658 645.971 40.7632 646.358 39.4119L630.142 37.0953L615.084 45.5893L643.655 49.6432L645.392 43.4658Z" fill="#FF9C9C"/>
<path d="M563.736 74.3432L565.86 80.5206C565.937 80.8681 566.072 81.1963 566.246 81.4858L633.232 91.138L635.742 80.9067L569.141 71.4475L563.736 74.3432Z" fill="#FF9C9C"/>
<path d="M588.64 105.62C588.833 105.814 589.219 106.007 589.412 106.2L628.214 111.798L630.724 101.567L575.127 93.6517C579.355 97.9373 583.872 101.933 588.64 105.62Z" fill="#FF9C9C"/>
<path d="M649.64 37.2854C654.758 37.2854 658.906 33.1369 658.906 28.0193C658.906 22.9018 654.758 18.7532 649.64 18.7532C644.522 18.7532 640.374 22.9018 640.374 28.0193C640.374 33.1369 644.522 37.2854 649.64 37.2854Z" fill="#C93737"/>
<path d="M555.134 192.708C557.972 190.257 559.748 186.801 560.095 183.056C560.636 179.292 559.516 175.489 557.006 172.632C552.508 166.724 539.999 168.192 539.999 168.192C536.64 168.327 532.76 169.929 533.243 173.79C533.88 176.01 535.675 177.709 537.914 178.211C542.856 179.388 549.902 178.211 550.095 183.23C550.327 188.867 541.679 186.55 540.984 192.515C540.289 198.48 550.095 197.689 550.095 201.801C550.095 204.947 546.872 205.488 543.474 206.202C540.559 206.8 534.961 207.708 534.517 211.047C534.073 214.387 535.984 218.499 543.86 217.302C556.254 215.372 560.423 208.634 560.423 204.465C560.501 199.947 558.57 195.642 555.134 192.708Z" fill="#422B0D"/>
<path d="M512.702 141.751L512.413 141.384L511.641 140.4L510.656 139.338C510.27 138.913 509.807 138.45 509.343 137.987C508.861 137.523 508.359 137.079 507.818 136.674C507.336 136.307 506.834 135.979 506.293 135.69C505.927 135.477 505.521 135.323 505.096 135.246C504.961 135.226 504.845 135.226 504.71 135.246C504.71 135.246 504.71 135.246 504.556 135.246H504.903H503.9C503.649 135.246 503.9 135.246 503.9 135.246H504.035C504.189 135.246 504.035 135.246 504.035 135.246C503.957 135.226 503.9 135.226 503.822 135.246C503.398 135.323 502.992 135.477 502.625 135.69C502.085 135.979 501.583 136.307 501.1 136.674C500.598 137.06 500.077 137.523 499.575 137.987C498.629 138.913 497.799 139.917 497.22 140.516L496.294 141.616L495.869 142.099C493.243 145.014 488.842 145.477 485.657 143.199C483.63 141.79 482.587 139.338 482.973 136.886C482.973 136.886 483.109 136.153 483.456 134.956C483.997 133.103 484.769 131.327 485.734 129.667C487.24 126.925 489.286 124.512 491.738 122.582C493.417 121.308 495.27 120.285 497.259 119.57C497.799 119.358 498.378 119.184 498.938 119.049C499.575 118.856 500.212 118.721 500.869 118.624L501.988 118.47H502.915H503.919H505.347H506.274C506.872 118.47 507.49 118.624 508.089 118.721C509.266 118.933 510.405 119.242 511.525 119.648C513.513 120.362 515.366 121.385 517.046 122.659C519.536 124.551 521.64 126.925 523.185 129.647C523.745 130.593 524.247 131.597 524.652 132.62C525.019 133.47 525.289 134.377 525.521 135.052C525.752 135.728 525.733 136.056 525.81 136.385V136.829C526.331 140.554 523.725 144.01 520 144.531C519.922 144.55 519.845 144.55 519.787 144.55C517.104 144.956 514.382 143.894 512.702 141.751Z" fill="#422B0D"/>
<path d="M584.399 141.751L584.109 141.384L583.337 140.4L582.468 139.338C582.082 138.913 581.619 138.45 581.156 137.987C580.673 137.523 580.171 137.079 579.631 136.674C579.148 136.307 578.646 135.979 578.106 135.689C577.739 135.477 577.333 135.323 576.928 135.245C576.793 135.226 576.677 135.226 576.542 135.245C576.542 135.245 576.426 135.245 576.387 135.245H576.677H575.673C575.403 135.245 575.673 135.245 575.673 135.245H575.808C575.963 135.245 575.808 135.245 575.808 135.245H575.596C575.191 135.323 574.785 135.477 574.418 135.689C573.878 135.979 573.376 136.307 572.893 136.674C572.353 137.079 571.851 137.523 571.368 137.987C570.403 138.913 569.592 139.917 568.994 140.516L568.067 141.616L567.643 142.099C565.017 145.014 560.616 145.477 557.43 143.199C555.403 141.79 554.361 139.338 554.747 136.886C554.747 136.886 554.882 136.153 555.249 134.956C555.732 133.083 556.446 131.269 557.373 129.57C558.917 126.848 561.021 124.474 563.511 122.582C565.191 121.308 567.063 120.285 569.052 119.57C569.592 119.358 570.152 119.184 570.712 119.049C571.349 118.856 571.986 118.721 572.642 118.624L573.762 118.47H574.689H575.693H577.121H578.048C578.665 118.47 579.264 118.624 579.862 118.721C583.125 119.281 586.194 120.613 588.839 122.582C591.329 124.474 593.414 126.848 594.978 129.57C595.538 130.516 596.02 131.52 596.426 132.543C596.773 133.334 597.063 134.145 597.294 134.975C597.429 135.419 597.526 135.863 597.584 136.307V136.751C598.124 140.458 595.538 143.913 591.831 144.434C591.754 144.454 591.677 144.454 591.58 144.473C588.878 144.898 586.136 143.875 584.399 141.751Z" fill="#422B0D"/>
<g filter="url(#filter0_d_161_115)">
<path d="M392 339.156V356H383.875V310.25C389.292 310.021 392.458 309.906 393.375 309.906C400.604 309.906 405.885 311.021 409.219 313.25C412.573 315.458 414.25 318.917 414.25 323.625C414.25 334.125 408.062 339.375 395.688 339.375C394.771 339.375 393.542 339.302 392 339.156ZM392 317.281V331.938C393.375 332.083 394.458 332.156 395.25 332.156C398.958 332.156 401.667 331.542 403.375 330.312C405.083 329.062 405.938 327.042 405.938 324.25C405.938 319.5 402.115 317.125 394.469 317.125C393.615 317.125 392.792 317.177 392 317.281ZM443.406 356L440.062 346.719H424.375L421.188 356H412.156L430.406 309.594H433.969L452.375 356H443.406ZM432.188 323.594L426.688 340.5H437.688L432.188 323.594ZM483.062 356L470.844 337.094C469.615 337.073 467.896 337 465.688 336.875V356H457.25V310.219C457.708 310.219 459.469 310.146 462.531 310C465.594 309.833 468.062 309.75 469.938 309.75C481.562 309.75 487.375 314.25 487.375 323.25C487.375 325.958 486.573 328.427 484.969 330.656C483.365 332.885 481.344 334.458 478.906 335.375L492.438 356H483.062ZM465.688 317.281V330C467.188 330.125 468.333 330.188 469.125 330.188C472.521 330.188 475 329.708 476.562 328.75C478.146 327.792 478.938 325.927 478.938 323.156C478.938 320.906 478.094 319.333 476.406 318.438C474.719 317.542 472.062 317.094 468.438 317.094C467.562 317.094 466.646 317.156 465.688 317.281ZM523.094 356L519.75 346.719H504.062L500.875 356H491.844L510.094 309.594H513.656L532.062 356H523.094ZM511.875 323.594L506.375 340.5H517.375L511.875 323.594ZM550.938 356H536.938V310.25C543.104 309.958 547.427 309.812 549.906 309.812C554.656 309.812 558.365 310.833 561.031 312.875C563.719 314.896 565.062 317.792 565.062 321.562C565.062 325.188 563.146 328.052 559.312 330.156C565 332.135 567.844 336.219 567.844 342.406C567.844 346.573 566.271 349.885 563.125 352.344C559.979 354.781 555.917 356 550.938 356ZM545.062 316.75V327.719C546.312 327.802 547.625 327.844 549 327.844C554.292 327.844 556.938 325.854 556.938 321.875C556.938 318.354 554.531 316.594 549.719 316.594C548.448 316.594 546.896 316.646 545.062 316.75ZM545.062 334.062V349.188C546.708 349.333 548.042 349.406 549.062 349.406C552.688 349.406 555.312 348.792 556.938 347.562C558.583 346.333 559.406 344.292 559.406 341.438C559.406 338.833 558.646 336.938 557.125 335.75C555.604 334.562 552.948 333.969 549.156 333.969C548.365 333.969 547 334 545.062 334.062ZM583.188 317.438V328.156H598.312V335.062H583.188V348.781H603.938V356H575.062V310.219H604.281V317.438H583.188ZM597.781 297.312L590.719 306.469H584.781L590.062 297.312H597.781ZM641.531 356.625L619.312 327.656V356.031H611.5V310.219H615.406L637.031 337.844V310.219H644.844V356.625H641.531ZM652.062 353.469L655.062 346.188C658.271 348.438 661.427 349.562 664.531 349.562C669.302 349.562 671.688 347.896 671.688 344.562C671.688 343 671.125 341.51 670 340.094C668.875 338.677 666.552 337.094 663.031 335.344C659.531 333.573 657.167 332.125 655.938 331C654.729 329.854 653.792 328.5 653.125 326.938C652.479 325.375 652.156 323.646 652.156 321.75C652.156 318.208 653.448 315.271 656.031 312.938C658.635 310.604 661.969 309.438 666.031 309.438C671.323 309.438 675.208 310.427 677.688 312.406L675.219 319.406C672.365 317.365 669.354 316.344 666.188 316.344C664.312 316.344 662.854 316.844 661.812 317.844C660.792 318.823 660.281 320.104 660.281 321.688C660.281 324.312 663.188 327.042 669 329.875C672.062 331.375 674.271 332.76 675.625 334.031C676.979 335.281 678.01 336.75 678.719 338.438C679.427 340.104 679.781 341.969 679.781 344.031C679.781 347.74 678.312 350.792 675.375 353.188C672.458 355.583 668.542 356.781 663.625 356.781C659.354 356.781 655.5 355.677 652.062 353.469ZM695.625 344.062H692.375C690.75 333.646 689.938 326.365 689.938 322.219V309.406H698.062V322.188C698.062 326.354 697.25 333.646 695.625 344.062ZM694.25 346.375C695.667 346.375 696.865 346.875 697.844 347.875C698.844 348.875 699.344 350.083 699.344 351.5C699.344 352.917 698.844 354.125 697.844 355.125C696.865 356.125 695.667 356.625 694.25 356.625C692.833 356.625 691.625 356.125 690.625 355.125C689.625 354.125 689.125 352.917 689.125 351.5C689.125 350.083 689.625 348.875 690.625 347.875C691.625 346.875 692.833 346.375 694.25 346.375ZM95.9688 430.625H91.5L74.375 384.219H83.3125L93.9062 415.156L105.094 384.219H113.844L95.9688 430.625ZM116.531 406.719C116.531 400.198 118.312 394.688 121.875 390.188C125.458 385.667 130.24 383.406 136.219 383.406C142.802 383.406 147.833 385.448 151.312 389.531C154.792 393.615 156.531 399.344 156.531 406.719C156.531 414.094 154.708 419.948 151.062 424.281C147.438 428.615 142.281 430.781 135.594 430.781C129.448 430.781 124.729 428.635 121.438 424.344C118.167 420.052 116.531 414.177 116.531 406.719ZM124.969 406.719C124.969 412.073 125.875 416.219 127.688 419.156C129.5 422.094 132.135 423.562 135.594 423.562C139.656 423.562 142.75 422.125 144.875 419.25C147.021 416.375 148.094 412.198 148.094 406.719C148.094 395.99 144.135 390.625 136.219 390.625C132.594 390.625 129.812 392.083 127.875 395C125.938 397.896 124.969 401.802 124.969 406.719ZM195.094 386.656L191.75 393.375C189.938 391.562 187.021 390.656 183 390.656C179.188 390.656 176.062 392.26 173.625 395.469C171.188 398.656 169.969 402.698 169.969 407.594C169.969 412.49 171.094 416.375 173.344 419.25C175.615 422.125 178.635 423.562 182.406 423.562C186.719 423.562 190.094 422.021 192.531 418.938L196.312 425.5C193 429.021 188.146 430.781 181.75 430.781C175.354 430.781 170.385 428.677 166.844 424.469C163.302 420.26 161.531 414.521 161.531 407.25C161.531 400.479 163.49 394.823 167.406 390.281C171.344 385.719 176.375 383.438 182.5 383.438C187.75 383.438 191.948 384.51 195.094 386.656ZM211.031 391.438V402.156H226.156V409.062H211.031V422.781H231.781V430H202.906V384.219H232.125V391.438H211.031ZM222.094 380.469L217.188 375.812L212.844 380.469H204.5L215.594 370.625H218.938L230.438 380.469H222.094ZM290.031 386.656L286.688 393.375C284.875 391.562 281.958 390.656 277.938 390.656C274.125 390.656 271 392.26 268.562 395.469C266.125 398.656 264.906 402.698 264.906 407.594C264.906 412.49 266.031 416.375 268.281 419.25C270.552 422.125 273.573 423.562 277.344 423.562C281.656 423.562 285.031 422.021 287.469 418.938L291.25 425.5C287.938 429.021 283.083 430.781 276.688 430.781C270.292 430.781 265.323 428.677 261.781 424.469C258.24 420.26 256.469 414.521 256.469 407.25C256.469 400.479 258.427 394.823 262.344 390.281C266.281 385.719 271.312 383.438 277.438 383.438C282.688 383.438 286.885 384.51 290.031 386.656ZM295.656 406.719C295.656 400.198 297.438 394.688 301 390.188C304.583 385.667 309.365 383.406 315.344 383.406C321.927 383.406 326.958 385.448 330.438 389.531C333.917 393.615 335.656 399.344 335.656 406.719C335.656 414.094 333.833 419.948 330.188 424.281C326.562 428.615 321.406 430.781 314.719 430.781C308.573 430.781 303.854 428.635 300.562 424.344C297.292 420.052 295.656 414.177 295.656 406.719ZM304.094 406.719C304.094 412.073 305 416.219 306.812 419.156C308.625 422.094 311.26 423.562 314.719 423.562C318.781 423.562 321.875 422.125 324 419.25C326.146 416.375 327.219 412.198 327.219 406.719C327.219 395.99 323.26 390.625 315.344 390.625C311.719 390.625 308.938 392.083 307 395C305.062 397.896 304.094 401.802 304.094 406.719ZM385.531 430.031H377.656L372.906 405.344L363.688 430.625H360.781L351.562 405.344L346.625 430.031H338.781L348 384.219H352.312L362.219 415.062L371.906 384.219H376.188L385.531 430.031ZM398.656 413.156V430H390.531V384.25C395.948 384.021 399.115 383.906 400.031 383.906C407.26 383.906 412.542 385.021 415.875 387.25C419.229 389.458 420.906 392.917 420.906 397.625C420.906 408.125 414.719 413.375 402.344 413.375C401.427 413.375 400.198 413.302 398.656 413.156ZM398.656 391.281V405.938C400.031 406.083 401.115 406.156 401.906 406.156C405.615 406.156 408.323 405.542 410.031 404.312C411.74 403.062 412.594 401.042 412.594 398.25C412.594 393.5 408.771 391.125 401.125 391.125C400.271 391.125 399.448 391.177 398.656 391.281ZM428.094 430V384.219H436.219V422.781H456.906V430H428.094ZM471.594 391.438V402.156H486.719V409.062H471.594V422.781H492.344V430H463.469V384.219H492.688V391.438H471.594ZM518.531 391.438V430H510.406V391.438H495.844V384.219H533.75V391.438H518.531ZM533.094 406.719C533.094 400.198 534.875 394.688 538.438 390.188C542.021 385.667 546.802 383.406 552.781 383.406C559.365 383.406 564.396 385.448 567.875 389.531C571.354 393.615 573.094 399.344 573.094 406.719C573.094 414.094 571.271 419.948 567.625 424.281C564 428.615 558.844 430.781 552.156 430.781C546.01 430.781 541.292 428.635 538 424.344C534.729 420.052 533.094 414.177 533.094 406.719ZM541.531 406.719C541.531 412.073 542.438 416.219 544.25 419.156C546.062 422.094 548.698 423.562 552.156 423.562C556.219 423.562 559.312 422.125 561.438 419.25C563.583 416.375 564.656 412.198 564.656 406.719C564.656 395.99 560.698 390.625 552.781 390.625C549.156 390.625 546.375 392.083 544.438 395C542.5 397.896 541.531 401.802 541.531 406.719ZM580.281 384.219H588.406V415.25C588.406 417.708 589.156 419.708 590.656 421.25C592.156 422.792 594.219 423.562 596.844 423.562C599.781 423.562 602.062 422.812 603.688 421.312C605.333 419.792 606.156 417.719 606.156 415.094V384.219H614.281V415.719C614.281 420.427 612.698 424.115 609.531 426.781C606.385 429.448 602.177 430.781 596.906 430.781C591.594 430.781 587.49 429.479 584.594 426.875C581.719 424.271 580.281 420.542 580.281 415.688V384.219ZM640.781 427.469L643.781 420.188C646.99 422.438 650.146 423.562 653.25 423.562C658.021 423.562 660.406 421.896 660.406 418.562C660.406 417 659.844 415.51 658.719 414.094C657.594 412.677 655.271 411.094 651.75 409.344C648.25 407.573 645.885 406.125 644.656 405C643.448 403.854 642.51 402.5 641.844 400.938C641.198 399.375 640.875 397.646 640.875 395.75C640.875 392.208 642.167 389.271 644.75 386.938C647.354 384.604 650.688 383.438 654.75 383.438C660.042 383.438 663.927 384.427 666.406 386.406L663.938 393.406C661.083 391.365 658.073 390.344 654.906 390.344C653.031 390.344 651.573 390.844 650.531 391.844C649.51 392.823 649 394.104 649 395.688C649 398.312 651.906 401.042 657.719 403.875C660.781 405.375 662.99 406.76 664.344 408.031C665.698 409.281 666.729 410.75 667.438 412.438C668.146 414.104 668.5 415.969 668.5 418.031C668.5 421.74 667.031 424.792 664.094 427.188C661.177 429.583 657.26 430.781 652.344 430.781C648.073 430.781 644.219 429.677 640.781 427.469ZM675.719 384.219H683.844V415.25C683.844 417.708 684.594 419.708 686.094 421.25C687.594 422.792 689.656 423.562 692.281 423.562C695.219 423.562 697.5 422.812 699.125 421.312C700.771 419.792 701.594 417.719 701.594 415.094V384.219H709.719V415.719C709.719 420.427 708.135 424.115 704.969 426.781C701.823 429.448 697.615 430.781 692.344 430.781C687.031 430.781 682.927 429.479 680.031 426.875C677.156 424.271 675.719 420.542 675.719 415.688V384.219ZM745.812 430L742.469 420.719H726.781L723.594 430H714.562L732.812 383.594H736.375L754.781 430H745.812ZM734.594 397.594L729.094 414.5H740.094L734.594 397.594ZM818.094 430.031H810.219L805.469 405.344L796.25 430.625H793.344L784.125 405.344L779.188 430.031H771.344L780.562 384.219H784.875L794.781 415.062L804.469 384.219H808.75L818.094 430.031ZM823.25 430V384.219H831.375V430H823.25ZM838.719 427.469L841.719 420.188C844.927 422.438 848.083 423.562 851.188 423.562C855.958 423.562 858.344 421.896 858.344 418.562C858.344 417 857.781 415.51 856.656 414.094C855.531 412.677 853.208 411.094 849.688 409.344C846.188 407.573 843.823 406.125 842.594 405C841.385 403.854 840.448 402.5 839.781 400.938C839.135 399.375 838.812 397.646 838.812 395.75C838.812 392.208 840.104 389.271 842.688 386.938C845.292 384.604 848.625 383.438 852.688 383.438C857.979 383.438 861.865 384.427 864.344 386.406L861.875 393.406C859.021 391.365 856.01 390.344 852.844 390.344C850.969 390.344 849.51 390.844 848.469 391.844C847.448 392.823 846.938 394.104 846.938 395.688C846.938 398.312 849.844 401.042 855.656 403.875C858.719 405.375 860.927 406.76 862.281 408.031C863.635 409.281 864.667 410.75 865.375 412.438C866.083 414.104 866.438 415.969 866.438 418.031C866.438 421.74 864.969 424.792 862.031 427.188C859.115 429.583 855.198 430.781 850.281 430.781C846.01 430.781 842.156 429.677 838.719 427.469ZM871.469 427.469L874.469 420.188C877.677 422.438 880.833 423.562 883.938 423.562C888.708 423.562 891.094 421.896 891.094 418.562C891.094 417 890.531 415.51 889.406 414.094C888.281 412.677 885.958 411.094 882.438 409.344C878.938 407.573 876.573 406.125 875.344 405C874.135 403.854 873.198 402.5 872.531 400.938C871.885 399.375 871.562 397.646 871.562 395.75C871.562 392.208 872.854 389.271 875.438 386.938C878.042 384.604 881.375 383.438 885.438 383.438C890.729 383.438 894.615 384.427 897.094 386.406L894.625 393.406C891.771 391.365 888.76 390.344 885.594 390.344C883.719 390.344 882.26 390.844 881.219 391.844C880.198 392.823 879.688 394.104 879.688 395.688C879.688 398.312 882.594 401.042 888.406 403.875C891.469 405.375 893.677 406.76 895.031 408.031C896.385 409.281 897.417 410.75 898.125 412.438C898.833 414.104 899.188 415.969 899.188 418.031C899.188 421.74 897.719 424.792 894.781 427.188C891.865 429.583 887.948 430.781 883.031 430.781C878.76 430.781 874.906 429.677 871.469 427.469ZM933.125 430L929.781 420.719H914.094L910.906 430H901.875L920.125 383.594H923.688L942.094 430H933.125ZM921.906 397.594L916.406 414.5H927.406L921.906 397.594ZM915.969 381.406H911.438C911.833 379.031 912.625 377.104 913.812 375.625C915.021 374.125 916.51 373.375 918.281 373.375C919.906 373.375 921.531 373.781 923.156 374.594C924.781 375.385 925.823 375.781 926.281 375.781C927.552 375.781 928.458 374.979 929 373.375H933.625C932.833 376.479 931.865 378.594 930.719 379.719C929.573 380.844 928.135 381.406 926.406 381.406C925.115 381.406 923.635 381.01 921.969 380.219C920.323 379.406 919.25 379 918.75 379C917.667 379 916.74 379.802 915.969 381.406ZM944.781 406.719C944.781 400.198 946.562 394.688 950.125 390.188C953.708 385.667 958.49 383.406 964.469 383.406C971.052 383.406 976.083 385.448 979.562 389.531C983.042 393.615 984.781 399.344 984.781 406.719C984.781 414.094 982.958 419.948 979.312 424.281C975.688 428.615 970.531 430.781 963.844 430.781C957.698 430.781 952.979 428.635 949.688 424.344C946.417 420.052 944.781 414.177 944.781 406.719ZM953.219 406.719C953.219 412.073 954.125 416.219 955.938 419.156C957.75 422.094 960.385 423.562 963.844 423.562C967.906 423.562 971 422.125 973.125 419.25C975.271 416.375 976.344 412.198 976.344 406.719C976.344 395.99 972.385 390.625 964.469 390.625C960.844 390.625 958.062 392.083 956.125 395C954.188 397.896 953.219 401.802 953.219 406.719ZM1000.59 418.062H997.344C995.719 407.646 994.906 400.365 994.906 396.219V383.406H1003.03V396.188C1003.03 400.354 1002.22 407.646 1000.59 418.062ZM999.219 420.375C1000.64 420.375 1001.83 420.875 1002.81 421.875C1003.81 422.875 1004.31 424.083 1004.31 425.5C1004.31 426.917 1003.81 428.125 1002.81 429.125C1001.83 430.125 1000.64 430.625 999.219 430.625C997.802 430.625 996.594 430.125 995.594 429.125C994.594 428.125 994.094 426.917 994.094 425.5C994.094 424.083 994.594 422.875 995.594 421.875C996.594 420.875 997.802 420.375 999.219 420.375Z" fill="#F9BB00"/>
</g>
<defs>
<filter id="filter0_d_161_115" x="70.375" y="297.312" width="937.938" height="141.469" filterUnits="userSpaceOnUse" color-interpolation-filters="sRGB">
<feFlood flood-opacity="0" result="BackgroundImageFix"/>
<feColorMatrix in="SourceAlpha" type="matrix" values="0 0 0 0 0 0 0 0 0 0 0 0 0 0 0 0 0 0 127 0" result="hardAlpha"/>
<feOffset dy="4"/>
<feGaussianBlur stdDeviation="2"/>
<feComposite in2="hardAlpha" operator="out"/>
<feColorMatrix type="matrix" values="0 0 0 0 0 0 0 0 0 0 0 0 0 0 0 0 0 0 0.25 0"/>
<feBlend mode="normal" in2="BackgroundImageFix" result="effect1_dropShadow_161_115"/>
<feBlend mode="normal" in="SourceGraphic" in2="effect1_dropShadow_161_115" result="shape"/>
</filter>
<radialGradient id="paint0_radial_161_115" cx="0" cy="0" r="1" gradientUnits="userSpaceOnUse" gradientTransform="translate(539.207 160.395) scale(97.7942 97.7938)">
<stop offset="0.5" stop-color="#FDE030"/>
<stop offset="0.92" stop-color="#F7C02B"/>
<stop offset="1" stop-color="#F4A223"/>
</radialGradient>
<radialGradient id="paint1_radial_161_115" cx="0" cy="0" r="1" gradientUnits="userSpaceOnUse" gradientTransform="translate(481.697 160.488) scale(36.7708 33.0186)">
<stop stop-color="#ED7770"/>
<stop offset="0.9" stop-color="#ED7770" stop-opacity="0"/>
</radialGradient>
<radialGradient id="paint2_radial_161_115" cx="0" cy="0" r="1" gradientUnits="userSpaceOnUse" gradientTransform="translate(660.688 2279.09) scale(37.5087 37.5085)">
<stop stop-color="#ED7770"/>
<stop offset="0.9" stop-color="#ED7770" stop-opacity="0"/>
</radialGradient>
<linearGradient id="paint3_linear_161_115" x1="575.107" y1="175.138" x2="646.9" y2="175.138" gradientUnits="userSpaceOnUse">
<stop stop-color="#004054"/>
<stop offset="0.99" stop-color="#45A4FF"/>
</linearGradient>
</defs>
</svg>
