<svg width="1058" height="472" viewBox="0 0 1058 472" fill="none" xmlns="http://www.w3.org/2000/svg">
<g filter="url(#filter0_d_124_57)">
<path d="M381.086 361L387.485 322.455H402.692C405.603 322.455 407.993 323.013 409.863 324.13C411.745 325.234 413.063 326.771 413.815 328.741C414.581 330.698 414.756 332.957 414.342 335.516C413.916 338.089 412.987 340.353 411.557 342.311C410.139 344.256 408.295 345.774 406.023 346.865C403.752 347.957 401.13 348.503 398.156 348.503H388.463L389.536 341.972H397.912C399.493 341.972 400.841 341.702 401.958 341.163C403.087 340.611 403.984 339.851 404.65 338.885C405.315 337.907 405.747 336.784 405.948 335.516C406.161 334.224 406.092 333.101 405.741 332.147C405.39 331.194 404.744 330.453 403.803 329.926C402.874 329.387 401.626 329.117 400.057 329.117H394.561L389.235 361H381.086ZM417.594 361H408.861L428.566 322.455H439.068L445.957 361H437.224L432.538 331.263H432.236L417.594 361ZM419.589 345.849H440.217L439.125 352.211H418.497L419.589 345.849ZM450.596 361L456.995 322.455H472.203C475.114 322.455 477.51 322.969 479.392 323.998C481.287 325.027 482.617 326.489 483.383 328.383C484.16 330.265 484.342 332.486 483.928 335.046C483.502 337.605 482.58 339.801 481.162 341.633C479.756 343.465 477.924 344.877 475.666 345.868C473.42 346.847 470.816 347.336 467.855 347.336H457.673L458.802 340.786H467.648C469.204 340.786 470.534 340.573 471.638 340.146C472.742 339.72 473.614 339.08 474.254 338.227C474.907 337.373 475.333 336.313 475.534 335.046C475.747 333.753 475.672 332.674 475.308 331.809C474.944 330.93 474.286 330.265 473.332 329.814C472.379 329.349 471.124 329.117 469.568 329.117H464.072L458.746 361H450.596ZM474.311 343.459L480.992 361H471.996L465.521 343.459H474.311ZM492.332 361H483.599L503.305 322.455H513.807L520.695 361H511.962L507.276 331.263H506.975L492.332 361ZM494.327 345.849H514.955L513.863 352.211H493.235L494.327 345.849ZM525.335 361L531.734 322.455H547.167C550.003 322.455 552.299 322.875 554.055 323.716C555.825 324.556 557.061 325.723 557.763 327.216C558.466 328.697 558.654 330.403 558.328 332.336C558.064 333.841 557.531 335.159 556.728 336.288C555.938 337.417 554.959 338.346 553.792 339.074C552.625 339.801 551.358 340.316 549.99 340.617L549.915 340.993C551.37 341.056 552.682 341.47 553.848 342.235C555.015 342.988 555.887 344.055 556.465 345.435C557.042 346.815 557.174 348.453 556.86 350.347C556.521 352.393 555.712 354.218 554.432 355.824C553.152 357.418 551.446 358.679 549.313 359.607C547.192 360.536 544.689 361 541.803 361H525.335ZM534.613 354.337H541.257C543.516 354.337 545.241 353.898 546.433 353.02C547.625 352.142 548.34 350.981 548.579 349.538C548.742 348.471 548.635 347.53 548.259 346.715C547.895 345.899 547.274 345.259 546.395 344.795C545.53 344.331 544.432 344.099 543.102 344.099H536.288L534.613 354.337ZM537.229 338.584H543.271C544.375 338.584 545.398 338.39 546.339 338.001C547.292 337.599 548.077 337.035 548.691 336.307C549.319 335.567 549.714 334.694 549.877 333.691C550.103 332.285 549.789 331.162 548.936 330.322C548.095 329.469 546.778 329.042 544.984 329.042H538.81L537.229 338.584ZM560.375 361L566.774 322.455H592.747L591.618 329.174H573.794L572.288 338.358H588.776L587.646 345.077H571.159L569.653 354.281H587.552L586.423 361H560.375ZM577.558 318.728L582.998 310.164H590.413L583.242 318.728H577.558ZM631.466 322.455L625.067 361H618.028L605.324 336.74H605.023L600.976 361H592.827L599.226 322.455H606.378L619.026 346.696H619.346L623.354 322.455H631.466ZM657.228 333.653C657.29 332.085 656.832 330.874 655.854 330.021C654.888 329.167 653.426 328.741 651.468 328.741C650.138 328.741 648.984 328.929 648.005 329.305C647.027 329.669 646.242 330.177 645.653 330.83C645.076 331.47 644.718 332.21 644.58 333.051C644.442 333.741 644.486 334.343 644.712 334.858C644.95 335.372 645.32 335.817 645.822 336.194C646.337 336.558 646.945 336.878 647.648 337.154C648.35 337.417 649.097 337.643 649.887 337.831L653.2 338.659C654.819 339.036 656.274 339.538 657.566 340.165C658.871 340.792 659.963 341.564 660.841 342.48C661.732 343.396 662.359 344.475 662.723 345.717C663.087 346.96 663.137 348.384 662.874 349.99C662.472 352.349 661.538 354.394 660.07 356.125C658.602 357.844 656.676 359.181 654.292 360.134C651.908 361.075 649.147 361.546 646.01 361.546C642.899 361.546 640.27 361.069 638.124 360.115C635.979 359.162 634.417 357.75 633.438 355.881C632.472 353.999 632.183 351.671 632.572 348.898H640.458C640.32 350.19 640.508 351.27 641.023 352.135C641.55 352.989 642.334 353.635 643.375 354.074C644.417 354.5 645.64 354.714 647.045 354.714C648.438 354.714 649.674 354.513 650.753 354.112C651.845 353.71 652.729 353.152 653.407 352.436C654.085 351.721 654.499 350.899 654.649 349.971C654.8 349.105 654.668 348.377 654.254 347.788C653.84 347.198 653.175 346.696 652.259 346.282C651.355 345.855 650.232 345.479 648.89 345.153L644.862 344.099C641.75 343.308 639.398 342.072 637.804 340.391C636.211 338.71 635.64 336.445 636.092 333.597C636.493 331.263 637.466 329.224 639.009 327.48C640.565 325.723 642.522 324.362 644.881 323.396C647.252 322.417 649.844 321.928 652.654 321.928C655.515 321.928 657.93 322.423 659.9 323.414C661.87 324.393 663.307 325.761 664.21 327.517C665.114 329.274 665.39 331.319 665.038 333.653H657.228ZM108.357 386.455L112.837 415.74H113.194L127.366 386.455H136.401L116.714 425H106.212L99.3043 386.455H108.357ZM171.012 406.254C170.31 410.37 168.948 413.864 166.928 416.738C164.921 419.611 162.468 421.794 159.569 423.287C156.683 424.78 153.572 425.527 150.234 425.527C146.733 425.527 143.716 424.73 141.181 423.137C138.659 421.543 136.833 419.241 135.704 416.229C134.575 413.205 134.362 409.56 135.064 405.294C135.742 401.166 137.091 397.666 139.111 394.792C141.131 391.906 143.596 389.711 146.507 388.205C149.418 386.687 152.549 385.928 155.899 385.928C159.375 385.928 162.374 386.731 164.896 388.337C167.43 389.943 169.256 392.264 170.372 395.3C171.502 398.324 171.715 401.976 171.012 406.254ZM162.901 405.294C163.34 402.647 163.321 400.426 162.844 398.632C162.38 396.825 161.527 395.457 160.284 394.529C159.042 393.6 157.474 393.136 155.579 393.136C153.521 393.136 151.633 393.65 149.914 394.679C148.208 395.708 146.765 397.201 145.585 399.159C144.418 401.104 143.609 403.469 143.157 406.254C142.706 408.914 142.718 411.135 143.195 412.917C143.684 414.699 144.556 416.047 145.811 416.963C147.078 417.867 148.653 418.319 150.535 418.319C152.58 418.319 154.45 417.817 156.144 416.813C157.85 415.797 159.287 414.322 160.454 412.39C161.621 410.445 162.436 408.08 162.901 405.294ZM212.056 399.949H203.926C203.951 398.87 203.813 397.917 203.512 397.088C203.21 396.248 202.759 395.533 202.156 394.943C201.567 394.353 200.845 393.908 199.992 393.607C199.139 393.293 198.179 393.136 197.112 393.136C195.055 393.136 193.166 393.65 191.447 394.679C189.728 395.708 188.279 397.201 187.1 399.159C185.92 401.104 185.105 403.456 184.653 406.217C184.214 408.877 184.239 411.104 184.728 412.898C185.218 414.692 186.083 416.047 187.326 416.963C188.58 417.867 190.142 418.319 192.012 418.319C193.166 418.319 194.264 418.174 195.306 417.886C196.347 417.585 197.294 417.158 198.148 416.606C199.013 416.041 199.766 415.357 200.406 414.554C201.059 413.751 201.567 412.842 201.931 411.825H210.118C209.603 413.594 208.8 415.301 207.709 416.945C206.63 418.588 205.293 420.056 203.7 421.349C202.106 422.629 200.293 423.645 198.261 424.398C196.228 425.151 194.001 425.527 191.579 425.527C188.078 425.527 185.073 424.724 182.564 423.118C180.067 421.512 178.266 419.197 177.162 416.173C176.058 413.149 175.851 409.504 176.541 405.238C177.231 401.11 178.58 397.609 180.588 394.736C182.608 391.85 185.061 389.66 187.947 388.167C190.845 386.674 193.944 385.928 197.244 385.928C199.54 385.928 201.617 386.241 203.474 386.869C205.331 387.496 206.912 388.412 208.217 389.616C209.534 390.808 210.526 392.27 211.191 394.002C211.856 395.733 212.144 397.716 212.056 399.949ZM213.778 425L220.178 386.455H246.151L245.021 393.174H227.198L225.692 402.358H242.179L241.05 409.077H224.563L223.057 418.281H240.956L239.827 425H213.778ZM237.606 382.991L234.576 378.399L230.04 382.991H223.208L223.245 382.728L232.223 374.447H238.189L244.476 382.728L244.438 382.991H237.606ZM296.629 399.949H288.498C288.523 398.87 288.385 397.917 288.084 397.088C287.783 396.248 287.331 395.533 286.729 394.943C286.139 394.353 285.418 393.908 284.564 393.607C283.711 393.293 282.751 393.136 281.685 393.136C279.627 393.136 277.739 393.65 276.02 394.679C274.301 395.708 272.851 397.201 271.672 399.159C270.492 401.104 269.677 403.456 269.225 406.217C268.786 408.877 268.811 411.104 269.3 412.898C269.79 414.692 270.656 416.047 271.898 416.963C273.153 417.867 274.715 418.319 276.584 418.319C277.739 418.319 278.836 418.174 279.878 417.886C280.919 417.585 281.867 417.158 282.72 416.606C283.586 416.041 284.338 415.357 284.978 414.554C285.631 413.751 286.139 412.842 286.503 411.825H294.69C294.176 413.594 293.373 415.301 292.281 416.945C291.202 418.588 289.866 420.056 288.272 421.349C286.679 422.629 284.865 423.645 282.833 424.398C280.8 425.151 278.573 425.527 276.151 425.527C272.651 425.527 269.646 424.724 267.136 423.118C264.639 421.512 262.839 419.197 261.734 416.173C260.63 413.149 260.423 409.504 261.113 405.238C261.803 401.11 263.152 397.609 265.16 394.736C267.18 391.85 269.633 389.66 272.519 388.167C275.417 386.674 278.516 385.928 281.816 385.928C284.113 385.928 286.189 386.241 288.046 386.869C289.903 387.496 291.484 388.412 292.789 389.616C294.107 390.808 295.098 392.27 295.763 394.002C296.428 395.733 296.716 397.716 296.629 399.949ZM336.896 406.254C336.194 410.37 334.832 413.864 332.812 416.738C330.804 419.611 328.351 421.794 325.453 423.287C322.567 424.78 319.455 425.527 316.118 425.527C312.617 425.527 309.599 424.73 307.065 423.137C304.543 421.543 302.717 419.241 301.588 416.229C300.459 413.205 300.245 409.56 300.948 405.294C301.626 401.166 302.974 397.666 304.995 394.792C307.015 391.906 309.48 389.711 312.391 388.205C315.302 386.687 318.433 385.928 321.783 385.928C325.259 385.928 328.257 386.731 330.779 388.337C333.314 389.943 335.14 392.264 336.256 395.3C337.386 398.324 337.599 401.976 336.896 406.254ZM328.784 405.294C329.223 402.647 329.205 400.426 328.728 398.632C328.264 396.825 327.41 395.457 326.168 394.529C324.926 393.6 323.358 393.136 321.463 393.136C319.405 393.136 317.517 393.65 315.798 394.679C314.091 395.708 312.648 397.201 311.469 399.159C310.302 401.104 309.493 403.469 309.041 406.254C308.589 408.914 308.602 411.135 309.079 412.917C309.568 414.699 310.44 416.047 311.695 416.963C312.962 417.867 314.537 418.319 316.419 418.319C318.464 418.319 320.334 417.817 322.028 416.813C323.734 415.797 325.171 414.322 326.338 412.39C327.504 410.445 328.32 408.08 328.784 405.294ZM346.208 386.455H356.258L362.601 412.352H363.053L377.94 386.455H387.991L381.591 425H373.687L377.865 399.912H377.526L363.448 424.812H358.046L352.249 399.817H351.929L347.714 425H339.809L346.208 386.455ZM388.306 425L394.705 386.455H409.912C412.823 386.455 415.214 387.013 417.083 388.13C418.965 389.234 420.283 390.771 421.036 392.741C421.801 394.698 421.977 396.957 421.563 399.516C421.136 402.089 420.207 404.353 418.777 406.311C417.359 408.256 415.515 409.774 413.244 410.865C410.973 411.957 408.35 412.503 405.376 412.503H395.684L396.756 405.972H405.132C406.713 405.972 408.062 405.702 409.178 405.163C410.308 404.611 411.205 403.851 411.87 402.885C412.535 401.907 412.968 400.784 413.168 399.516C413.382 398.224 413.313 397.101 412.961 396.147C412.61 395.194 411.964 394.453 411.023 393.926C410.094 393.387 408.846 393.117 407.277 393.117H401.782L396.455 425H388.306ZM422.621 425L429.02 386.455H437.17L431.9 418.281H448.425L447.296 425H422.621ZM452.693 425L459.092 386.455H485.065L483.935 393.174H466.112L464.606 402.358H481.093L479.964 409.077H463.477L461.971 418.281H479.87L478.741 425H452.693ZM488.947 393.174L490.076 386.455H521.733L520.603 393.174H508.803L503.533 425H495.477L500.747 393.174H488.947ZM557.333 406.254C556.63 410.37 555.269 413.864 553.249 416.738C551.241 419.611 548.788 421.794 545.89 423.287C543.004 424.78 539.892 425.527 536.554 425.527C533.054 425.527 530.036 424.73 527.501 423.137C524.979 421.543 523.154 419.241 522.024 416.229C520.895 413.205 520.682 409.56 521.385 405.294C522.062 401.166 523.411 397.666 525.431 394.792C527.451 391.906 529.917 389.711 532.828 388.205C535.739 386.687 538.869 385.928 542.219 385.928C545.695 385.928 548.694 386.731 551.216 388.337C553.75 389.943 555.576 392.264 556.693 395.3C557.822 398.324 558.035 401.976 557.333 406.254ZM549.221 405.294C549.66 402.647 549.641 400.426 549.164 398.632C548.7 396.825 547.847 395.457 546.605 394.529C545.363 393.6 543.794 393.136 541.899 393.136C539.842 393.136 537.953 393.65 536.234 394.679C534.528 395.708 533.085 397.201 531.905 399.159C530.739 401.104 529.929 403.469 529.478 406.254C529.026 408.914 529.038 411.135 529.515 412.917C530.005 414.699 530.877 416.047 532.131 416.963C533.399 417.867 534.973 418.319 536.855 418.319C538.901 418.319 540.77 417.817 542.464 416.813C544.171 415.797 545.607 414.322 546.774 412.39C547.941 410.445 548.757 408.08 549.221 405.294ZM590.453 386.455H598.602L594.462 411.487C593.998 414.297 592.925 416.756 591.243 418.864C589.562 420.972 587.423 422.616 584.826 423.795C582.228 424.962 579.33 425.546 576.13 425.546C572.931 425.546 570.233 424.962 568.037 423.795C565.841 422.616 564.254 420.972 563.275 418.864C562.297 416.756 562.04 414.297 562.504 411.487L566.644 386.455H574.794L570.747 410.79C570.522 412.258 570.634 413.563 571.086 414.705C571.55 415.847 572.316 416.744 573.382 417.396C574.449 418.049 575.766 418.375 577.335 418.375C578.916 418.375 580.346 418.049 581.626 417.396C582.918 416.744 583.979 415.847 584.807 414.705C585.647 413.563 586.181 412.258 586.406 410.79L590.453 386.455ZM636.602 397.653C636.665 396.085 636.207 394.874 635.228 394.021C634.262 393.167 632.8 392.741 630.843 392.741C629.513 392.741 628.359 392.929 627.38 393.305C626.401 393.669 625.617 394.177 625.027 394.83C624.45 395.47 624.092 396.21 623.954 397.051C623.816 397.741 623.86 398.343 624.086 398.858C624.325 399.372 624.695 399.817 625.197 400.194C625.711 400.558 626.32 400.878 627.022 401.154C627.725 401.417 628.471 401.643 629.262 401.831L632.574 402.659C634.193 403.036 635.649 403.538 636.941 404.165C638.246 404.792 639.337 405.564 640.216 406.48C641.107 407.396 641.734 408.475 642.098 409.717C642.462 410.96 642.512 412.384 642.248 413.99C641.847 416.349 640.912 418.394 639.444 420.125C637.976 421.844 636.05 423.181 633.666 424.134C631.282 425.075 628.522 425.546 625.385 425.546C622.273 425.546 619.644 425.069 617.499 424.115C615.353 423.162 613.791 421.75 612.812 419.881C611.846 417.999 611.558 415.671 611.947 412.898H619.833C619.695 414.19 619.883 415.27 620.397 416.135C620.924 416.989 621.708 417.635 622.75 418.074C623.791 418.5 625.015 418.714 626.42 418.714C627.813 418.714 629.049 418.513 630.128 418.112C631.219 417.71 632.104 417.152 632.781 416.436C633.459 415.721 633.873 414.899 634.024 413.971C634.174 413.105 634.042 412.377 633.628 411.788C633.214 411.198 632.549 410.696 631.633 410.282C630.73 409.855 629.607 409.479 628.264 409.153L624.237 408.099C621.125 407.308 618.772 406.072 617.179 404.391C615.585 402.71 615.014 400.445 615.466 397.597C615.868 395.263 616.84 393.224 618.383 391.48C619.939 389.723 621.897 388.362 624.256 387.396C626.627 386.417 629.218 385.928 632.029 385.928C634.889 385.928 637.305 386.423 639.275 387.414C641.245 388.393 642.681 389.761 643.585 391.517C644.488 393.274 644.764 395.319 644.413 397.653H636.602ZM676.112 386.455H684.262L680.121 411.487C679.657 414.297 678.584 416.756 676.903 418.864C675.221 420.972 673.082 422.616 670.485 423.795C667.887 424.962 664.989 425.546 661.789 425.546C658.59 425.546 655.892 424.962 653.696 423.795C651.501 422.616 649.913 420.972 648.935 418.864C647.956 416.756 647.699 414.297 648.163 411.487L652.304 386.455H660.453L656.407 410.79C656.181 412.258 656.294 413.563 656.745 414.705C657.21 415.847 657.975 416.744 659.042 417.396C660.108 418.049 661.426 418.375 662.994 418.375C664.575 418.375 666.005 418.049 667.285 417.396C668.577 416.744 669.638 415.847 670.466 414.705C671.307 413.563 671.84 412.258 672.066 410.79L676.112 386.455ZM691.211 425H682.478L702.184 386.455H712.686L719.575 425H710.842L706.155 395.263H705.854L691.211 425ZM693.206 409.849H713.834L712.743 416.211H692.115L693.206 409.849ZM742.88 386.455H752.93L759.273 412.352H759.725L774.612 386.455H784.662L778.263 425H770.358L774.537 399.912H774.198L760.12 424.812H754.718L748.921 399.817H748.601L744.385 425H736.481L742.88 386.455ZM799.526 386.455L793.127 425H784.978L791.377 386.455H799.526ZM825.259 397.653C825.322 396.085 824.864 394.874 823.885 394.021C822.919 393.167 821.458 392.741 819.5 392.741C818.17 392.741 817.016 392.929 816.037 393.305C815.058 393.669 814.274 394.177 813.684 394.83C813.107 395.47 812.75 396.21 812.612 397.051C812.474 397.741 812.518 398.343 812.743 398.858C812.982 399.372 813.352 399.817 813.854 400.194C814.368 400.558 814.977 400.878 815.679 401.154C816.382 401.417 817.129 401.643 817.919 401.831L821.232 402.659C822.85 403.036 824.306 403.538 825.598 404.165C826.903 404.792 827.995 405.564 828.873 406.48C829.764 407.396 830.391 408.475 830.755 409.717C831.119 410.96 831.169 412.384 830.906 413.99C830.504 416.349 829.569 418.394 828.101 420.125C826.633 421.844 824.707 423.181 822.323 424.134C819.939 425.075 817.179 425.546 814.042 425.546C810.93 425.546 808.302 425.069 806.156 424.115C804.01 423.162 802.448 421.75 801.47 419.881C800.503 417.999 800.215 415.671 800.604 412.898H808.49C808.352 414.19 808.54 415.27 809.054 416.135C809.581 416.989 810.366 417.635 811.407 418.074C812.449 418.5 813.672 418.714 815.077 418.714C816.47 418.714 817.706 418.513 818.785 418.112C819.877 417.71 820.761 417.152 821.439 416.436C822.116 415.721 822.53 414.899 822.681 413.971C822.831 413.105 822.7 412.377 822.286 411.788C821.872 411.198 821.207 410.696 820.291 410.282C819.387 409.855 818.264 409.479 816.922 409.153L812.894 408.099C809.782 407.308 807.43 406.072 805.836 404.391C804.243 402.71 803.672 400.445 804.123 397.597C804.525 395.263 805.497 393.224 807.041 391.48C808.596 389.723 810.554 388.362 812.913 387.396C815.284 386.417 817.875 385.928 820.686 385.928C823.547 385.928 825.962 386.423 827.932 387.414C829.902 388.393 831.339 389.761 832.242 391.517C833.145 393.274 833.421 395.319 833.07 397.653H825.259ZM859.989 397.653C860.052 396.085 859.594 394.874 858.615 394.021C857.649 393.167 856.187 392.741 854.23 392.741C852.9 392.741 851.745 392.929 850.767 393.305C849.788 393.669 849.004 394.177 848.414 394.83C847.837 395.47 847.479 396.21 847.341 397.051C847.203 397.741 847.247 398.343 847.473 398.858C847.711 399.372 848.081 399.817 848.583 400.194C849.098 400.558 849.706 400.878 850.409 401.154C851.112 401.417 851.858 401.643 852.649 401.831L855.961 402.659C857.58 403.036 859.035 403.538 860.328 404.165C861.633 404.792 862.724 405.564 863.602 406.48C864.493 407.396 865.121 408.475 865.485 409.717C865.848 410.96 865.899 412.384 865.635 413.99C865.234 416.349 864.299 418.394 862.831 420.125C861.363 421.844 859.437 423.181 857.053 424.134C854.669 425.075 851.908 425.546 848.772 425.546C845.66 425.546 843.031 425.069 840.886 424.115C838.74 423.162 837.178 421.75 836.199 419.881C835.233 417.999 834.944 415.671 835.333 412.898H843.219C843.081 414.19 843.27 415.27 843.784 416.135C844.311 416.989 845.095 417.635 846.137 418.074C847.178 418.5 848.401 418.714 849.807 418.714C851.199 418.714 852.435 418.513 853.514 418.112C854.606 417.71 855.491 417.152 856.168 416.436C856.846 415.721 857.26 414.899 857.41 413.971C857.561 413.105 857.429 412.377 857.015 411.788C856.601 411.198 855.936 410.696 855.02 410.282C854.117 409.855 852.994 409.479 851.651 409.153L847.623 408.099C844.512 407.308 842.159 406.072 840.566 404.391C838.972 402.71 838.401 400.445 838.853 397.597C839.254 395.263 840.227 393.224 841.77 391.48C843.326 389.723 845.283 388.362 847.642 387.396C850.014 386.417 852.605 385.928 855.415 385.928C858.276 385.928 860.692 386.423 862.661 387.414C864.631 388.393 866.068 389.761 866.971 391.517C867.875 393.274 868.151 395.319 867.8 397.653H859.989ZM875.055 425H866.322L886.028 386.455H896.53L903.418 425H894.685L889.999 395.263H889.698L875.055 425ZM877.05 409.849H897.678L896.586 416.211H875.958L877.05 409.849ZM886.536 382.653L882.113 382.596C882.502 380.2 883.393 378.362 884.786 377.082C886.178 375.789 887.728 375.143 889.434 375.143C890.313 375.143 891.047 375.287 891.636 375.576C892.226 375.865 892.747 376.191 893.199 376.555C893.65 376.919 894.083 377.245 894.497 377.533C894.924 377.822 895.407 377.966 895.946 377.966C896.662 377.966 897.258 377.696 897.734 377.157C898.211 376.617 898.519 375.915 898.657 375.049L903.004 375.181C902.59 377.565 901.687 379.397 900.294 380.676C898.901 381.944 897.352 382.59 895.645 382.615C894.704 382.615 893.945 382.471 893.368 382.182C892.791 381.894 892.295 381.567 891.881 381.203C891.467 380.84 891.059 380.513 890.658 380.225C890.256 379.936 889.767 379.792 889.19 379.792C888.55 379.792 887.985 380.049 887.496 380.564C887.006 381.078 886.686 381.774 886.536 382.653ZM944.792 406.254C944.089 410.37 942.728 413.864 940.708 416.738C938.7 419.611 936.247 421.794 933.348 423.287C930.463 424.78 927.351 425.527 924.013 425.527C920.513 425.527 917.495 424.73 914.96 423.137C912.438 421.543 910.613 419.241 909.483 416.229C908.354 413.205 908.141 409.56 908.844 405.294C909.521 401.166 910.87 397.666 912.89 394.792C914.91 391.906 917.376 389.711 920.287 388.205C923.198 386.687 926.328 385.928 929.678 385.928C933.154 385.928 936.153 386.731 938.675 388.337C941.209 389.943 943.035 392.264 944.152 395.3C945.281 398.324 945.494 401.976 944.792 406.254ZM936.68 405.294C937.119 402.647 937.1 400.426 936.623 398.632C936.159 396.825 935.306 395.457 934.064 394.529C932.822 393.6 931.253 393.136 929.358 393.136C927.301 393.136 925.412 393.65 923.693 394.679C921.987 395.708 920.544 397.201 919.364 399.159C918.198 401.104 917.388 403.469 916.937 406.254C916.485 408.914 916.497 411.135 916.974 412.917C917.464 414.699 918.336 416.047 919.59 416.963C920.858 417.867 922.432 418.319 924.314 418.319C926.36 418.319 928.229 417.817 929.923 416.813C931.63 415.797 933.066 414.322 934.233 412.39C935.4 410.445 936.216 408.08 936.68 405.294ZM963.495 386.455L958.3 413.444H951.45L955.157 386.455H963.495ZM953.351 425.489C952.083 425.489 951.042 425.05 950.226 424.172C949.423 423.294 949.059 422.227 949.135 420.972C949.222 419.73 949.743 418.682 950.697 417.829C951.663 416.963 952.773 416.531 954.028 416.531C955.233 416.531 956.249 416.963 957.077 417.829C957.905 418.695 958.269 419.743 958.169 420.972C958.106 421.8 957.836 422.56 957.359 423.25C956.895 423.927 956.305 424.473 955.59 424.887C954.875 425.289 954.128 425.489 953.351 425.489Z" fill="#F9BB00"/>
</g>
<path d="M527.226 256.357C479.332 256.357 427.615 226.319 427.615 160.395C427.615 94.47 479.332 64.4323 527.226 64.4323C553.828 64.4323 578.383 73.1772 596.588 89.142C616.317 106.67 626.799 131.38 626.799 160.395C626.799 189.409 616.317 213.965 596.588 231.474C578.383 247.438 553.654 256.357 527.226 256.357Z" fill="url(#paint0_radial_124_57)"/>
<path d="M609.446 103.343C618.866 118.98 623.693 136.971 623.364 155.233C623.364 184.19 612.882 208.803 593.153 226.312C574.949 242.277 550.239 251.196 523.792 251.196C492.789 251.196 460.222 238.59 441.091 211.815C459.565 242.142 494.294 256.35 527.228 256.35C553.656 256.35 578.385 247.432 596.589 231.467C616.318 213.938 626.801 189.402 626.801 160.388C626.801 138.516 620.836 119.076 609.446 103.343Z" fill="#EB8F00"/>
<path opacity="0.8" d="M469.697 185.546C488.355 185.546 503.48 171.286 503.48 153.694C503.48 136.103 488.355 121.842 469.697 121.842C451.039 121.842 435.914 136.103 435.914 153.694C435.914 171.286 451.039 185.546 469.697 185.546Z" fill="url(#paint1_radial_124_57)"/>
<path opacity="0.8" d="M586.296 185.546C604.953 185.546 620.079 171.286 620.079 153.694C620.079 136.103 604.953 121.842 586.296 121.842C567.638 121.842 552.513 136.103 552.513 153.694C552.513 171.286 567.638 185.546 586.296 185.546Z" fill="url(#paint2_radial_124_57)"/>
<path d="M450.777 54.0544C458.24 54.0544 464.29 49.733 464.29 44.4022C464.29 39.0714 458.24 34.75 450.777 34.75C443.314 34.75 437.264 39.0714 437.264 44.4022C437.264 49.733 443.314 54.0544 450.777 54.0544Z" fill="#FF00A2"/>
<path d="M507.618 71.9488C510.785 68.7825 509.99 62.8545 505.844 58.7081C501.698 54.5618 495.77 53.7673 492.603 56.9336C489.437 60.0999 490.231 66.028 494.378 70.1743C498.524 74.3206 504.452 75.1151 507.618 71.9488Z" fill="#FD3B3B"/>
<path d="M549.03 56.5502C556.112 51.0684 559.79 43.9589 557.245 40.6708C554.7 37.3826 546.895 39.1609 539.813 44.6427C532.731 50.1245 529.053 57.2339 531.598 60.5221C534.143 63.8102 541.947 62.0319 549.03 56.5502Z" fill="#00EEFF"/>
<path d="M454.554 183.986C457.232 182.44 456.593 176.322 453.128 170.32C449.663 164.319 444.684 160.707 442.006 162.253C439.329 163.799 439.967 169.917 443.432 175.919C446.897 181.92 451.877 185.532 454.554 183.986Z" fill="#0048FF"/>
<path d="M590.731 239.384C594.463 239.384 597.488 234.63 597.488 228.766C597.488 222.903 594.463 218.149 590.731 218.149C587 218.149 583.975 222.903 583.975 228.766C583.975 234.63 587 239.384 590.731 239.384Z" fill="#F63BBE"/>
<path d="M629.399 128.826C635.066 124.837 638.665 120.19 637.437 118.447C636.21 116.703 630.621 118.523 624.955 122.512C619.288 126.501 615.689 131.148 616.916 132.892C618.144 134.635 623.733 132.815 629.399 128.826Z" fill="#00CC00"/>
<path d="M447.843 249.11C450.071 247.647 449.033 242.126 445.523 236.778C442.014 231.429 437.363 228.279 435.134 229.741C432.905 231.203 433.944 236.725 437.453 242.073C440.963 247.421 445.614 250.572 447.843 249.11Z" fill="#0048FF"/>
<path d="M433.744 211.375C440.125 210.922 445.145 208.4 444.956 205.741C444.767 203.082 439.441 201.294 433.06 201.747C426.679 202.2 421.66 204.722 421.848 207.381C422.037 210.04 427.363 211.828 433.744 211.375Z" fill="#7ACDED"/>
<path d="M451.003 186.095C458.662 185.586 464.774 183.706 464.654 181.898C464.533 180.089 458.226 179.037 450.567 179.546C442.907 180.056 436.796 181.935 436.916 183.744C437.036 185.552 443.343 186.605 451.003 186.095Z" fill="#FF82B2"/>
<path d="M633.974 166.402C632.333 160.726 628.414 155.978 623.163 153.275C614.283 148.449 603.164 151.75 598.357 160.63C598.318 160.688 598.299 160.746 598.26 160.804C594.245 168.371 597.083 177.772 604.631 181.846C607.623 183.525 611.137 184.008 614.476 183.197C617.912 182.425 620.808 180.166 622.391 177.019C624.109 173.39 623.955 169.143 622.005 165.63C620.422 162.541 617.353 160.495 613.897 160.225C611.909 160.186 610.287 161.769 610.249 163.757C610.229 165.553 611.542 167.097 613.318 167.367C614.303 167.425 615.191 168.024 615.635 168.912C616.31 170.282 616.445 171.884 616.021 173.352C615.364 174.645 614.167 175.572 612.739 175.861C611.175 176.267 609.515 176.054 608.106 175.282C606.175 174.259 604.727 172.521 604.052 170.456C603.473 168.332 603.685 166.074 604.631 164.085C605.982 161.46 608.357 159.491 611.195 158.68C614.032 157.869 617.044 158.14 619.689 159.452C623.144 161.344 625.712 164.549 626.831 168.332C628.009 172.135 627.584 176.247 625.673 179.722C622.005 186.672 614.862 191.305 604.438 191.305C598.454 191.305 562.837 190.339 562.837 190.339L563.261 199.22L604.052 198.64C616.214 198.64 626.252 193.814 632.043 183.004C635.094 178.023 635.788 171.942 633.974 166.402Z" fill="url(#paint3_linear_124_57)"/>
<path d="M539.575 194.989C540.752 196.244 541.66 197.711 542.277 199.313L564.381 199.178C564.381 196.283 563.995 193.387 563.995 190.298C558.204 190.105 546.273 189.912 542.567 189.777C542.026 191.765 540.965 193.58 539.459 194.989H539.575Z" fill="#7F0099"/>
<path d="M606.753 121.262L613.51 122.227L615.247 115.47L616.212 111.609L577.41 106.204C594.977 119.524 605.595 121.262 606.753 121.262Z" fill="#FF4545"/>
<path d="M637.834 25.8862L622.197 34.7663L618.336 36.8898L634.552 39.2063C635.71 34.3802 637.834 25.8862 637.834 25.8862Z" fill="#FF4545"/>
<path d="M603.278 45.3822L587.255 54.4553L629.146 60.4397L631.849 49.4361L603.278 45.3822Z" fill="#FF4545"/>
<path d="M557.529 71.2749H557.335L623.936 80.9271L626.446 70.6958L572.2 62.974L557.529 71.2749Z" fill="#FF4545"/>
<path d="M563.126 93.4506L618.724 101.365L621.426 90.941L554.439 81.2888C555.212 83.4123 557.528 87.6593 563.126 93.4506Z" fill="#FF4545"/>
<path d="M572.195 62.9671L626.441 70.6889L629.144 60.4575L587.253 54.4731L572.195 62.9671Z" fill="#FF9C9C"/>
<path d="M633.392 43.4658C633.392 43.4658 633.971 40.7632 634.358 39.4119L618.142 37.0953L603.084 45.5893L631.655 49.6432L633.392 43.4658Z" fill="#FF9C9C"/>
<path d="M551.736 74.3432L553.86 80.5206C553.937 80.8681 554.072 81.1963 554.246 81.4858L621.232 91.138L623.742 80.9067L557.141 71.4475L551.736 74.3432Z" fill="#FF9C9C"/>
<path d="M576.64 105.62C576.833 105.814 577.219 106.007 577.412 106.2L616.214 111.798L618.724 101.567L563.127 93.6517C567.355 97.9373 571.872 101.933 576.64 105.62Z" fill="#FF9C9C"/>
<path d="M637.64 37.2854C642.758 37.2854 646.906 33.1369 646.906 28.0193C646.906 22.9018 642.758 18.7532 637.64 18.7532C632.522 18.7532 628.374 22.9018 628.374 28.0193C628.374 33.1369 632.522 37.2854 637.64 37.2854Z" fill="#C93737"/>
<path d="M543.134 192.708C545.972 190.257 547.748 186.801 548.095 183.056C548.636 179.292 547.516 175.489 545.006 172.632C540.508 166.724 527.999 168.192 527.999 168.192C524.64 168.327 520.76 169.929 521.243 173.79C521.88 176.01 523.675 177.709 525.914 178.211C530.856 179.388 537.902 178.211 538.095 183.23C538.327 188.867 529.679 186.55 528.984 192.515C528.289 198.48 538.095 197.689 538.095 201.801C538.095 204.947 534.872 205.488 531.474 206.202C528.559 206.8 522.961 207.708 522.517 211.047C522.073 214.387 523.984 218.499 531.86 217.302C544.254 215.372 548.423 208.634 548.423 204.465C548.501 199.947 546.57 195.642 543.134 192.708Z" fill="#422B0D"/>
<path d="M500.702 141.751L500.413 141.384L499.641 140.4L498.656 139.338C498.27 138.913 497.807 138.45 497.343 137.987C496.861 137.523 496.359 137.079 495.818 136.674C495.336 136.307 494.834 135.979 494.293 135.69C493.927 135.477 493.521 135.323 493.096 135.246C492.961 135.226 492.845 135.226 492.71 135.246C492.71 135.246 492.71 135.246 492.556 135.246H492.903H491.9C491.649 135.246 491.9 135.246 491.9 135.246H492.035C492.189 135.246 492.035 135.246 492.035 135.246C491.957 135.226 491.9 135.226 491.822 135.246C491.398 135.323 490.992 135.477 490.625 135.69C490.085 135.979 489.583 136.307 489.1 136.674C488.598 137.06 488.077 137.523 487.575 137.987C486.629 138.913 485.799 139.917 485.22 140.516L484.294 141.616L483.869 142.099C481.243 145.014 476.842 145.477 473.657 143.199C471.63 141.79 470.587 139.338 470.973 136.886C470.973 136.886 471.109 136.153 471.456 134.956C471.997 133.103 472.769 131.327 473.734 129.667C475.24 126.925 477.286 124.512 479.738 122.582C481.417 121.308 483.27 120.285 485.259 119.57C485.799 119.358 486.378 119.184 486.938 119.049C487.575 118.856 488.212 118.721 488.869 118.624L489.988 118.47H490.915H491.919H493.347H494.274C494.872 118.47 495.49 118.624 496.089 118.721C497.266 118.933 498.405 119.242 499.525 119.648C501.513 120.362 503.366 121.385 505.046 122.659C507.536 124.551 509.64 126.925 511.185 129.647C511.745 130.593 512.247 131.597 512.652 132.62C513.019 133.47 513.289 134.377 513.521 135.052C513.752 135.728 513.733 136.056 513.81 136.385V136.829C514.331 140.554 511.725 144.01 508 144.531C507.922 144.55 507.845 144.55 507.787 144.55C505.104 144.956 502.382 143.894 500.702 141.751Z" fill="#422B0D"/>
<path d="M572.399 141.751L572.109 141.384L571.337 140.4L570.468 139.338C570.082 138.913 569.619 138.45 569.156 137.987C568.673 137.523 568.171 137.079 567.631 136.674C567.148 136.307 566.646 135.979 566.106 135.689C565.739 135.477 565.333 135.323 564.928 135.245C564.793 135.226 564.677 135.226 564.542 135.245C564.542 135.245 564.426 135.245 564.387 135.245H564.677H563.673C563.403 135.245 563.673 135.245 563.673 135.245H563.808C563.963 135.245 563.808 135.245 563.808 135.245H563.596C563.191 135.323 562.785 135.477 562.418 135.689C561.878 135.979 561.376 136.307 560.893 136.674C560.353 137.079 559.851 137.523 559.368 137.987C558.403 138.913 557.592 139.917 556.994 140.516L556.067 141.616L555.643 142.099C553.017 145.014 548.616 145.477 545.43 143.199C543.403 141.79 542.361 139.338 542.747 136.886C542.747 136.886 542.882 136.153 543.249 134.956C543.732 133.083 544.446 131.269 545.373 129.57C546.917 126.848 549.021 124.474 551.511 122.582C553.191 121.308 555.063 120.285 557.052 119.57C557.592 119.358 558.152 119.184 558.712 119.049C559.349 118.856 559.986 118.721 560.642 118.624L561.762 118.47H562.689H563.693H565.121H566.048C566.665 118.47 567.264 118.624 567.862 118.721C571.125 119.281 574.194 120.613 576.839 122.582C579.329 124.474 581.414 126.848 582.978 129.57C583.538 130.516 584.02 131.52 584.426 132.543C584.773 133.334 585.063 134.145 585.294 134.975C585.429 135.419 585.526 135.863 585.584 136.307V136.751C586.124 140.458 583.538 143.913 579.831 144.434C579.754 144.454 579.677 144.454 579.58 144.473C576.878 144.898 574.136 143.875 572.399 141.751Z" fill="#422B0D"/>
<defs>
<filter id="filter0_d_124_57" x="95.3043" y="310.164" width="872.191" height="123.381" filterUnits="userSpaceOnUse" color-interpolation-filters="sRGB">
<feFlood flood-opacity="0" result="BackgroundImageFix"/>
<feColorMatrix in="SourceAlpha" type="matrix" values="0 0 0 0 0 0 0 0 0 0 0 0 0 0 0 0 0 0 127 0" result="hardAlpha"/>
<feOffset dy="4"/>
<feGaussianBlur stdDeviation="2"/>
<feComposite in2="hardAlpha" operator="out"/>
<feColorMatrix type="matrix" values="0 0 0 0 0 0 0 0 0 0 0 0 0 0 0 0 0 0 0.25 0"/>
<feBlend mode="normal" in2="BackgroundImageFix" result="effect1_dropShadow_124_57"/>
<feBlend mode="normal" in="SourceGraphic" in2="effect1_dropShadow_124_57" result="shape"/>
</filter>
<radialGradient id="paint0_radial_124_57" cx="0" cy="0" r="1" gradientUnits="userSpaceOnUse" gradientTransform="translate(527.207 160.395) scale(97.7942 97.7938)">
<stop offset="0.5" stop-color="#FDE030"/>
<stop offset="0.92" stop-color="#F7C02B"/>
<stop offset="1" stop-color="#F4A223"/>
</radialGradient>
<radialGradient id="paint1_radial_124_57" cx="0" cy="0" r="1" gradientUnits="userSpaceOnUse" gradientTransform="translate(469.697 160.488) scale(36.7708 33.0186)">
<stop stop-color="#ED7770"/>
<stop offset="0.9" stop-color="#ED7770" stop-opacity="0"/>
</radialGradient>
<radialGradient id="paint2_radial_124_57" cx="0" cy="0" r="1" gradientUnits="userSpaceOnUse" gradientTransform="translate(648.688 2279.09) scale(37.5087 37.5085)">
<stop stop-color="#ED7770"/>
<stop offset="0.9" stop-color="#ED7770" stop-opacity="0"/>
</radialGradient>
<linearGradient id="paint3_linear_124_57" x1="563.107" y1="175.138" x2="634.9" y2="175.138" gradientUnits="userSpaceOnUse">
<stop stop-color="#004054"/>
<stop offset="0.99" stop-color="#45A4FF"/>
</linearGradient>
</defs>
</svg>
