<svg width="452" height="54" viewBox="0 0 452 54" fill="none" xmlns="http://www.w3.org/2000/svg">
<g filter="url(#filter0_d_200_144)">
<path d="M40.1595 46.7915H33.8841L30.099 27.1187L22.7528 47.2646H20.4369L13.0907 27.1187L9.1561 46.7915H2.90561L10.2518 10.2847H13.6883L21.5824 34.8633L29.3021 10.2847H32.7137L40.1595 46.7915ZM50.6185 16.0371V24.5786H62.6712V30.082H50.6185V41.0142H67.1537V46.7666H44.1439V10.2847H67.4276V16.0371H50.6185ZM107.197 46.7915H100.921L97.1361 27.1187L89.7899 47.2646H87.474L80.1278 27.1187L76.1932 46.7915H69.9427L77.2889 10.2847H80.7254L88.6195 34.8633L96.3392 10.2847H99.7508L107.197 46.7915ZM109.438 28.2144C109.438 23.0181 110.857 18.627 113.696 15.041C116.552 11.4385 120.362 9.63721 125.126 9.63721C130.372 9.63721 134.382 11.2642 137.154 14.5181C139.927 17.772 141.313 22.3374 141.313 28.2144C141.313 34.0913 139.86 38.7563 136.955 42.2095C134.066 45.6626 129.957 47.3892 124.628 47.3892C119.731 47.3892 115.971 45.6792 113.348 42.2593C110.741 38.8394 109.438 34.1577 109.438 28.2144ZM116.161 28.2144C116.161 32.481 116.884 35.7847 118.328 38.1255C119.772 40.4663 121.872 41.6367 124.628 41.6367C127.866 41.6367 130.331 40.4912 132.024 38.2002C133.734 35.9092 134.589 32.5806 134.589 28.2144C134.589 19.6646 131.435 15.3896 125.126 15.3896C122.238 15.3896 120.021 16.5518 118.477 18.876C116.933 21.1836 116.161 24.2964 116.161 28.2144ZM132.273 0L126.645 7.29639H121.914L126.122 0H132.273ZM167.61 46.7666L157.873 31.7007C156.893 31.6841 155.524 31.626 153.764 31.5264V46.7666H147.04V10.2847C147.406 10.2847 148.808 10.2266 151.249 10.1104C153.689 9.97754 155.657 9.91113 157.151 9.91113C166.414 9.91113 171.046 13.4971 171.046 20.6689C171.046 22.8271 170.407 24.7944 169.129 26.5708C167.85 28.3472 166.24 29.6006 164.298 30.3311L175.08 46.7666H167.61ZM153.764 15.9126V26.0479C154.959 26.1475 155.872 26.1973 156.503 26.1973C159.209 26.1973 161.185 25.8154 162.43 25.0518C163.692 24.2881 164.323 22.8022 164.323 20.5942C164.323 18.8013 163.65 17.5479 162.306 16.834C160.961 16.1201 158.844 15.7632 155.955 15.7632C155.258 15.7632 154.528 15.813 153.764 15.9126ZM178.343 46.7666V10.2847H184.817V46.7666H178.343ZM213.704 46.7666L211.039 39.3706H198.538L195.998 46.7666H188.802L203.345 9.78662H206.183L220.851 46.7666H213.704ZM204.764 20.9429L200.381 34.415H209.147L204.764 20.9429ZM261.218 47.2646L243.512 24.1802V46.7915H237.286V10.2847H240.399L257.632 32.2983V10.2847H263.857V47.2646H261.218ZM292.644 46.7666L289.98 39.3706H277.479L274.939 46.7666H267.742L282.285 9.78662H285.124L299.791 46.7666H292.644ZM283.704 20.9429L279.322 34.415H288.087L283.704 20.9429ZM322.702 16.0371V24.5786H335.526V30.082H322.702V46.7666H316.227V10.2847H340.258V16.0371H322.702ZM364.463 46.7666L361.798 39.3706H349.297L346.757 46.7666H339.56L354.103 9.78662H356.942L371.61 46.7666H364.463ZM355.523 20.9429L351.14 34.415H359.906L355.523 20.9429ZM375.619 46.7666V10.2847H382.094V46.7666H375.619ZM409.411 46.7666L400.795 33.6431L392.827 46.7666H386.078L397.01 27.8657L386.95 10.2598L393.574 10.2847L400.97 22.6113L409.113 10.2847H415.886L404.331 27.9653L416.459 46.7666H409.411ZM441.61 46.7666L438.946 39.3706H426.445L423.905 46.7666H416.708L431.251 9.78662H434.09L448.757 46.7666H441.61ZM432.67 20.9429L428.287 34.415H437.053L432.67 20.9429Z" fill="#F9BB00"/>
</g>
<defs>
<filter id="filter0_d_200_144" x="-7.77245e-05" y="0" width="451.663" height="53.2004" filterUnits="userSpaceOnUse" color-interpolation-filters="sRGB">
<feFlood flood-opacity="0" result="BackgroundImageFix"/>
<feColorMatrix in="SourceAlpha" type="matrix" values="0 0 0 0 0 0 0 0 0 0 0 0 0 0 0 0 0 0 127 0" result="hardAlpha"/>
<feOffset dy="2.9056"/>
<feGaussianBlur stdDeviation="1.4528"/>
<feComposite in2="hardAlpha" operator="out"/>
<feColorMatrix type="matrix" values="0 0 0 0 0 0 0 0 0 0 0 0 0 0 0 0 0 0 0.25 0"/>
<feBlend mode="normal" in2="BackgroundImageFix" result="effect1_dropShadow_200_144"/>
<feBlend mode="normal" in="SourceGraphic" in2="effect1_dropShadow_200_144" result="shape"/>
</filter>
</defs>
</svg>
